<svg id="Layer_1" data-name="Layer 1" xmlns="http://www.w3.org/2000/svg" xmlns:xlink="http://www.w3.org/1999/xlink" viewBox="0 0 78.74 257.5"><defs><style>.cls-1{fill:url(#linear-gradient);}.cls-2{fill:url(#linear-gradient-2);}.cls-3{fill:url(#linear-gradient-3);}.cls-4{fill:url(#linear-gradient-4);}.cls-5{fill:url(#radial-gradient);}.cls-6{fill:url(#linear-gradient-5);}.cls-7{fill:url(#linear-gradient-6);}.cls-8{fill:url(#linear-gradient-7);}.cls-9{fill:url(#linear-gradient-8);}.cls-10{fill:url(#linear-gradient-9);}.cls-11{fill:url(#linear-gradient-10);}.cls-12{fill:url(#linear-gradient-11);}.cls-13,.cls-16{opacity:0.8;}.cls-14{fill:#fff;opacity:0.2;}.cls-15{fill:url(#linear-gradient-12);}.cls-16{fill:none;stroke:#fff;stroke-linecap:round;stroke-linejoin:round;stroke-width:2px;}</style><linearGradient id="linear-gradient" x1="95.59" y1="323.3" x2="174.33" y2="323.3" gradientUnits="userSpaceOnUse"><stop offset="0" stop-color="#cc891e"/><stop offset="0.12" stop-color="#d78b12"/><stop offset="0.33" stop-color="#e48e05"/><stop offset="0.51" stop-color="#e88f00"/><stop offset="0.68" stop-color="#e48e04"/><stop offset="0.88" stop-color="#d88c11"/><stop offset="1" stop-color="#cc891e"/></linearGradient><linearGradient id="linear-gradient-2" x1="95.59" y1="323.3" x2="174.33" y2="323.3" gradientUnits="userSpaceOnUse"><stop offset="0" stop-color="#94571d"/><stop offset="0.05" stop-color="#aa6516" stop-opacity="0.74"/><stop offset="0.11" stop-color="#bd720f" stop-opacity="0.52"/><stop offset="0.16" stop-color="#cd7d09" stop-opacity="0.33"/><stop offset="0.23" stop-color="#d98505" stop-opacity="0.18"/><stop offset="0.3" stop-color="#e18b02" stop-opacity="0.08"/><stop offset="0.38" stop-color="#e68e01" stop-opacity="0.02"/><stop offset="0.5" stop-color="#e88f00" stop-opacity="0"/><stop offset="0.6" stop-color="#e68e01" stop-opacity="0.02"/><stop offset="0.68" stop-color="#e08a03" stop-opacity="0.09"/><stop offset="0.75" stop-color="#d68306" stop-opacity="0.21"/><stop offset="0.83" stop-color="#c87a0b" stop-opacity="0.38"/><stop offset="0.9" stop-color="#b66e11" stop-opacity="0.59"/><stop offset="0.97" stop-color="#a05f19" stop-opacity="0.85"/><stop offset="1" stop-color="#94571d"/></linearGradient><linearGradient id="linear-gradient-3" x1="134.96" y1="442.42" x2="134.96" y2="236.73" gradientUnits="userSpaceOnUse"><stop offset="0" stop-color="#e88f00" stop-opacity="0"/><stop offset="0.34" stop-color="#e68d00" stop-opacity="0.02"/><stop offset="0.48" stop-color="#df8800" stop-opacity="0.08"/><stop offset="0.58" stop-color="#d27f00" stop-opacity="0.18"/><stop offset="0.66" stop-color="#c17100" stop-opacity="0.34"/><stop offset="0.74" stop-color="#aa6000" stop-opacity="0.53"/><stop offset="0.8" stop-color="#8e4b00" stop-opacity="0.77"/><stop offset="0.85" stop-color="#733700"/><stop offset="0.85" stop-color="#763900" stop-opacity="0.98"/><stop offset="0.88" stop-color="#9e5800" stop-opacity="0.63"/><stop offset="0.91" stop-color="#bf7000" stop-opacity="0.35"/><stop offset="0.94" stop-color="#d58100" stop-opacity="0.16"/><stop offset="0.97" stop-color="#e38b00" stop-opacity="0.04"/><stop offset="1" stop-color="#e88f00" stop-opacity="0"/></linearGradient><linearGradient id="linear-gradient-4" x1="134.96" y1="403.7" x2="134.96" y2="277.59" gradientUnits="userSpaceOnUse"><stop offset="0.69" stop-color="#fff" stop-opacity="0.01"/><stop offset="0.79" stop-color="#fff" stop-opacity="0.01"/><stop offset="0.84" stop-color="#fff" stop-opacity="0.04"/><stop offset="0.87" stop-color="#fff" stop-opacity="0.09"/><stop offset="0.89" stop-color="#fff" stop-opacity="0.16"/><stop offset="0.92" stop-color="#fff" stop-opacity="0.25"/><stop offset="0.94" stop-color="#fff" stop-opacity="0.36"/><stop offset="0.95" stop-color="#fff" stop-opacity="0.49"/><stop offset="0.97" stop-color="#fff" stop-opacity="0.65"/><stop offset="0.99" stop-color="#fff" stop-opacity="0.81"/><stop offset="1" stop-color="#fff"/></linearGradient><radialGradient id="radial-gradient" cx="135.46" cy="438.15" r="37.21" gradientTransform="translate(0 366.26) scale(1 0.16)" gradientUnits="userSpaceOnUse"><stop offset="0" stop-color="#e88f00"/><stop offset="0.21" stop-color="#dd8704"/><stop offset="0.58" stop-color="#be730e"/><stop offset="1" stop-color="#94571d"/></radialGradient><linearGradient id="linear-gradient-5" x1="137.25" y1="204.64" x2="147.58" y2="204.64" gradientUnits="userSpaceOnUse"><stop offset="0" stop-color="#787877"/><stop offset="0.05" stop-color="#919190"/><stop offset="0.12" stop-color="#acacab"/><stop offset="0.19" stop-color="#c1c1c1"/><stop offset="0.27" stop-color="#d0d0cf"/><stop offset="0.37" stop-color="#d8d8d8"/><stop offset="0.52" stop-color="#dbdbdb"/><stop offset="0.73" stop-color="#d9d9d9"/><stop offset="0.81" stop-color="#d2d2d2"/><stop offset="0.87" stop-color="#c7c7c7"/><stop offset="0.91" stop-color="#b6b6b6"/><stop offset="0.95" stop-color="#a0a0a0"/><stop offset="0.99" stop-color="#868685"/><stop offset="1" stop-color="#787877"/></linearGradient><linearGradient id="linear-gradient-6" x1="97.88" y1="437.89" x2="172.04" y2="437.89" xlink:href="#linear-gradient-5"/><linearGradient id="linear-gradient-7" x1="122.34" y1="204.64" x2="132.67" y2="204.64" xlink:href="#linear-gradient-5"/><linearGradient id="linear-gradient-8" x1="134.96" y1="283.6" x2="134.96" y2="267.67" gradientUnits="userSpaceOnUse"><stop offset="0" stop-color="#fff"/><stop offset="0.03" stop-color="#fff" stop-opacity="0.95"/><stop offset="0.24" stop-color="#fff" stop-opacity="0.67"/><stop offset="0.44" stop-color="#fff" stop-opacity="0.43"/><stop offset="0.62" stop-color="#fff" stop-opacity="0.25"/><stop offset="0.78" stop-color="#fff" stop-opacity="0.12"/><stop offset="0.91" stop-color="#fff" stop-opacity="0.04"/><stop offset="1" stop-color="#fff" stop-opacity="0.01"/></linearGradient><linearGradient id="linear-gradient-9" x1="116.64" y1="227.76" x2="153.28" y2="227.76" gradientUnits="userSpaceOnUse"><stop offset="0"/><stop offset="0.16" stop-color="#1c1c1c"/><stop offset="0.38" stop-color="#3d3d3d"/><stop offset="0.51" stop-color="#4a4a4a"/><stop offset="0.7" stop-color="#303030"/><stop offset="1"/></linearGradient><linearGradient id="linear-gradient-10" x1="134.96" y1="223.93" x2="134.96" y2="204.17" gradientUnits="userSpaceOnUse"><stop offset="0" stop-opacity="0"/><stop offset="1"/></linearGradient><linearGradient id="linear-gradient-11" x1="119.49" y1="200.15" x2="150.43" y2="200.15" xlink:href="#linear-gradient-9"/><linearGradient id="linear-gradient-12" y1="179.61" x2="81.71" y2="179.61" gradientUnits="userSpaceOnUse"><stop offset="0"/><stop offset="0.07" stop-color="#0e0e0e"/><stop offset="0.21" stop-color="#202020"/><stop offset="0.35" stop-color="#2a2a2a"/><stop offset="0.5" stop-color="#2e2e2e"/><stop offset="0.64" stop-color="#292929"/><stop offset="0.81" stop-color="#191919"/><stop offset="1"/><stop offset="1"/></linearGradient></defs><title>tttUntitled-1</title><path class="cls-1" d="M168.16,285.51c-3.62-2.59-10.87-7.08-15-13.35s.11-18.16.11-27.15-4.81-14.49-4.81-21.34V204.33c-.73-.68-13.51,1.09-13.51,1.09s-12.78-1.77-13.51-1.09v19.34c0,6.85-4.81,12.35-4.81,21.34s4.22,20.88.11,27.15-11.37,10.76-15,13.35c-4.73,3.38-6.17,6-6.17,18.8V420.9c0,7.36,3.53,21.52,15.28,21.52h48.18c11.75,0,15.28-14.16,15.28-21.52V304.31C174.33,291.5,172.89,288.89,168.16,285.51Z" transform="translate(-95.59 -185.89)"/><path class="cls-2" d="M168.16,285.51c-3.62-2.59-10.87-7.08-15-13.35s.11-18.16.11-27.15-4.81-14.49-4.81-21.34V204.33c-.73-.68-13.51,1.09-13.51,1.09s-12.78-1.77-13.51-1.09v19.34c0,6.85-4.81,12.35-4.81,21.34s4.22,20.88.11,27.15-11.37,10.76-15,13.35c-4.73,3.38-6.17,6-6.17,18.8V420.9c0,7.36,3.53,21.52,15.28,21.52h48.18c11.75,0,15.28-14.16,15.28-21.52V304.31C174.33,291.5,172.89,288.89,168.16,285.51Z" transform="translate(-95.59 -185.89)"/><path class="cls-3" d="M168.16,285.51c-3.62-2.59-10.87-7.08-15-13.35s.11-18.16.11-27.15-4.81-14.49-4.81-21.34V204.33c-.73-.68-13.51,1.09-13.51,1.09s-12.78-1.77-13.51-1.09v19.34c0,6.85-4.81,12.35-4.81,21.34s4.22,20.88.11,27.15-11.37,10.76-15,13.35c-4.73,3.38-6.17,6-6.17,18.8V420.9c0,7.36,3.53,21.52,15.28,21.52h48.18c11.75,0,15.28-14.16,15.28-21.52V304.31C174.33,291.5,172.89,288.89,168.16,285.51Z" transform="translate(-95.59 -185.89)"/><path class="cls-4" d="M170.55,403.7V294c0-5.69-17.76-11.85-35.54-11.86S99.37,288.34,99.37,294V403.7Z" transform="translate(-95.59 -185.89)"/><path class="cls-5" d="M135,432.39c-14.26,0-27,1.16-35.59,3,2.38,4,6.06,7,11.5,7h48.18c5.44,0,9.12-3,11.5-7C162,433.55,149.22,432.39,135,432.39Z" transform="translate(-95.59 -185.89)"/><path class="cls-6" d="M147.58,204.18a98.15,98.15,0,0,0-10.33.94C140.13,204.77,145,204.23,147.58,204.18Z" transform="translate(-95.59 -185.89)"/><path class="cls-7" d="M160.43,438.5H109.49a13.75,13.75,0,0,1-11.61-6.11c2.21,5.36,6.24,11,13,11h48.18c6.75,0,10.78-5.64,13-11A13.75,13.75,0,0,1,160.43,438.5Z" transform="translate(-95.59 -185.89)"/><path class="cls-8" d="M132.67,205.12a98.15,98.15,0,0,0-10.33-.94C124.91,204.23,129.79,204.77,132.67,205.12Z" transform="translate(-95.59 -185.89)"/><path class="cls-9" d="M165.42,283.6c-3.82-2.67-9-6.5-12.25-11.44a11.07,11.07,0,0,1-1.57-4.49,78.83,78.83,0,0,1-16.5,2.05h-.28a78.83,78.83,0,0,1-16.5-2.05,11.07,11.07,0,0,1-1.57,4.49c-3.25,4.94-8.43,8.77-12.25,11.44,9-2.65,19.68-4.92,30.24-5h.44C145.74,278.68,156.46,281,165.42,283.6Z" transform="translate(-95.59 -185.89)"/><path class="cls-10" d="M152.78,251.35a51,51,0,0,0,.5-6.34c0-9-4.81-14.49-4.81-21.34V204.33c-.73-.68-13.51,1.09-13.51,1.09s-12.78-1.77-13.51-1.09v19.34c0,6.85-4.81,12.35-4.81,21.34a51,51,0,0,0,.5,6.34Z" transform="translate(-95.59 -185.89)"/><path class="cls-11" d="M148.49,223.93a2.28,2.28,0,0,1,0-.26V204.33c-.73-.68-13.51,1.09-13.51,1.09s-12.78-1.77-13.51-1.09v19.34a2.28,2.28,0,0,1,0,.26Z" transform="translate(-95.59 -185.89)"/><path class="cls-12" d="M150.43,214.41V195.56c0-6.41-5.2-9.67-11.6-9.67h-7.74c-6.4,0-11.6,3.26-11.6,9.67v18.85Z" transform="translate(-95.59 -185.89)"/><rect class="cls-13" x="23.9" y="12.72" width="30.94" height="0.77"/><rect class="cls-14" x="23.9" y="13.49" width="30.94" height="0.77"/><rect class="cls-15" y="122.33" width="78.74" height="114.56"/><rect class="cls-16" x="8.97" y="128.12" width="60.8" height="101.48" rx="12.2" ry="12.2"/><rect class="cls-16" x="19.05" y="144.62" width="40.64" height="24.47" rx="11.6" ry="11.6"/></svg>