<svg id="Layer_1" data-name="Layer 1" xmlns="http://www.w3.org/2000/svg" viewBox="0 0 461.04 287.72"><defs><style>.cls-1{fill:#afafaf;}.cls-2{fill:#eaeaea;}</style></defs><title>tttSingleCartoonDrugsYulia1015-512</title><path class="cls-1" d="M289,255c10.87-5,19.34.21,27.16,6.82,9.62,8.14,18.8,16.8,28.31,25.07,7.68,6.66,12.12,15.28,15.51,24.58a23.26,23.26,0,0,0,15.25,14.65C387,330,398.62,334,408.45,341.73a244.57,244.57,0,0,1,36.73,36.41c2.79,3.37,3.14,7.36,3.58,11.17.66,5.75,4.12,9.05,8.66,11.33,6.83,3.42,13.95,6.25,20.87,9.49,10.78,5,18.4,12.61,21,24.83,1.53,7.31,6.85,9.94,18.35,10,4.64,0,8.54,1.27,11.52,4.81,2.43,2.88,2.58,5.36-1.09,7.75-11.48,7.46-24.3,10.32-37.65,11.53-18.92,1.73-38.08,1.52-56.55,7-8.7,2.59-16.49,7.09-24.07,11.87-9.54,6-19.52,10.61-30.82,11.92-6.67.78-13.24-.64-19.79-1.38A61.56,61.56,0,0,0,338.5,500c-3,.68-4.27,2.36-2.87,5.45a6,6,0,0,1,.34,1.95c.81,8.58.8,8.75-7.81,8.54q-31.56-.75-63-3.74c-19.45-1.83-38.75-4.59-58.05-7.36-6-.86-12-2.47-18.11-2.87a5,5,0,0,1,3-4.29c3.63-1.86,3.1-4,1.28-6.86-3.47-5.38-3.3-5.46,3.29-7,10.29-2.33,16.75-9.59,13.73-20.24-.86-3,.63-4.49,3.26-5.74,3.7-1.77,7.23.4,10.73,0,15.89-1.85,29.67-8,39.91-20.77,1.27-1.58,2.34-3.29.22-5.21-2.53-2.3-.94-3.85,1-5.67,5-4.75,11.19-7.57,16.76-11.38,4.18-2.86,6.33-6,5.25-12-1.63-9.21-.87-18.53,7.47-25.41,3.12-2.58,4.16-6.24,3.34-10.74-1.37-7.48-5.29-13.5-9.55-19.41a40.53,40.53,0,0,1-6.18-12.43c-1.09-3.76-1.44-7.27,3.3-9.58a20.46,20.46,0,0,0,6.38-5.39c8.42-10.12,11.65-22.19,13.71-34.71,1.18-7.2-2.81-15.1-9.34-17-5.52-1.58-10.35-2.33-7-9.82C289.93,257.51,289.21,256.15,289,255Z" transform="translate(-76.7 -253.01)"/><path class="cls-2" d="M289,255c.2,1.14.92,2.5.53,3.38-3.32,7.49,1.51,8.24,7,9.82,6.53,1.86,10.52,9.76,9.34,17-2.06,12.52-5.29,24.59-13.71,34.71a20.46,20.46,0,0,1-6.38,5.39c-4.74,2.31-4.39,5.82-3.3,9.58a40.53,40.53,0,0,0,6.18,12.43c4.26,5.91,8.18,11.93,9.55,19.41.82,4.5-.22,8.16-3.34,10.74-8.34,6.88-9.1,16.2-7.47,25.41,1.08,6.05-1.07,9.17-5.25,12-5.57,3.81-11.8,6.63-16.76,11.38-1.91,1.82-3.5,3.37-1,5.67,2.12,1.92,1.05,3.63-.22,5.21-10.24,12.77-24,18.92-39.91,20.77-3.5.4-7-1.77-10.73,0-2.63,1.25-4.12,2.7-3.26,5.74,3,10.65-3.44,17.91-13.73,20.24-6.59,1.5-6.76,1.58-3.29,7,1.82,2.83,2.35,5-1.28,6.86a5,5,0,0,0-3,4.29c-6.75-2.22-13.81-3.33-20.44-6.11-8.28-3.48-14.44-9.92-21.79-14.68-5-3.22-10.12-4.68-16-3.64-9.16,1.62-17.2.47-22.42-8.53-3-5.14-7.49-7.33-13.69-7.21a29.05,29.05,0,0,1-14.42-3.17c-4.41-2.37-4.85-8.75-.62-11.39A18.18,18.18,0,0,1,89,444c7.82-.09,13.78-4.06,19.46-8.89,6.59-5.61,11.18-13.08,18.15-18.43,8-6.14,16.9-10.45,25.9-14.72,11.38-5.4,23.34-9.89,32.32-19.29,7.45-7.81,12.6-17.19,16.7-27,9.88-23.62,25.94-41.3,48.53-53.32,10.15-5.4,20-11.49,25-22.63a146,146,0,0,0,4.92-14.1C281.53,260.86,284.18,257,289,255Z" transform="translate(-76.7 -253.01)"/><path class="cls-2" d="M110.89,490c8,1.51,17.6,2.07,24.83,9.26,3.62,3.59,3.12,6.05-1.71,7.56-5.8,1.82-11.64,4.18-17.54-.33-2-1.54-4.55-.26-6.47,1.17-3,2.25-5.51,1.67-7.84-1-.43-.5-1.08-.87-1.38-1.43-1.21-2.24-5.6-2.05-4.33-6.31s3.59-7.29,8.22-8.34A28.12,28.12,0,0,1,110.89,490Z" transform="translate(-76.7 -253.01)"/><path class="cls-2" d="M243.28,537c-.8,0-1.42-.2-1.78,0-6.68,4.28-12.16-1.32-18.21-2.18-1.82-.26-2.26-1.71-2.29-3.36a3.91,3.91,0,0,1,2.88-4.18,11.54,11.54,0,0,1,4.93-.12c2.1.38,4.29,2.22,4.07-2.24-.07-1.47,2.58-2.8,4.4-1.06,4.7,4.49,9.8,4.32,15.63,2.45,4.17-1.34,10.81,4.51,11,8.86.12,3.63-5.6,6.54-10.12,5.19C250.14,539.31,247.12,536.37,243.28,537Z" transform="translate(-76.7 -253.01)"/><path class="cls-2" d="M494.76,496c-7.75-3.61-17-1.4-25.25-4.92a10,10,0,0,1-3.56-2.62c-2-2.25-4.37-4.64-1.91-7.81s5.45-1.46,7.5.28c6.3,5.37,13.21,4.16,20.28,2.68a11,11,0,0,1,4.39-.45c3,.69,6.72.86,6.69,5.25C502.88,491.45,498.17,495.84,494.76,496Z" transform="translate(-76.7 -253.01)"/><path class="cls-2" d="M369,523.16c-.17,5.52-5.11,8.92-9.74,6.91A22.37,22.37,0,0,0,348.68,528c-1.45.09-3.47.43-4-1.24a8.83,8.83,0,0,1,1-6.59c.92-1.67,2.92-1.3,4.53-.87,1.11.3,2.1,1,3.2,1.36,2,.58,4,.8,5.32-1.29s2.42-4.12,5.44-2.73A7.7,7.7,0,0,1,369,523.16Z" transform="translate(-76.7 -253.01)"/><path class="cls-2" d="M149.17,511c-1.46-.64-4.35,1.46-5-1.9-.46-2.38,5.36-8,8.06-8.07,3.59-.1,4.51,2.42,4.68,5.19.23,3.66-2.09,4.9-5.42,4.78C150.83,511,150.17,511,149.17,511Z" transform="translate(-76.7 -253.01)"/><path class="cls-2" d="M528.69,467c2.7.77,6.2.82,8.23,4,.59.93,1.36,2,.26,3.15a1.67,1.67,0,0,1-2.6-.06c-2-1.82-3.65-.31-5.47.33-2.09.74-4.32,2.39-6.41.23-1.59-1.65-.11-3.43.31-5.12C523.73,466.57,526.12,467.05,528.69,467Z" transform="translate(-76.7 -253.01)"/></svg>