<svg id="Layer_1" data-name="Layer 1" xmlns="http://www.w3.org/2000/svg" viewBox="0 0 254 254"><title>dwd</title><circle cx="127" cy="127" r="123"/><path d="M128,9a119,119,0,0,1,84.15,203.15A119,119,0,0,1,43.85,43.85,118.25,118.25,0,0,1,128,9m0-8A127,127,0,1,0,255,128,127,127,0,0,0,128,1Z" transform="translate(-1 -1)" style="fill:#fbbd08"/><path d="M86.5,165.69q-2.79,2.91-9.85,2.91H47.86V87.4H79.67q4.81,0,7.23,2.69a10.36,10.36,0,0,1,2.4,7.17v58.8Q89.3,162.78,86.5,165.69ZM64,154.38h7.62c.67,0,1.1-.13,1.29-.4a2.31,2.31,0,0,0,.28-1.28V103.19c0-1-.49-1.57-1.46-1.57H64Z" transform="translate(-1 -1)" style="fill:#fbbd08;stroke:#000;stroke-miterlimit:10"/><path d="M162.22,87.4l-12.77,81.2H134.66l-6.72-42.34-6.6,42.34H106.55L93.78,87.4h16.58l5.15,47.26,6.61-47.26h11.76l6.5,47.26,5.26-47.26Z" transform="translate(-1 -1)" style="fill:#fff;stroke:#000;stroke-miterlimit:10"/><path d="M205.34,165.69q-2.81,2.91-9.86,2.91H166.7V87.4h31.8q4.81,0,7.23,2.69a10.36,10.36,0,0,1,2.41,7.17v58.8Q208.14,162.78,205.34,165.69Zm-22.52-11.31h7.62c.67,0,1.1-.13,1.29-.4a2.31,2.31,0,0,0,.28-1.28V103.19c0-1-.49-1.57-1.46-1.57h-7.73Z" transform="translate(-1 -1)" style="fill:#fbbd08;stroke:#000;stroke-miterlimit:10"/></svg>