<svg id="Layer_1" data-name="Layer 1" xmlns="http://www.w3.org/2000/svg" xmlns:xlink="http://www.w3.org/1999/xlink" viewBox="0 0 463.67 502.46"><defs><style>.cls-1,.cls-14,.cls-17{opacity:0.8;}.cls-1{fill:url(#radial-gradient);}.cls-2{fill:url(#linear-gradient);}.cls-3{fill:url(#linear-gradient-2);}.cls-4{fill:url(#linear-gradient-3);}.cls-5{fill:url(#linear-gradient-4);}.cls-6{fill:url(#radial-gradient-2);}.cls-7{fill:url(#linear-gradient-5);}.cls-8{fill:url(#linear-gradient-6);}.cls-9{fill:url(#linear-gradient-7);}.cls-10{fill:url(#linear-gradient-8);}.cls-11{fill:url(#linear-gradient-9);}.cls-12{fill:url(#linear-gradient-10);}.cls-13{fill:url(#linear-gradient-11);}.cls-15{fill:#fff;opacity:0.2;}.cls-16{fill:url(#linear-gradient-12);}.cls-17{fill:none;stroke:#fff;stroke-linecap:round;stroke-linejoin:round;stroke-width:2px;}.cls-18{fill:#e2e2e2;}.cls-19{fill:#eaeaea;}.cls-20{fill:#1a1b1c;}.cls-21{fill:#2e2f31;}.cls-22{fill:#6b4e4a;}</style><radialGradient id="radial-gradient" cx="618.71" cy="422.95" r="83.52" gradientTransform="matrix(0, 0.79, -0.13, 0, 444.52, -47.77)" gradientUnits="userSpaceOnUse"><stop offset="0"/><stop offset="1" stop-opacity="0"/></radialGradient><linearGradient id="linear-gradient" x1="341.35" y1="260.61" x2="449.9" y2="260.61" gradientTransform="translate(85.19 -53.07) rotate(11.46)" gradientUnits="userSpaceOnUse"><stop offset="0" stop-color="#cc891e"/><stop offset="0.12" stop-color="#d78b12"/><stop offset="0.33" stop-color="#e48e05"/><stop offset="0.51" stop-color="#e88f00"/><stop offset="0.68" stop-color="#e48e04"/><stop offset="0.88" stop-color="#d88c11"/><stop offset="1" stop-color="#cc891e"/></linearGradient><linearGradient id="linear-gradient-2" x1="341.35" y1="260.61" x2="449.9" y2="260.61" gradientTransform="translate(85.19 -53.07) rotate(11.46)" gradientUnits="userSpaceOnUse"><stop offset="0" stop-color="#94571d"/><stop offset="0.05" stop-color="#aa6516" stop-opacity="0.74"/><stop offset="0.11" stop-color="#bd720f" stop-opacity="0.52"/><stop offset="0.16" stop-color="#cd7d09" stop-opacity="0.33"/><stop offset="0.23" stop-color="#d98505" stop-opacity="0.18"/><stop offset="0.3" stop-color="#e18b02" stop-opacity="0.08"/><stop offset="0.38" stop-color="#e68e01" stop-opacity="0.02"/><stop offset="0.5" stop-color="#e88f00" stop-opacity="0"/><stop offset="0.6" stop-color="#e68e01" stop-opacity="0.02"/><stop offset="0.68" stop-color="#e08a03" stop-opacity="0.09"/><stop offset="0.75" stop-color="#d68306" stop-opacity="0.21"/><stop offset="0.83" stop-color="#c87a0b" stop-opacity="0.38"/><stop offset="0.9" stop-color="#b66e11" stop-opacity="0.59"/><stop offset="0.97" stop-color="#a05f19" stop-opacity="0.85"/><stop offset="1" stop-color="#94571d"/></linearGradient><linearGradient id="linear-gradient-3" x1="395.63" y1="424.85" x2="395.63" y2="141.27" gradientTransform="translate(85.19 -53.07) rotate(11.46)" gradientUnits="userSpaceOnUse"><stop offset="0" stop-color="#e88f00" stop-opacity="0"/><stop offset="0.34" stop-color="#e68d00" stop-opacity="0.02"/><stop offset="0.48" stop-color="#df8800" stop-opacity="0.08"/><stop offset="0.58" stop-color="#d27f00" stop-opacity="0.18"/><stop offset="0.66" stop-color="#c17100" stop-opacity="0.34"/><stop offset="0.74" stop-color="#aa6000" stop-opacity="0.53"/><stop offset="0.8" stop-color="#8e4b00" stop-opacity="0.77"/><stop offset="0.85" stop-color="#733700"/><stop offset="0.85" stop-color="#763900" stop-opacity="0.98"/><stop offset="0.88" stop-color="#9e5800" stop-opacity="0.63"/><stop offset="0.91" stop-color="#bf7000" stop-opacity="0.35"/><stop offset="0.94" stop-color="#d58100" stop-opacity="0.16"/><stop offset="0.97" stop-color="#e38b00" stop-opacity="0.04"/><stop offset="1" stop-color="#e88f00" stop-opacity="0"/></linearGradient><linearGradient id="linear-gradient-4" x1="395.63" y1="371.47" x2="395.63" y2="197.59" gradientTransform="translate(85.19 -53.07) rotate(11.46)" gradientUnits="userSpaceOnUse"><stop offset="0.69" stop-color="#fff" stop-opacity="0.01"/><stop offset="0.79" stop-color="#fff" stop-opacity="0.01"/><stop offset="0.84" stop-color="#fff" stop-opacity="0.04"/><stop offset="0.87" stop-color="#fff" stop-opacity="0.09"/><stop offset="0.89" stop-color="#fff" stop-opacity="0.16"/><stop offset="0.92" stop-color="#fff" stop-opacity="0.25"/><stop offset="0.94" stop-color="#fff" stop-opacity="0.36"/><stop offset="0.95" stop-color="#fff" stop-opacity="0.49"/><stop offset="0.97" stop-color="#fff" stop-opacity="0.65"/><stop offset="0.99" stop-color="#fff" stop-opacity="0.81"/><stop offset="1" stop-color="#fff"/></linearGradient><radialGradient id="radial-gradient-2" cx="396.31" cy="418.96" r="51.3" gradientTransform="translate(15.58 290.16) rotate(11.46) scale(1 0.16)" gradientUnits="userSpaceOnUse"><stop offset="0" stop-color="#e88f00"/><stop offset="0.21" stop-color="#dd8704"/><stop offset="0.58" stop-color="#be730e"/><stop offset="1" stop-color="#94571d"/></radialGradient><linearGradient id="linear-gradient-5" x1="398.78" y1="97.02" x2="413.03" y2="97.02" gradientTransform="translate(85.19 -53.07) rotate(11.46)" gradientUnits="userSpaceOnUse"><stop offset="0" stop-color="#787877"/><stop offset="0.05" stop-color="#919190"/><stop offset="0.12" stop-color="#acacab"/><stop offset="0.19" stop-color="#c1c1c1"/><stop offset="0.27" stop-color="#d0d0cf"/><stop offset="0.37" stop-color="#d8d8d8"/><stop offset="0.52" stop-color="#dbdbdb"/><stop offset="0.73" stop-color="#d9d9d9"/><stop offset="0.81" stop-color="#d2d2d2"/><stop offset="0.87" stop-color="#c7c7c7"/><stop offset="0.91" stop-color="#b6b6b6"/><stop offset="0.95" stop-color="#a0a0a0"/><stop offset="0.99" stop-color="#868685"/><stop offset="1" stop-color="#787877"/></linearGradient><linearGradient id="linear-gradient-6" x1="344.5" y1="418.6" x2="446.75" y2="418.6" xlink:href="#linear-gradient-5"/><linearGradient id="linear-gradient-7" x1="378.22" y1="97.02" x2="392.48" y2="97.02" xlink:href="#linear-gradient-5"/><linearGradient id="linear-gradient-8" x1="395.63" y1="205.88" x2="395.63" y2="183.93" gradientTransform="translate(85.19 -53.07) rotate(11.46)" gradientUnits="userSpaceOnUse"><stop offset="0" stop-color="#fff"/><stop offset="0.03" stop-color="#fff" stop-opacity="0.95"/><stop offset="0.24" stop-color="#fff" stop-opacity="0.67"/><stop offset="0.44" stop-color="#fff" stop-opacity="0.43"/><stop offset="0.62" stop-color="#fff" stop-opacity="0.25"/><stop offset="0.78" stop-color="#fff" stop-opacity="0.12"/><stop offset="0.91" stop-color="#fff" stop-opacity="0.04"/><stop offset="1" stop-color="#fff" stop-opacity="0.01"/></linearGradient><linearGradient id="linear-gradient-9" x1="370.37" y1="128.89" x2="420.88" y2="128.89" gradientTransform="translate(85.19 -53.07) rotate(11.46)" gradientUnits="userSpaceOnUse"><stop offset="0"/><stop offset="0.16" stop-color="#1c1c1c"/><stop offset="0.38" stop-color="#3d3d3d"/><stop offset="0.51" stop-color="#4a4a4a"/><stop offset="0.7" stop-color="#303030"/><stop offset="1"/></linearGradient><linearGradient id="linear-gradient-10" x1="395.63" y1="123.62" x2="395.63" y2="96.37" gradientTransform="translate(85.19 -53.07) rotate(11.46)" gradientUnits="userSpaceOnUse"><stop offset="0" stop-opacity="0"/><stop offset="1"/></linearGradient><linearGradient id="linear-gradient-11" x1="374.3" y1="90.83" x2="416.96" y2="90.83" xlink:href="#linear-gradient-9"/><linearGradient id="linear-gradient-12" x1="341.35" y1="318.81" x2="454.01" y2="318.81" gradientTransform="translate(728.37 -57.62) rotate(90)" gradientUnits="userSpaceOnUse"><stop offset="0"/><stop offset="0.07" stop-color="#0e0e0e"/><stop offset="0.21" stop-color="#202020"/><stop offset="0.35" stop-color="#2a2a2a"/><stop offset="0.5" stop-color="#2e2e2e"/><stop offset="0.64" stop-color="#292929"/><stop offset="0.81" stop-color="#191919"/><stop offset="1"/><stop offset="1"/></linearGradient></defs><title>tttSingleCartoonDrugsYulia1015-512</title><ellipse class="cls-1" cx="388.82" cy="440.28" rx="11.74" ry="67.84" transform="translate(-194.01 640.06) rotate(-78.54)"/><path class="cls-2" d="M476.34,239c-4.19-4.49-12.75-12.55-16.59-22.14s5.11-24.51,7.58-36.66-2.52-20.89-.64-30.15l5.3-26.14c-.81-1.12-18.56-2.23-18.56-2.23s-16.79-5.89-18-5.17l-5.3,26.13c-1.88,9.26-9.88,15.38-12.34,27.52s0,29.38-7.3,36.71-18.31,11.43-23.91,13.94c-7.31,3.27-10,6.4-13.48,23.7L341.19,402.07c-2,9.94-1.14,30,14.74,33.26l32.55,6.61,32.55,6.6c15.88,3.22,24.53-15,26.54-24.9L479.52,266.1C483,248.8,481.8,244.87,476.34,239Z" transform="translate(-74.06 -93.77)"/><path class="cls-3" d="M476.34,239c-4.19-4.49-12.75-12.55-16.59-22.14s5.11-24.51,7.58-36.66-2.52-20.89-.64-30.15l5.3-26.14c-.81-1.12-18.56-2.23-18.56-2.23s-16.79-5.89-18-5.17l-5.3,26.13c-1.88,9.26-9.88,15.38-12.34,27.52s0,29.38-7.3,36.71-18.31,11.43-23.91,13.94c-7.31,3.27-10,6.4-13.48,23.7L341.19,402.07c-2,9.94-1.14,30,14.74,33.26l32.55,6.61,32.55,6.6c15.88,3.22,24.53-15,26.54-24.9L479.52,266.1C483,248.8,481.8,244.87,476.34,239Z" transform="translate(-74.06 -93.77)"/><path class="cls-4" d="M476.34,239c-4.19-4.49-12.75-12.55-16.59-22.14s5.11-24.51,7.58-36.66-2.52-20.89-.64-30.15l5.3-26.14c-.81-1.12-18.56-2.23-18.56-2.23s-16.79-5.89-18-5.17l-5.3,26.13c-1.88,9.26-9.88,15.38-12.34,27.52s0,29.38-7.3,36.71-18.31,11.43-23.91,13.94c-7.31,3.27-10,6.4-13.48,23.7L341.19,402.07c-2,9.94-1.14,30,14.74,33.26l32.55,6.61,32.55,6.6c15.88,3.22,24.53-15,26.54-24.9L479.52,266.1C483,248.8,481.8,244.87,476.34,239Z" transform="translate(-74.06 -93.77)"/><path class="cls-5" d="M447.18,399.37l30.05-148.18c1.56-7.68-20.75-20.88-44.77-25.76s-49.84-1.44-51.4,6.26L351,379.86Z" transform="translate(-74.06 -93.77)"/><path class="cls-6" d="M391.23,428.38c-19.26-3.91-36.82-5.83-48.91-5.7,2.13,6.05,6.26,11.16,13.61,12.65l32.55,6.61,32.55,6.6c7.36,1.49,13.15-1.61,17.46-6.35C427.41,437.35,410.5,432.28,391.23,428.38Z" transform="translate(-74.06 -93.77)"/><path class="cls-7" d="M470.82,123.47a139.06,139.06,0,0,0-14.22-1.56C460.59,122.24,467.33,122.85,470.82,123.47Z" transform="translate(-74.06 -93.77)"/><path class="cls-8" d="M424,443.61l-34.42-7-34.42-7a19,19,0,0,1-14-11.44c1.52,7.86,5.42,16.58,14.54,18.43l32.55,6.6,32.55,6.6c9.11,1.85,16.1-4.66,20.57-11.3A19,19,0,0,1,424,443.61Z" transform="translate(-74.06 -93.77)"/><path class="cls-9" d="M450.42,120.66c-4-1.35-10.85-3.61-13.71-4.1C440.17,117.34,446.62,119.41,450.42,120.66Z" transform="translate(-74.06 -93.77)"/><path class="cls-10" d="M473.16,235.68c-4.43-4.66-10.38-11.25-13.41-18.81a15.2,15.2,0,0,1-.9-6.49A108.37,108.37,0,0,1,436,208.61h0l-.19,0-.19,0h0a108.44,108.44,0,0,1-21.74-7.29,15.35,15.35,0,0,1-3.35,5.63c-5.74,5.79-13.79,9.54-19.69,12.11,12.84-1.13,27.94-1.26,42.24,1.55h0l.29.07.29.05h0C447.92,223.64,461.78,229.64,473.16,235.68Z" transform="translate(-74.06 -93.77)"/><path class="cls-11" d="M464.93,188.64a72.79,72.79,0,0,0,2.4-8.43c2.46-12.15-2.52-20.89-.64-30.15l5.3-26.14c-.81-1.12-18.56-2.23-18.56-2.23s-16.79-5.89-18-5.17l-5.3,26.13c-1.88,9.26-9.88,15.38-12.34,27.52a69.43,69.43,0,0,0-1.07,8.7Z" transform="translate(-74.06 -93.77)"/><path class="cls-12" d="M466.63,150.41c0-.11,0-.23.06-.35l5.3-26.14c-.81-1.12-18.56-2.23-18.56-2.23s-16.79-5.89-18-5.17l-5.3,26.13c0,.12-.07.23-.09.35Z" transform="translate(-74.06 -93.77)"/><path class="cls-13" d="M471.86,138.08,477,112.62c1.76-8.66-4.37-14.49-13-16.25l-10.45-2.12c-8.66-1.75-16.57,1.23-18.33,9.89l-5.16,25.47Z" transform="translate(-74.06 -93.77)"/><rect class="cls-14" x="454.66" y="91.69" width="1.06" height="42.66" transform="translate(179.89 442.89) rotate(-78.54)"/><rect class="cls-15" x="454.44" y="92.73" width="1.06" height="42.66" transform="translate(178.7 443.52) rotate(-78.54)"/><rect class="cls-16" x="330.59" y="283.73" width="157.94" height="108.55" transform="translate(-77.17 578.45) rotate(-78.54)"/><rect class="cls-17" x="339.81" y="295.08" width="139.91" height="83.83" rx="16.82" ry="16.82" transform="translate(-76.01 577.83) rotate(-78.54)"/><rect class="cls-17" x="398.93" y="279.23" width="33.74" height="56.03" rx="16" ry="16" transform="translate(-42.03 559.92) rotate(-78.54)"/><path class="cls-18" d="M289,255c10.87-5,19.34.21,27.16,6.82,9.62,8.14,18.8,16.8,28.31,25.07,7.68,6.66,12.12,15.28,15.51,24.58a23.26,23.26,0,0,0,15.25,14.65C387,330,398.62,334,408.45,341.73a244.57,244.57,0,0,1,36.73,36.41c2.79,3.37,3.14,7.36,3.58,11.17.66,5.75,4.12,9.05,8.66,11.33,6.83,3.42,13.95,6.25,20.87,9.49,10.78,5,18.4,12.61,21,24.83,1.53,7.31,6.85,9.94,18.35,10,4.64,0,8.54,1.27,11.52,4.81,2.43,2.88,2.58,5.36-1.09,7.75-11.48,7.46-24.3,10.32-37.65,11.53-18.92,1.73-38.08,1.52-56.55,7-8.7,2.59-16.49,7.09-24.07,11.87-9.54,6-19.52,10.61-30.82,11.92-6.67.78-13.24-.64-19.79-1.38A61.56,61.56,0,0,0,338.5,500c-3,.68-4.27,2.36-2.87,5.45a6,6,0,0,1,.34,1.95c.81,8.58.8,8.75-7.81,8.54q-31.56-.75-63-3.74c-19.45-1.83-38.75-4.59-58.05-7.36-6-.86-12-2.47-18.11-2.87a5,5,0,0,1,3-4.29c3.63-1.86,3.1-4,1.28-6.86-3.47-5.38-3.3-5.46,3.29-7,10.29-2.33,16.75-9.59,13.73-20.24-.86-3,.63-4.49,3.26-5.74,3.7-1.77,7.23.4,10.73,0,15.89-1.85,29.67-8,39.91-20.77,1.27-1.58,2.34-3.29.22-5.21-2.53-2.3-.94-3.85,1-5.67,5-4.75,11.19-7.57,16.76-11.38,4.18-2.86,6.33-6,5.25-12-1.63-9.21-.87-18.53,7.47-25.41,3.12-2.58,4.16-6.24,3.34-10.74-1.37-7.48-5.29-13.5-9.55-19.41a40.53,40.53,0,0,1-6.18-12.43c-1.09-3.76-1.44-7.27,3.3-9.58a20.46,20.46,0,0,0,6.38-5.39c8.42-10.12,11.65-22.19,13.71-34.71,1.18-7.2-2.81-15.1-9.34-17-5.52-1.58-10.35-2.33-7-9.82C289.93,257.51,289.21,256.15,289,255Z" transform="translate(-74.06 -93.77)"/><path class="cls-19" d="M289,255c.2,1.14.92,2.5.53,3.38-3.32,7.49,1.51,8.24,7,9.82,6.53,1.86,10.52,9.76,9.34,17-2.06,12.52-5.29,24.59-13.71,34.71a20.46,20.46,0,0,1-6.38,5.39c-4.74,2.31-4.39,5.82-3.3,9.58a40.53,40.53,0,0,0,6.18,12.43c4.26,5.91,8.18,11.93,9.55,19.41.82,4.5-.22,8.16-3.34,10.74-8.34,6.88-9.1,16.2-7.47,25.41,1.08,6.05-1.07,9.17-5.25,12-5.57,3.81-11.8,6.63-16.76,11.38-1.91,1.82-3.5,3.37-1,5.67,2.12,1.92,1.05,3.63-.22,5.21-10.24,12.77-24,18.92-39.91,20.77-3.5.4-7-1.77-10.73,0-2.63,1.25-4.12,2.7-3.26,5.74,3,10.65-3.44,17.91-13.73,20.24-6.59,1.5-6.76,1.58-3.29,7,1.82,2.83,2.35,5-1.28,6.86a5,5,0,0,0-3,4.29c-6.75-2.22-13.81-3.33-20.44-6.11-8.28-3.48-14.44-9.92-21.79-14.68-5-3.22-10.12-4.68-16-3.64-9.16,1.62-17.2.47-22.42-8.53-3-5.14-7.49-7.33-13.69-7.21a29.05,29.05,0,0,1-14.42-3.17c-4.41-2.37-4.85-8.75-.62-11.39A18.18,18.18,0,0,1,89,444c7.82-.09,13.78-4.06,19.46-8.89,6.59-5.61,11.18-13.08,18.15-18.43,8-6.14,16.9-10.45,25.9-14.72,11.38-5.4,23.34-9.89,32.32-19.29,7.45-7.81,12.6-17.19,16.7-27,9.88-23.62,25.94-41.3,48.53-53.32,10.15-5.4,20-11.49,25-22.63a146,146,0,0,0,4.92-14.1C281.53,260.86,284.18,257,289,255Z" transform="translate(-74.06 -93.77)"/><path class="cls-19" d="M110.89,490c8,1.51,17.6,2.07,24.83,9.26,3.62,3.59,3.12,6.05-1.71,7.56-5.8,1.82-11.64,4.18-17.54-.33-2-1.54-4.55-.26-6.47,1.17-3,2.25-5.51,1.67-7.84-1-.43-.5-1.08-.87-1.38-1.43-1.21-2.24-5.6-2.05-4.33-6.31s3.59-7.29,8.22-8.34A28.12,28.12,0,0,1,110.89,490Z" transform="translate(-74.06 -93.77)"/><path class="cls-19" d="M243.28,537c-.8,0-1.42-.2-1.78,0-6.68,4.28-12.16-1.32-18.21-2.18-1.82-.26-2.26-1.71-2.29-3.36a3.91,3.91,0,0,1,2.88-4.18,11.54,11.54,0,0,1,4.93-.12c2.1.38,4.29,2.22,4.07-2.24-.07-1.47,2.58-2.8,4.4-1.06,4.7,4.49,9.8,4.32,15.63,2.45,4.17-1.34,10.81,4.51,11,8.86.12,3.63-5.6,6.54-10.12,5.19C250.14,539.31,247.12,536.37,243.28,537Z" transform="translate(-74.06 -93.77)"/><path class="cls-19" d="M494.76,496c-7.75-3.61-17-1.4-25.25-4.92a10,10,0,0,1-3.56-2.62c-2-2.25-4.37-4.64-1.91-7.81s5.45-1.46,7.5.28c6.3,5.37,13.21,4.16,20.28,2.68a11,11,0,0,1,4.39-.45c3,.69,6.72.86,6.69,5.25C502.88,491.45,498.17,495.84,494.76,496Z" transform="translate(-74.06 -93.77)"/><path class="cls-19" d="M369,523.16c-.17,5.52-5.11,8.92-9.74,6.91A22.37,22.37,0,0,0,348.68,528c-1.45.09-3.47.43-4-1.24a8.83,8.83,0,0,1,1-6.59c.92-1.67,2.92-1.3,4.53-.87,1.11.3,2.1,1,3.2,1.36,2,.58,4,.8,5.32-1.29s2.42-4.12,5.44-2.73A7.7,7.7,0,0,1,369,523.16Z" transform="translate(-74.06 -93.77)"/><path class="cls-19" d="M149.17,511c-1.46-.64-4.35,1.46-5-1.9-.46-2.38,5.36-8,8.06-8.07,3.59-.1,4.51,2.42,4.68,5.19.23,3.66-2.09,4.9-5.42,4.78C150.83,511,150.17,511,149.17,511Z" transform="translate(-74.06 -93.77)"/><path class="cls-19" d="M528.69,467c2.7.77,6.2.82,8.23,4,.59.93,1.36,2,.26,3.15a1.67,1.67,0,0,1-2.6-.06c-2-1.82-3.65-.31-5.47.33-2.09.74-4.32,2.39-6.41.23-1.59-1.65-.11-3.43.31-5.12C523.73,466.57,526.12,467.05,528.69,467Z" transform="translate(-74.06 -93.77)"/><path class="cls-20" d="M217.31,401.48l-.5.47c-.42.42-1,.93-1.59,1.45a58.3,58.3,0,0,1-5.39,4,59,59,0,0,1-18,8.09,46.88,46.88,0,0,1-10.27,1.57,33.65,33.65,0,0,1-4.72,0,24.18,24.18,0,0,1-4.15-.42,36,36,0,0,1-6-1.28l-2.22-.61a3,3,0,0,1,.75-5.83h.38l2,0a30,30,0,0,0,5.21-.37,19.05,19.05,0,0,0,3.36-.62,24.74,24.74,0,0,0,3.62-1,35.22,35.22,0,0,0,7.29-3.37,44.07,44.07,0,0,0,11.18-9.56,35.91,35.91,0,0,0,2.79-3.73,5.4,5.4,0,0,0,.53-.91c.05-.11.25-.42.22-.38l.15-.23a10,10,0,0,1,16.78,11A10.22,10.22,0,0,1,217.31,401.48Z" transform="translate(-74.06 -93.77)"/><path class="cls-21" d="M82.68,232.79l38.28-42L344.2,394.29c12.63,11.51,4.74,21.53-2,36.58l-12.28,27.24Z" transform="translate(-74.06 -93.77)"/><rect class="cls-20" x="78.1" y="205.53" width="40.53" height="8.1" transform="translate(-196.85 47.32) rotate(-47.65)"/><path class="cls-21" d="M135.64,204.18s7.65-10.76,15.62,3,10.86,21.18,10.86,21.18Z" transform="translate(-74.06 -93.77)"/><path class="cls-20" d="M266.5,500.1c-14.65,35.47-43.59,109.54-60.6,94l-47.49-43.29a21.92,21.92,0,0,1-3.22-27.8L204.73,448s23.9-35.41,4.85-52.77L74.06,271.66l23.27-25.52,232.55,212S281.16,464.62,266.5,500.1Z" transform="translate(-74.06 -93.77)"/><path class="cls-20" d="M174.27,363.55l-1.14.62a34.35,34.35,0,0,0-3.38,2.21A73.76,73.76,0,0,0,158.83,376a68,68,0,0,0-6,7.42,43.1,43.1,0,0,0-4.88,8.93,21.11,21.11,0,0,0-1.7,9.44,11.83,11.83,0,0,0,3.62,7.73c2.95,2.8,6.21,5.81,9.34,8.56l9.28,8.21c6.11,5.22,11.9,10,17,14,10.12,8,17.42,12.68,17.42,12.68a9.63,9.63,0,1,1-12.8,14s-5.36-6.83-14.24-16.17c-4.42-4.69-9.71-10-15.47-15.62l-9-8.48-9.52-8.7a24.94,24.94,0,0,1-7.8-14.55,38.54,38.54,0,0,1,.82-15,107.55,107.55,0,0,1,8.76-22.74c3.1-6.27,6-11.34,8-15,1-1.85,1.84-3.3,2.39-4.3l1-1.62.53-.89a14.08,14.08,0,0,1,24.14,14.49A14.22,14.22,0,0,1,174.27,363.55Z" transform="translate(-74.06 -93.77)"/><path class="cls-20" d="M346.37,422s-1.26,11.57,15.4,14c9.6,1.43-31.89,22.09-31.89,22.09Z" transform="translate(-74.06 -93.77)"/><polygon class="cls-22" points="168.46 273.21 163.88 269.04 171.86 229.34 176.31 233.66 168.46 273.21"/><polygon class="cls-22" points="182.73 286.21 178.15 282.05 186.13 242.35 190.57 246.66 182.73 286.21"/><polygon class="cls-22" points="196.99 299.22 192.42 295.05 200.39 255.35 204.84 259.67 196.99 299.22"/><polygon class="cls-22" points="211.26 312.22 206.68 308.05 214.66 268.36 219.1 272.67 211.26 312.22"/><polygon class="cls-22" points="225.52 325.23 220.94 321.05 228.93 281.36 233.37 285.67 225.52 325.23"/><polygon class="cls-22" points="239.79 338.23 235.21 334.06 243.19 294.36 247.63 298.68 239.79 338.23"/><rect class="cls-20" x="207.11" y="250.78" width="14.18" height="69.21" transform="translate(-215.07 157.67) rotate(-47.65)"/><rect class="cls-21" x="186.11" y="211.03" width="10.44" height="280.81" transform="translate(-271.35 162.32) rotate(-47.65)"/><path class="cls-21" d="M301.67,452a8.9,8.9,0,1,1-.58-12.57A8.89,8.89,0,0,1,301.67,452Z" transform="translate(-74.06 -93.77)"/><path class="cls-21" d="M200.06,582.53h0l-32.78-29.88c-11.58-10.56-7.09-23.86-2.28-30.77,1.16-4.38,5.54-10.19,12.5-18.27,12.39-14.37,53.72-83.51,54.14-84.2l3.88-6.51,55.75,50.82-8.16,4c-19.21,9.4-28.93,37.95-29,38.23-2,6.06-19.59,60-30.59,72.1-6.09,6.67-11.71,7.85-15.35,7.67A13.18,13.18,0,0,1,200.06,582.53Zm-21.66-60,1.18,1.08-3.8,4.54c-1.18,1.47-6.9,9.24-.16,15.39l32.61,29.73c.8.44,3-.13,6.11-3.52,6.93-7.6,20.85-45.51,28-67.62.42-1.27,9.19-27,27.83-40.88l-31.8-29c-10.78,17.87-40.62,66.84-51.48,79.45A109,109,0,0,0,178.4,522.5Z" transform="translate(-74.06 -93.77)"/></svg>