<svg id="Calque_1" data-name="Calque 1" xmlns="http://www.w3.org/2000/svg" viewBox="0 0 46.56 49.4"><defs><style>.cls-1{fill:#fff;}</style></defs><title>steem</title><path class="cls-1" d="M23.05,49.42h0a1.24,1.24,0,0,1,0-.87c.07-.35.21-.68.3-1,.41-1.46.87-2.9,1.15-4.39a11.74,11.74,0,0,0,.23-2.85A10.64,10.64,0,0,0,24.31,38,30.49,30.49,0,0,0,23,34.54c-1-2.26-2.06-4.46-3.17-6.65-1-1.91-2-3.82-2.84-5.78a60.51,60.51,0,0,1-3.09-8.24,8.87,8.87,0,0,1-.33-3.13,8.13,8.13,0,0,1,.84-3,15.54,15.54,0,0,1,2.19-3.23A32.82,32.82,0,0,1,20.36.86L21,.33A3.7,3.7,0,0,1,21.47,0h.34a.4.4,0,0,1,.1.37,7.11,7.11,0,0,1-.11,1,7.79,7.79,0,0,0-.2,1.11c-.06.37-.11.9-.15,1.35a22.11,22.11,0,0,0-.09,2.49A16.68,16.68,0,0,0,22,10.9a16.13,16.13,0,0,0,1.08,2.63c2,3.85,3.84,7.77,5.64,11.7,1.12,2.45,2.2,4.93,3.26,7.41A11.56,11.56,0,0,1,32.75,35a7.2,7.2,0,0,1,0,2.55,10.59,10.59,0,0,1-1.59,3.93,20.16,20.16,0,0,1-2.54,3.19,48.17,48.17,0,0,1-4,3.8c-.37.3-.73.6-1.12.88v.1Z" transform="translate(0.03 -0.04)"/><path class="cls-1" d="M46.53,34.8c-.07,0-.07,0-.07.09a9.66,9.66,0,0,1-1.72,3.76,18.34,18.34,0,0,1-2.27,2.58c-.74.71-1.51,1.38-2.28,2-.22.19-.42.39-.66.57a1.29,1.29,0,0,1-.35.21c-.16,0-.24,0-.25-.17a1.35,1.35,0,0,1,0-.33c.17-1,.43-1.91.67-2.86s.41-1.66.55-2.51a6.77,6.77,0,0,0,0-2,12.74,12.74,0,0,0-1-3.29Q37.68,29.37,36,26c-.89-1.79-1.79-3.58-2.65-5.39A21.15,21.15,0,0,1,32,17.15a9.78,9.78,0,0,1-.38-3,7.49,7.49,0,0,1,.77-2.94,12.88,12.88,0,0,1,1.9-2.83,25.45,25.45,0,0,1,2.9-2.8,1,1,0,0,1,.36-.2c.28-.09.46,0,.43.35a11,11,0,0,1-.17,1.09,15.15,15.15,0,0,0-.29,3.28A13.16,13.16,0,0,0,38.11,14,18.35,18.35,0,0,0,39,16.11c.52,1.07,1.08,2.12,1.59,3.2,1.11,2.37,2.24,4.72,3.32,7.11.67,1.49,1.32,3,1.91,4.51a9.78,9.78,0,0,1,.53,1.92s0,.13.08.13Z" transform="translate(0.03 -0.04)"/><path class="cls-1" d="M0,13.88c.08,0,.07-.07.07-.12A8.38,8.38,0,0,1,1.47,10a16.37,16.37,0,0,1,2.4-2.88q.82-.8,1.7-1.54a1.16,1.16,0,0,1,.37-.22c.3-.1.48,0,.45.36s-.13.85-.2,1.27A15.19,15.19,0,0,0,6,10.61a14.23,14.23,0,0,0,.31,2.47,12.21,12.21,0,0,0,.9,2.48q.52,1.1,1.08,2.17c.41.79.78,1.6,1.16,2.4q1.5,3.22,3,6.48c.63,1.4,1.24,2.81,1.79,4.24a9.19,9.19,0,0,1,.63,2.52,5.94,5.94,0,0,1-.33,2.51,11.42,11.42,0,0,1-1.83,3.26,21.91,21.91,0,0,1-2.43,2.57c-.74.69-1.52,1.34-2.28,2a1.64,1.64,0,0,1-.44.3c-.19.08-.28,0-.28-.18a3.41,3.41,0,0,1,.11-.72c.2-1,.47-2,.71-2.94a19.57,19.57,0,0,0,.47-2.32,6.63,6.63,0,0,0,0-1.66,12.79,12.79,0,0,0-1-3.31q-1.45-3.43-3.11-6.77c-.92-1.84-1.84-3.68-2.72-5.53A20.21,20.21,0,0,1,.35,17.06,10.29,10.29,0,0,1,0,15.37s0-.13-.07-.14Z" transform="translate(0.03 -0.04)"/></svg>