<svg id="Layer_1" data-name="Layer 1" xmlns="http://www.w3.org/2000/svg" xmlns:xlink="http://www.w3.org/1999/xlink" viewBox="0 0 374.77 101.8"><defs><style>.cls-1,.cls-10,.cls-100,.cls-101,.cls-102,.cls-103,.cls-104,.cls-105,.cls-106,.cls-107,.cls-108,.cls-109,.cls-11,.cls-110,.cls-111,.cls-113,.cls-114,.cls-115,.cls-116,.cls-117,.cls-118,.cls-119,.cls-12,.cls-120,.cls-121,.cls-122,.cls-123,.cls-124,.cls-125,.cls-126,.cls-127,.cls-128,.cls-129,.cls-13,.cls-130,.cls-131,.cls-132,.cls-133,.cls-134,.cls-135,.cls-136,.cls-137,.cls-138,.cls-139,.cls-14,.cls-140,.cls-141,.cls-142,.cls-143,.cls-144,.cls-145,.cls-146,.cls-147,.cls-148,.cls-149,.cls-15,.cls-150,.cls-151,.cls-152,.cls-153,.cls-154,.cls-155,.cls-156,.cls-157,.cls-158,.cls-16,.cls-17,.cls-18,.cls-19,.cls-2,.cls-20,.cls-21,.cls-22,.cls-23,.cls-24,.cls-25,.cls-26,.cls-27,.cls-28,.cls-29,.cls-3,.cls-30,.cls-31,.cls-32,.cls-33,.cls-34,.cls-35,.cls-36,.cls-37,.cls-38,.cls-39,.cls-4,.cls-40,.cls-41,.cls-42,.cls-43,.cls-44,.cls-45,.cls-46,.cls-47,.cls-48,.cls-49,.cls-5,.cls-50,.cls-51,.cls-52,.cls-53,.cls-54,.cls-55,.cls-56,.cls-57,.cls-58,.cls-59,.cls-6,.cls-60,.cls-61,.cls-62,.cls-63,.cls-64,.cls-65,.cls-66,.cls-67,.cls-68,.cls-69,.cls-7,.cls-70,.cls-71,.cls-72,.cls-73,.cls-74,.cls-75,.cls-76,.cls-77,.cls-78,.cls-79,.cls-8,.cls-80,.cls-81,.cls-82,.cls-83,.cls-84,.cls-85,.cls-86,.cls-87,.cls-88,.cls-89,.cls-9,.cls-90,.cls-91,.cls-92,.cls-93,.cls-94,.cls-95,.cls-96,.cls-97,.cls-98,.cls-99{fill-rule:evenodd;}.cls-1{fill:url(#linear-gradient);}.cls-2{fill:url(#linear-gradient-2);}.cls-3{fill:url(#linear-gradient-3);}.cls-4{fill:url(#linear-gradient-4);}.cls-5{fill:url(#linear-gradient-5);}.cls-6{fill:url(#linear-gradient-6);}.cls-7{fill:url(#linear-gradient-7);}.cls-8{fill:url(#linear-gradient-8);}.cls-9{fill:url(#linear-gradient-9);}.cls-10{fill:url(#linear-gradient-10);}.cls-11{fill:url(#linear-gradient-11);}.cls-12{fill:url(#linear-gradient-12);}.cls-13{fill:url(#linear-gradient-13);}.cls-14{fill:url(#linear-gradient-14);}.cls-15{fill:url(#linear-gradient-15);}.cls-16{fill:url(#linear-gradient-16);}.cls-17{fill:url(#linear-gradient-17);}.cls-18{fill:url(#linear-gradient-18);}.cls-19{fill:url(#linear-gradient-19);}.cls-20{fill:url(#linear-gradient-20);}.cls-21{fill:url(#linear-gradient-21);}.cls-22{fill:url(#linear-gradient-22);}.cls-23{fill:url(#linear-gradient-23);}.cls-24{fill:url(#linear-gradient-24);}.cls-25{fill:url(#linear-gradient-25);}.cls-26{fill:url(#linear-gradient-26);}.cls-27{fill:url(#linear-gradient-27);}.cls-28{fill:url(#linear-gradient-28);}.cls-29{fill:url(#linear-gradient-29);}.cls-30{fill:url(#linear-gradient-30);}.cls-31{fill:url(#linear-gradient-31);}.cls-32{fill:url(#linear-gradient-32);}.cls-33{fill:url(#linear-gradient-33);}.cls-34{fill:url(#linear-gradient-34);}.cls-35{fill:url(#linear-gradient-35);}.cls-36{fill:url(#linear-gradient-36);}.cls-37{fill:url(#linear-gradient-37);}.cls-38{fill:url(#linear-gradient-38);}.cls-39{fill:url(#linear-gradient-39);}.cls-40{fill:url(#linear-gradient-40);}.cls-41{fill:url(#linear-gradient-41);}.cls-42{fill:url(#linear-gradient-42);}.cls-43{fill:url(#linear-gradient-43);}.cls-44{fill:url(#linear-gradient-44);}.cls-45{fill:url(#linear-gradient-45);}.cls-46{fill:url(#linear-gradient-46);}.cls-47{fill:url(#linear-gradient-47);}.cls-48{fill:url(#linear-gradient-48);}.cls-49{fill:url(#linear-gradient-49);}.cls-50{fill:url(#linear-gradient-50);}.cls-51{fill:url(#linear-gradient-51);}.cls-52{fill:url(#linear-gradient-52);}.cls-53{fill:url(#linear-gradient-53);}.cls-54{fill:url(#linear-gradient-54);}.cls-55{fill:url(#linear-gradient-55);}.cls-56{fill:url(#linear-gradient-56);}.cls-57{fill:url(#linear-gradient-57);}.cls-58{fill:url(#linear-gradient-58);}.cls-59{fill:url(#linear-gradient-59);}.cls-60{fill:url(#linear-gradient-60);}.cls-61{fill:url(#linear-gradient-61);}.cls-62{fill:url(#linear-gradient-62);}.cls-63{fill:url(#linear-gradient-63);}.cls-64{fill:url(#linear-gradient-64);}.cls-65{fill:url(#linear-gradient-65);}.cls-66{fill:url(#linear-gradient-66);}.cls-67{fill:url(#linear-gradient-67);}.cls-68{fill:url(#linear-gradient-68);}.cls-69{fill:url(#linear-gradient-69);}.cls-70{fill:url(#linear-gradient-70);}.cls-71{fill:url(#linear-gradient-71);}.cls-72{fill:url(#linear-gradient-72);}.cls-73{fill:url(#linear-gradient-73);}.cls-74{fill:url(#linear-gradient-74);}.cls-75{fill:url(#linear-gradient-75);}.cls-76{fill:url(#linear-gradient-76);}.cls-77{fill:url(#linear-gradient-77);}.cls-78{fill:url(#linear-gradient-78);}.cls-79{fill:url(#linear-gradient-79);}.cls-80{fill:url(#linear-gradient-80);}.cls-81{fill:url(#linear-gradient-81);}.cls-82{fill:url(#linear-gradient-82);}.cls-83{fill:url(#linear-gradient-83);}.cls-84{fill:url(#linear-gradient-84);}.cls-85{fill:url(#linear-gradient-85);}.cls-86{fill:url(#linear-gradient-86);}.cls-87{fill:url(#linear-gradient-87);}.cls-88{fill:url(#linear-gradient-88);}.cls-89{fill:url(#linear-gradient-89);}.cls-90{fill:url(#linear-gradient-90);}.cls-91{fill:url(#linear-gradient-91);}.cls-92{fill:url(#linear-gradient-92);}.cls-93{fill:url(#linear-gradient-93);}.cls-94{fill:url(#linear-gradient-94);}.cls-95{fill:url(#linear-gradient-95);}.cls-96{fill:url(#linear-gradient-96);}.cls-97{fill:url(#linear-gradient-97);}.cls-98{fill:url(#linear-gradient-98);}.cls-99{fill:url(#linear-gradient-99);}.cls-100{fill:url(#linear-gradient-100);}.cls-101{fill:url(#linear-gradient-101);}.cls-102{fill:url(#linear-gradient-102);}.cls-103{fill:url(#linear-gradient-103);}.cls-104{fill:url(#linear-gradient-104);}.cls-105{fill:url(#linear-gradient-105);}.cls-106{fill:url(#linear-gradient-106);}.cls-107{fill:url(#linear-gradient-107);}.cls-108{fill:url(#linear-gradient-108);}.cls-109{fill:url(#linear-gradient-109);}.cls-110{fill:url(#linear-gradient-110);}.cls-111{fill:url(#linear-gradient-111);}.cls-112{fill:url(#linear-gradient-112);}.cls-113{fill:url(#linear-gradient-113);}.cls-114{fill:url(#linear-gradient-114);}.cls-115{fill:url(#linear-gradient-115);}.cls-116{fill:url(#linear-gradient-116);}.cls-117{fill:url(#linear-gradient-117);}.cls-118{fill:url(#linear-gradient-118);}.cls-119{fill:url(#linear-gradient-119);}.cls-120{fill:url(#linear-gradient-120);}.cls-121{fill:url(#linear-gradient-121);}.cls-122{fill:url(#linear-gradient-122);}.cls-123{fill:url(#linear-gradient-123);}.cls-124{fill:url(#linear-gradient-124);}.cls-125{fill:url(#linear-gradient-125);}.cls-126{fill:url(#linear-gradient-126);}.cls-127{fill:url(#linear-gradient-127);}.cls-128{fill:url(#linear-gradient-128);}.cls-129{fill:url(#linear-gradient-129);}.cls-130{fill:url(#linear-gradient-130);}.cls-131{fill:url(#linear-gradient-131);}.cls-132{fill:url(#linear-gradient-132);}.cls-133{fill:url(#linear-gradient-133);}.cls-134{fill:url(#linear-gradient-134);}.cls-135{fill:url(#linear-gradient-135);}.cls-136{fill:url(#linear-gradient-136);}.cls-137{fill:url(#linear-gradient-137);}.cls-138{fill:url(#linear-gradient-138);}.cls-139{fill:url(#linear-gradient-139);}.cls-140{fill:url(#linear-gradient-140);}.cls-141{fill:url(#linear-gradient-141);}.cls-142{fill:url(#linear-gradient-142);}.cls-143{fill:url(#linear-gradient-143);}.cls-144{fill:url(#linear-gradient-144);}.cls-145{fill:url(#linear-gradient-145);}.cls-146{fill:url(#linear-gradient-146);}.cls-147{fill:url(#linear-gradient-147);}.cls-148{fill:url(#linear-gradient-148);}.cls-149{fill:url(#linear-gradient-149);}.cls-150{fill:url(#linear-gradient-150);}.cls-151{fill:url(#linear-gradient-151);}.cls-152{fill:url(#linear-gradient-152);}.cls-153{fill:url(#linear-gradient-153);}.cls-154{fill:url(#linear-gradient-154);}.cls-155{fill:url(#linear-gradient-155);}.cls-156{fill:url(#linear-gradient-156);}.cls-157{fill:url(#linear-gradient-157);}.cls-158{fill:url(#linear-gradient-158);}</style><linearGradient id="linear-gradient" x1="703.32" y1="585.08" x2="704.33" y2="585.08" gradientUnits="userSpaceOnUse"><stop offset="0" stop-color="#ffef26"/><stop offset="0.02" stop-color="#ffea21"/><stop offset="0.1" stop-color="#fed70f"/><stop offset="0.19" stop-color="#fdcc04"/><stop offset="0.28" stop-color="#fdc800"/><stop offset="0.89" stop-color="#e9dd00"/><stop offset="1" stop-color="#ffd215"/></linearGradient><linearGradient id="linear-gradient-2" x1="704.23" y1="582.87" x2="705.24" y2="582.87" xlink:href="#linear-gradient"/><linearGradient id="linear-gradient-3" x1="706.91" y1="586.4" x2="707.81" y2="586.4" xlink:href="#linear-gradient"/><linearGradient id="linear-gradient-4" x1="717.04" y1="605.81" x2="718.17" y2="605.81" xlink:href="#linear-gradient"/><linearGradient id="linear-gradient-5" x1="706.12" y1="583.46" x2="706.93" y2="583.46" xlink:href="#linear-gradient"/><linearGradient id="linear-gradient-6" x1="718.61" y1="606.45" x2="719.36" y2="606.45" xlink:href="#linear-gradient"/><linearGradient id="linear-gradient-7" x1="712.84" y1="589.35" x2="713.75" y2="589.35" xlink:href="#linear-gradient"/><linearGradient id="linear-gradient-8" x1="722.85" y1="607.86" x2="726.23" y2="607.86" xlink:href="#linear-gradient"/><linearGradient id="linear-gradient-9" x1="714.31" y1="590.07" x2="715.12" y2="590.07" xlink:href="#linear-gradient"/><linearGradient id="linear-gradient-10" x1="715.72" y1="583.74" x2="716.74" y2="583.74" xlink:href="#linear-gradient"/><linearGradient id="linear-gradient-11" x1="732.19" y1="613.61" x2="733.09" y2="613.61" xlink:href="#linear-gradient"/><linearGradient id="linear-gradient-12" x1="719.1" y1="584.89" x2="720.23" y2="584.89" xlink:href="#linear-gradient"/><linearGradient id="linear-gradient-13" x1="730.7" y1="598.67" x2="731.75" y2="598.67" xlink:href="#linear-gradient"/><linearGradient id="linear-gradient-14" x1="722.01" y1="581.2" x2="722.99" y2="581.2" xlink:href="#linear-gradient"/><linearGradient id="linear-gradient-15" x1="726.6" y1="583.25" x2="728.03" y2="583.25" xlink:href="#linear-gradient"/><linearGradient id="linear-gradient-16" x1="739.32" y1="608.74" x2="740.25" y2="608.74" xlink:href="#linear-gradient"/><linearGradient id="linear-gradient-17" x1="739.26" y1="604.23" x2="740.2" y2="604.23" xlink:href="#linear-gradient"/><linearGradient id="linear-gradient-18" x1="746.5" y1="617.11" x2="747.74" y2="617.11" xlink:href="#linear-gradient"/><linearGradient id="linear-gradient-19" x1="724.24" y1="571.68" x2="725.12" y2="571.68" xlink:href="#linear-gradient"/><linearGradient id="linear-gradient-20" x1="727.22" y1="577.42" x2="728.13" y2="577.42" xlink:href="#linear-gradient"/><linearGradient id="linear-gradient-21" x1="726.61" y1="572.22" x2="730.02" y2="572.22" xlink:href="#linear-gradient"/><linearGradient id="linear-gradient-22" x1="745.23" y1="606.14" x2="746.21" y2="606.14" xlink:href="#linear-gradient"/><linearGradient id="linear-gradient-23" x1="718.93" y1="553.28" x2="720.06" y2="553.28" xlink:href="#linear-gradient"/><linearGradient id="linear-gradient-24" x1="718.81" y1="551.59" x2="719.63" y2="551.59" xlink:href="#linear-gradient"/><linearGradient id="linear-gradient-25" x1="720.14" y1="552.36" x2="720.77" y2="552.36" xlink:href="#linear-gradient"/><linearGradient id="linear-gradient-26" x1="746.93" y1="606.46" x2="748.21" y2="606.46" xlink:href="#linear-gradient"/><linearGradient id="linear-gradient-27" x1="716.37" y1="538.56" x2="717.87" y2="538.56" xlink:href="#linear-gradient"/><linearGradient id="linear-gradient-28" x1="750.29" y1="607.11" x2="751.18" y2="607.11" xlink:href="#linear-gradient"/><linearGradient id="linear-gradient-29" x1="727.25" y1="559.56" x2="728.45" y2="559.56" xlink:href="#linear-gradient"/><linearGradient id="linear-gradient-30" x1="734.96" y1="573.9" x2="736.56" y2="573.9" xlink:href="#linear-gradient"/><linearGradient id="linear-gradient-31" x1="722.43" y1="546.74" x2="723.79" y2="546.74" xlink:href="#linear-gradient"/><linearGradient id="linear-gradient-32" x1="753.3" y1="608.01" x2="755.67" y2="608.01" xlink:href="#linear-gradient"/><linearGradient id="linear-gradient-33" x1="732.23" y1="560.74" x2="733.03" y2="560.74" xlink:href="#linear-gradient"/><linearGradient id="linear-gradient-34" x1="755.82" y1="608.54" x2="757.13" y2="608.54" xlink:href="#linear-gradient"/><linearGradient id="linear-gradient-35" x1="757.23" y1="609.1" x2="758.67" y2="609.1" xlink:href="#linear-gradient"/><linearGradient id="linear-gradient-36" x1="732.71" y1="551.38" x2="733.67" y2="551.38" xlink:href="#linear-gradient"/><linearGradient id="linear-gradient-37" x1="761.05" y1="610.01" x2="763.85" y2="610.01" xlink:href="#linear-gradient"/><linearGradient id="linear-gradient-38" x1="750.14" y1="578.78" x2="751.4" y2="578.78" xlink:href="#linear-gradient"/><linearGradient id="linear-gradient-39" x1="743.07" y1="563.74" x2="743.65" y2="563.74" xlink:href="#linear-gradient"/><linearGradient id="linear-gradient-40" x1="753.43" y1="566.82" x2="754.91" y2="566.82" xlink:href="#linear-gradient"/><linearGradient id="linear-gradient-41" x1="746.76" y1="541.81" x2="747.64" y2="541.81" xlink:href="#linear-gradient"/><linearGradient id="linear-gradient-42" x1="741.06" y1="529.68" x2="742.44" y2="529.68" xlink:href="#linear-gradient"/><linearGradient id="linear-gradient-43" x1="765.05" y1="574.56" x2="765.76" y2="574.56" xlink:href="#linear-gradient"/><linearGradient id="linear-gradient-44" x1="749.57" y1="537.38" x2="751.75" y2="537.38" xlink:href="#linear-gradient"/><linearGradient id="linear-gradient-45" x1="767.3" y1="569.17" x2="768.02" y2="569.17" xlink:href="#linear-gradient"/><linearGradient id="linear-gradient-46" x1="756.17" y1="537.55" x2="757.76" y2="537.55" xlink:href="#linear-gradient"/><linearGradient id="linear-gradient-47" x1="755.3" y1="529.66" x2="756.44" y2="529.66" xlink:href="#linear-gradient"/><linearGradient id="linear-gradient-48" x1="761.78" y1="540.97" x2="762.91" y2="540.97" xlink:href="#linear-gradient"/><linearGradient id="linear-gradient-49" x1="765.82" y1="542.66" x2="766.64" y2="542.66" xlink:href="#linear-gradient"/><linearGradient id="linear-gradient-50" x1="767.54" y1="542.48" x2="768.45" y2="542.48" xlink:href="#linear-gradient"/><linearGradient id="linear-gradient-51" x1="783.23" y1="572.02" x2="784.54" y2="572.02" xlink:href="#linear-gradient"/><linearGradient id="linear-gradient-52" x1="784.68" y1="571.64" x2="785.91" y2="571.64" xlink:href="#linear-gradient"/><linearGradient id="linear-gradient-53" x1="787.18" y1="575.47" x2="788.09" y2="575.47" xlink:href="#linear-gradient"/><linearGradient id="linear-gradient-54" x1="773.65" y1="544.9" x2="774.1" y2="544.9" xlink:href="#linear-gradient"/><linearGradient id="linear-gradient-55" x1="772.85" y1="543.01" x2="774.56" y2="543.01" xlink:href="#linear-gradient"/><linearGradient id="linear-gradient-56" x1="774.49" y1="545.15" x2="775.64" y2="545.15" xlink:href="#linear-gradient"/><linearGradient id="linear-gradient-57" x1="776.34" y1="548.39" x2="777.29" y2="548.39" xlink:href="#linear-gradient"/><linearGradient id="linear-gradient-58" x1="790.58" y1="575.74" x2="791.71" y2="575.74" xlink:href="#linear-gradient"/><linearGradient id="linear-gradient-59" x1="795.8" y1="576.99" x2="798.7" y2="576.99" xlink:href="#linear-gradient"/><linearGradient id="linear-gradient-60" x1="783.15" y1="547.1" x2="783.77" y2="547.1" xlink:href="#linear-gradient"/><linearGradient id="linear-gradient-61" x1="783.76" y1="546.97" x2="784.79" y2="546.97" xlink:href="#linear-gradient"/><linearGradient id="linear-gradient-62" x1="801.29" y1="577.12" x2="802.09" y2="577.12" xlink:href="#linear-gradient"/><linearGradient id="linear-gradient-63" x1="790.83" y1="552.39" x2="791.59" y2="552.39" xlink:href="#linear-gradient"/><linearGradient id="linear-gradient-64" x1="807.28" y1="535.33" x2="808.32" y2="535.33" xlink:href="#linear-gradient"/><linearGradient id="linear-gradient-65" x1="818.69" y1="536.58" x2="821.22" y2="536.58" xlink:href="#linear-gradient"/><linearGradient id="linear-gradient-66" x1="822.99" y1="537.13" x2="824.14" y2="537.13" xlink:href="#linear-gradient"/><linearGradient id="linear-gradient-67" x1="824.35" y1="537.22" x2="825.38" y2="537.22" xlink:href="#linear-gradient"/><linearGradient id="linear-gradient-68" x1="826.08" y1="538.62" x2="827.6" y2="538.62" xlink:href="#linear-gradient"/><linearGradient id="linear-gradient-69" x1="827.98" y1="538.16" x2="828.63" y2="538.16" xlink:href="#linear-gradient"/><linearGradient id="linear-gradient-70" x1="828.63" y1="538.33" x2="829.33" y2="538.33" xlink:href="#linear-gradient"/><linearGradient id="linear-gradient-71" x1="829.35" y1="537.07" x2="830.47" y2="537.07" xlink:href="#linear-gradient"/><linearGradient id="linear-gradient-72" x1="835.61" y1="538.33" x2="836.68" y2="538.33" xlink:href="#linear-gradient"/><linearGradient id="linear-gradient-73" x1="839.38" y1="538.67" x2="840.28" y2="538.67" xlink:href="#linear-gradient"/><linearGradient id="linear-gradient-74" x1="841.52" y1="539.02" x2="842.95" y2="539.02" xlink:href="#linear-gradient"/><linearGradient id="linear-gradient-75" x1="843.03" y1="536.5" x2="843.85" y2="536.5" xlink:href="#linear-gradient"/><linearGradient id="linear-gradient-76" x1="844.81" y1="539.34" x2="847.7" y2="539.34" xlink:href="#linear-gradient"/><linearGradient id="linear-gradient-77" x1="845.75" y1="537.63" x2="847.21" y2="537.63" xlink:href="#linear-gradient"/><linearGradient id="linear-gradient-78" x1="848.15" y1="536.62" x2="848.86" y2="536.62" xlink:href="#linear-gradient"/><linearGradient id="linear-gradient-79" x1="851.44" y1="536.93" x2="852.04" y2="536.93" xlink:href="#linear-gradient"/><linearGradient id="linear-gradient-80" x1="890.4" y1="544.16" x2="892.11" y2="544.16" xlink:href="#linear-gradient"/><linearGradient id="linear-gradient-81" x1="901.47" y1="541.81" x2="902.28" y2="541.81" xlink:href="#linear-gradient"/><linearGradient id="linear-gradient-82" x1="912.96" y1="544.08" x2="914.31" y2="544.08" xlink:href="#linear-gradient"/><linearGradient id="linear-gradient-83" x1="918.48" y1="543.83" x2="920.22" y2="543.83" xlink:href="#linear-gradient"/><linearGradient id="linear-gradient-84" x1="929.61" y1="543.36" x2="930.84" y2="543.36" xlink:href="#linear-gradient"/><linearGradient id="linear-gradient-85" x1="940.96" y1="546.32" x2="941.65" y2="546.32" xlink:href="#linear-gradient"/><linearGradient id="linear-gradient-86" x1="978.88" y1="619.34" x2="981.6" y2="619.34" xlink:href="#linear-gradient"/><linearGradient id="linear-gradient-87" x1="981.74" y1="618.73" x2="982.87" y2="618.73" xlink:href="#linear-gradient"/><linearGradient id="linear-gradient-88" x1="962" y1="543.34" x2="964.26" y2="543.34" xlink:href="#linear-gradient"/><linearGradient id="linear-gradient-89" x1="965.82" y1="546.6" x2="966.34" y2="546.6" xlink:href="#linear-gradient"/><linearGradient id="linear-gradient-90" x1="965.11" y1="543.88" x2="965.94" y2="543.88" xlink:href="#linear-gradient"/><linearGradient id="linear-gradient-91" x1="992.17" y1="540.09" x2="993" y2="540.09" xlink:href="#linear-gradient"/><linearGradient id="linear-gradient-92" x1="993.95" y1="537.42" x2="994.67" y2="537.42" xlink:href="#linear-gradient"/><linearGradient id="linear-gradient-93" x1="995.94" y1="538.8" x2="999.73" y2="538.8" xlink:href="#linear-gradient"/><linearGradient id="linear-gradient-94" x1="999.36" y1="538.62" x2="1000.62" y2="538.62" xlink:href="#linear-gradient"/><linearGradient id="linear-gradient-95" x1="1001.07" y1="538.29" x2="1002.42" y2="538.29" xlink:href="#linear-gradient"/><linearGradient id="linear-gradient-96" x1="1002.26" y1="539.95" x2="1003.78" y2="539.95" xlink:href="#linear-gradient"/><linearGradient id="linear-gradient-97" x1="1003.29" y1="528.31" x2="1004.21" y2="528.31" xlink:href="#linear-gradient"/><linearGradient id="linear-gradient-98" x1="1008.29" y1="536.18" x2="1010.76" y2="536.18" xlink:href="#linear-gradient"/><linearGradient id="linear-gradient-99" x1="1005.35" y1="527.7" x2="1007.53" y2="527.7" xlink:href="#linear-gradient"/><linearGradient id="linear-gradient-100" x1="1011.33" y1="536.49" x2="1012.7" y2="536.49" xlink:href="#linear-gradient"/><linearGradient id="linear-gradient-101" x1="1012.17" y1="534.36" x2="1013.77" y2="534.36" xlink:href="#linear-gradient"/><linearGradient id="linear-gradient-102" x1="1014.89" y1="534.68" x2="1017.29" y2="534.68" xlink:href="#linear-gradient"/><linearGradient id="linear-gradient-103" x1="1014.69" y1="533.02" x2="1017.11" y2="533.02" xlink:href="#linear-gradient"/><linearGradient id="linear-gradient-104" x1="1016.59" y1="530.46" x2="1017.74" y2="530.46" xlink:href="#linear-gradient"/><linearGradient id="linear-gradient-105" x1="1017.01" y1="531.77" x2="1018.95" y2="531.77" xlink:href="#linear-gradient"/><linearGradient id="linear-gradient-106" x1="1018.62" y1="531.96" x2="1023.65" y2="531.96" xlink:href="#linear-gradient"/><linearGradient id="linear-gradient-107" x1="1023.33" y1="531.48" x2="1024.74" y2="531.48" xlink:href="#linear-gradient"/><linearGradient id="linear-gradient-108" x1="1024.66" y1="532.64" x2="1025.45" y2="532.64" xlink:href="#linear-gradient"/><linearGradient id="linear-gradient-109" x1="1025.37" y1="531.08" x2="1026.56" y2="531.08" xlink:href="#linear-gradient"/><linearGradient id="linear-gradient-110" x1="697.69" y1="581.56" x2="703.45" y2="581.56" xlink:href="#linear-gradient"/><linearGradient id="linear-gradient-111" x1="708.12" y1="589.67" x2="709.92" y2="589.67" xlink:href="#linear-gradient"/><linearGradient id="linear-gradient-112" x1="710.51" y1="578.65" x2="1072.47" y2="578.65" xlink:href="#linear-gradient"/><linearGradient id="linear-gradient-113" x1="799.16" y1="536.85" x2="803.06" y2="536.85" xlink:href="#linear-gradient"/><linearGradient id="linear-gradient-114" x1="721.74" y1="607.11" x2="722.87" y2="607.11" xlink:href="#linear-gradient"/><linearGradient id="linear-gradient-115" x1="741.66" y1="604.46" x2="742.54" y2="604.46" xlink:href="#linear-gradient"/><linearGradient id="linear-gradient-116" x1="725.38" y1="572.02" x2="726.29" y2="572.02" xlink:href="#linear-gradient"/><linearGradient id="linear-gradient-117" x1="732.55" y1="585.37" x2="733.36" y2="585.37" xlink:href="#linear-gradient"/><linearGradient id="linear-gradient-118" x1="730.91" y1="579.18" x2="731.63" y2="579.18" xlink:href="#linear-gradient"/><linearGradient id="linear-gradient-119" x1="747.29" y1="610.02" x2="750.25" y2="610.02" xlink:href="#linear-gradient"/><linearGradient id="linear-gradient-120" x1="730.43" y1="573.23" x2="734.07" y2="573.23" xlink:href="#linear-gradient"/><linearGradient id="linear-gradient-121" x1="753.11" y1="618.37" x2="755.47" y2="618.37" xlink:href="#linear-gradient"/><linearGradient id="linear-gradient-122" x1="714.88" y1="538.78" x2="715.95" y2="538.78" xlink:href="#linear-gradient"/><linearGradient id="linear-gradient-123" x1="733.37" y1="574.21" x2="734.62" y2="574.21" xlink:href="#linear-gradient"/><linearGradient id="linear-gradient-124" x1="751.73" y1="607.34" x2="752.57" y2="607.34" xlink:href="#linear-gradient"/><linearGradient id="linear-gradient-125" x1="726.38" y1="549.24" x2="727.75" y2="549.24" xlink:href="#linear-gradient"/><linearGradient id="linear-gradient-126" x1="739.68" y1="563.03" x2="741.28" y2="563.03" xlink:href="#linear-gradient"/><linearGradient id="linear-gradient-127" x1="763.96" y1="610.71" x2="765.11" y2="610.71" xlink:href="#linear-gradient"/><linearGradient id="linear-gradient-128" x1="766.51" y1="611.99" x2="768.19" y2="611.99" xlink:href="#linear-gradient"/><linearGradient id="linear-gradient-129" x1="766.67" y1="610.94" x2="770.71" y2="610.94" xlink:href="#linear-gradient"/><linearGradient id="linear-gradient-130" x1="738.78" y1="528.62" x2="739.72" y2="528.62" xlink:href="#linear-gradient"/><linearGradient id="linear-gradient-131" x1="749.72" y1="535.17" x2="751.77" y2="535.17" xlink:href="#linear-gradient"/><linearGradient id="linear-gradient-132" x1="755.47" y1="538.31" x2="756.81" y2="538.31" xlink:href="#linear-gradient"/><linearGradient id="linear-gradient-133" x1="777.04" y1="571.48" x2="778.07" y2="571.48" xlink:href="#linear-gradient"/><linearGradient id="linear-gradient-134" x1="768.24" y1="542.83" x2="770.66" y2="542.83" xlink:href="#linear-gradient"/><linearGradient id="linear-gradient-135" x1="771.89" y1="545.9" x2="773.75" y2="545.9" xlink:href="#linear-gradient"/><linearGradient id="linear-gradient-136" x1="770.64" y1="542.97" x2="772.09" y2="542.97" xlink:href="#linear-gradient"/><linearGradient id="linear-gradient-137" x1="775.65" y1="544.1" x2="776.58" y2="544.1" xlink:href="#linear-gradient"/><linearGradient id="linear-gradient-138" x1="781.3" y1="535.95" x2="782.28" y2="535.95" xlink:href="#linear-gradient"/><linearGradient id="linear-gradient-139" x1="789.66" y1="550.92" x2="790.29" y2="550.92" xlink:href="#linear-gradient"/><linearGradient id="linear-gradient-140" x1="802.29" y1="577.13" x2="803.43" y2="577.13" xlink:href="#linear-gradient"/><linearGradient id="linear-gradient-141" x1="792.58" y1="534.63" x2="795.74" y2="534.63" xlink:href="#linear-gradient"/><linearGradient id="linear-gradient-142" x1="795.36" y1="535.23" x2="799.79" y2="535.23" xlink:href="#linear-gradient"/><linearGradient id="linear-gradient-143" x1="794.23" y1="531.98" x2="797.49" y2="531.98" xlink:href="#linear-gradient"/><linearGradient id="linear-gradient-144" x1="802.66" y1="534.29" x2="804.01" y2="534.29" xlink:href="#linear-gradient"/><linearGradient id="linear-gradient-145" x1="808.75" y1="535.37" x2="812.24" y2="535.37" xlink:href="#linear-gradient"/><linearGradient id="linear-gradient-146" x1="808.58" y1="533.37" x2="809.98" y2="533.37" xlink:href="#linear-gradient"/><linearGradient id="linear-gradient-147" x1="812.47" y1="536.51" x2="814.83" y2="536.51" xlink:href="#linear-gradient"/><linearGradient id="linear-gradient-148" x1="824.64" y1="538.87" x2="825.89" y2="538.87" xlink:href="#linear-gradient"/><linearGradient id="linear-gradient-149" x1="830.46" y1="537.26" x2="831.77" y2="537.26" xlink:href="#linear-gradient"/><linearGradient id="linear-gradient-150" x1="837.7" y1="538.58" x2="839.16" y2="538.58" xlink:href="#linear-gradient"/><linearGradient id="linear-gradient-151" x1="848.31" y1="538.81" x2="851.52" y2="538.81" xlink:href="#linear-gradient"/><linearGradient id="linear-gradient-152" x1="866.85" y1="540.42" x2="868.69" y2="540.42" xlink:href="#linear-gradient"/><linearGradient id="linear-gradient-153" x1="878.75" y1="540.72" x2="880.21" y2="540.72" xlink:href="#linear-gradient"/><linearGradient id="linear-gradient-154" x1="889.28" y1="544.72" x2="890.2" y2="544.72" xlink:href="#linear-gradient"/><linearGradient id="linear-gradient-155" x1="933.56" y1="544.07" x2="934.74" y2="544.07" xlink:href="#linear-gradient"/><linearGradient id="linear-gradient-156" x1="971.72" y1="620.77" x2="975.48" y2="620.77" xlink:href="#linear-gradient"/><linearGradient id="linear-gradient-157" x1="999.46" y1="536.31" x2="1000.14" y2="536.31" xlink:href="#linear-gradient"/><linearGradient id="linear-gradient-158" x1="1004.6" y1="538.17" x2="1005.32" y2="538.17" xlink:href="#linear-gradient"/></defs><title>tttUntitled-7</title><path class="cls-1" d="M703.32,584.89c.33.77.67.81,1,.28C704,585.18,703.66,584.19,703.32,584.89Z" transform="translate(-697.69 -527.25)"/><path class="cls-2" d="M704.23,582.85c.34-.21.67.95,1,.28C704.91,582.85,704.57,581.83,704.23,582.85Z" transform="translate(-697.69 -527.25)"/><path class="cls-3" d="M707.26,585.79c-.22.34-.11.7-.35,1,.36.52.37-.18.9-.36C707.63,585.92,707.44,586,707.26,585.79Z" transform="translate(-697.69 -527.25)"/><path class="cls-4" d="M717,605.66c.15.28.3.58.44.87.24-.75.45-.21.69-.79C717.8,604.91,717.43,604.88,717,605.66Z" transform="translate(-697.69 -527.25)"/><path class="cls-5" d="M706.37,582.78c0,.32-.07.63-.23.41-.17.61.59,1.34.79.69C706.93,583.08,706.66,583.6,706.37,582.78Z" transform="translate(-697.69 -527.25)"/><path class="cls-6" d="M718.61,606.2c.43,0,.44.74.66,1.31a3.27,3.27,0,0,0-.2-2.12Z" transform="translate(-697.69 -527.25)"/><path class="cls-7" d="M712.85,589.13c-.14.75.66,1.09.9.06C713.46,588.2,713.14,589.92,712.85,589.13Z" transform="translate(-697.69 -527.25)"/><path class="cls-8" d="M725.23,606.5c0,1.17-.2.68-.69,1.21a2.31,2.31,0,0,0-.21-.86c-.31.49-.61.47-.9-.07a2.92,2.92,0,0,0-.58,1.44c.17.08.49-.24.33.23.22.51.46-.62.69-.79a2.46,2.46,0,0,0,1,1.55c0-1.7.78-1.5,1.38-2C725.89,607.13,725.55,607.38,725.23,606.5Z" transform="translate(-697.69 -527.25)"/><path class="cls-9" d="M714.31,589.86l.44.87c0-.31.14-.89.34-.6C715.27,589.53,714.52,589,714.31,589.86Z" transform="translate(-697.69 -527.25)"/><path class="cls-10" d="M716.74,583.5c-.35-.18-1-.5-1,.56C716.05,584.33,716.4,584.12,716.74,583.5Z" transform="translate(-697.69 -527.25)"/><path class="cls-11" d="M732.19,613.58c.32.67.89.52.9-.36C732.79,613.27,732.5,613.09,732.19,613.58Z" transform="translate(-697.69 -527.25)"/><path class="cls-12" d="M719.1,584.73c.37.14.73,1.24,1.13.09C719.85,584.52,719.48,584.21,719.1,584.73Z" transform="translate(-697.69 -527.25)"/><path class="cls-13" d="M731.75,598.36a.76.76,0,0,1-.44-.46c-.18,1.39-.74.22-.59,1.44C731.21,599.75,731.16,598.79,731.75,598.36Z" transform="translate(-697.69 -527.25)"/><path class="cls-14" d="M723,582.08c.15-.67-.66-.74-.88-1.75C721.74,581.25,722.65,581.67,723,582.08Z" transform="translate(-697.69 -527.25)"/><path class="cls-15" d="M726.9,583.86c.38-.06.75.34,1.13-.33-.44-.36-.9-.37-1.34-.95C726.3,583,727.29,583.47,726.9,583.86Z" transform="translate(-697.69 -527.25)"/><path class="cls-16" d="M739.34,608.44c-.16,1.29.66.28.89.5C740.39,607.89,739.57,608.62,739.34,608.44Z" transform="translate(-697.69 -527.25)"/><path class="cls-17" d="M739.43,603.39a2.42,2.42,0,0,0,0,1.68c.33-1,.8.06.8-1C740,603.26,739.67,604.51,739.43,603.39Z" transform="translate(-697.69 -527.25)"/><path class="cls-18" d="M746.5,616.84c.41.53.81.95,1.24.31C747.33,617,746.92,616.56,746.5,616.84Z" transform="translate(-697.69 -527.25)"/><path class="cls-19" d="M724.91,572.53c.41-.53.14-1.11-.2-1.7l-.47.81C724.46,572.42,724.69,571.92,724.91,572.53Z" transform="translate(-697.69 -527.25)"/><path class="cls-20" d="M727.22,577.14c.29.91.59.7.89.91C728.26,577.42,727.47,576.18,727.22,577.14Z" transform="translate(-697.69 -527.25)"/><path class="cls-21" d="M726.84,572.47c.89,1.14,1.81.16,2.7,1,.51-.66.2-1.39.48-2.07-.5-.66-.41.69-.8.57-.42-.58-.12-1.06-.55-1.09,0,1.14-.67.79-1,1.39-.25-.82-.52-.59-.77-1.11-.52.38.26.86-.25,1.24C726.68,572.68,726.76,572.58,726.84,572.47Z" transform="translate(-697.69 -527.25)"/><path class="cls-22" d="M746.15,605.63c.25-1.08-.43.14-.55-.68-.47.46-.19,1-.37,1.45a3.74,3.74,0,0,0,.89.92.76.76,0,0,0-.55-1.11C745.34,605.94,746,605.48,746.15,605.63Z" transform="translate(-697.69 -527.25)"/><path class="cls-23" d="M718.93,552.89c.38.5.74,1.5,1.13.51C719.69,553.14,719.32,552.42,718.93,552.89Z" transform="translate(-697.69 -527.25)"/><path class="cls-24" d="M718.84,551.41c-.18.73.58.81.79.27C719.38,550.5,719.1,551.75,718.84,551.41Z" transform="translate(-697.69 -527.25)"/><path class="cls-25" d="M720.77,551.77c-.19-.22-.38,0-.57-.26a2.75,2.75,0,0,0,.21,1.7C720.71,552.75,720.59,552.25,720.77,551.77Z" transform="translate(-697.69 -527.25)"/><path class="cls-26" d="M746.93,605.91c0,1.3.89.47,1.22,1.15C748.48,605.69,747.32,605.81,746.93,605.91Z" transform="translate(-697.69 -527.25)"/><path class="cls-27" d="M717.87,537.85c-.5.4-1,.25-1.5,1.36C716.71,539.48,717.23,538.92,717.87,537.85Z" transform="translate(-697.69 -527.25)"/><path class="cls-28" d="M751.18,607.52c0-.68-.54-1.62-.88-.91C750.28,607.25,750.83,608.47,751.18,607.52Z" transform="translate(-697.69 -527.25)"/><path class="cls-29" d="M728.28,558.88c-.35,1.11-.68.53-1,1C727.61,560.7,728.9,560.11,728.28,558.88Z" transform="translate(-697.69 -527.25)"/><path class="cls-30" d="M735,573.94c.07,1.14,1.11,1.22,1.59.12a.72.72,0,0,1,0-.84C736.05,572.18,735.48,574.62,735,573.94Z" transform="translate(-697.69 -527.25)"/><path class="cls-31" d="M723.79,546.94c-.46.2-.89-1.27-1.36-.53C722.87,547.47,723.33,547.47,723.79,546.94Z" transform="translate(-697.69 -527.25)"/><path class="cls-32" d="M755.67,608.32c-1.06,0-1.53-2.44-2.37,0,.17.07.34.15.22.44C754.25,607.88,754.93,609.26,755.67,608.32Z" transform="translate(-697.69 -527.25)"/><path class="cls-33" d="M733,560.5a.77.77,0,0,1-.45-.45,2.19,2.19,0,0,1-.35,1C732.48,562,732.76,560.79,733,560.5Z" transform="translate(-697.69 -527.25)"/><path class="cls-34" d="M757.13,608.23c-.24-1.13-.54.85-.78-.28-.16.31-.31.61-.46.39-.28.74.34.27.43.88C756.13,607.91,756.72,609.16,757.13,608.23Z" transform="translate(-697.69 -527.25)"/><path class="cls-35" d="M758.26,607.9c0,1.48-.66.22-1,1,.72.4.85,2.06,1.44,1.17C758,609.28,758.89,608.65,758.26,607.9Z" transform="translate(-697.69 -527.25)"/><path class="cls-36" d="M733.53,550.64c-.44.63-.61.43-.82,1.41C733.24,552.32,734,551.73,733.53,550.64Z" transform="translate(-697.69 -527.25)"/><path class="cls-37" d="M761.05,609.19c.43,1,.9.22,1.34.53.22.51-.06,1-.37,1.44.78.64.77-1.47,1.83-1.11-.21-.92-.24-.51-.65-1.32-.51.76.17.27.31,1.08C762.69,609.83,761.89,608.43,761.05,609.19Z" transform="translate(-697.69 -527.25)"/><path class="cls-38" d="M750.14,579.18c.48.64,1.06-.23,1.26-1C750.91,578.07,750.35,578,750.14,579.18Z" transform="translate(-697.69 -527.25)"/><path class="cls-39" d="M743.07,563.62c.41.1.13.3.44.88a4.83,4.83,0,0,0,.14-1.46C743.46,562.8,743.26,563.36,743.07,563.62Z" transform="translate(-697.69 -527.25)"/><path class="cls-40" d="M754.91,566.49c-.48.35-1.35-.56-1.48.51C753.91,567.23,754.4,567.39,754.91,566.49Z" transform="translate(-697.69 -527.25)"/><path class="cls-41" d="M747.34,541.2c-.19-.24-.38.31-.58.58.25.58.52.36.78.69C747.94,542.09,746.94,541.58,747.34,541.2Z" transform="translate(-697.69 -527.25)"/><path class="cls-42" d="M742.44,529.19c-.44.18-1.28-.16-1.38.74C741.51,530.48,742,530,742.44,529.19Z" transform="translate(-697.69 -527.25)"/><path class="cls-43" d="M765.71,574.77c.22-.63-.48-1.22-.66-.48l.43.88C765.52,574.86,765.56,574.55,765.71,574.77Z" transform="translate(-697.69 -527.25)"/><path class="cls-44" d="M751,538.54c.21-.47-.06-1-.09-1.48.32-.37.8.43.81-.57-.26-.34-.54.61-.79-.27-.23,1.47-.85.22-1.39,1.15C750.05,538.1,750.56,537.33,751,538.54Z" transform="translate(-697.69 -527.25)"/><path class="cls-45" d="M767.86,569.89c.37-.55,0-1.49-.31-1.5-.51.38.26.86-.25,1.24C767.48,569.64,767.66,570.12,767.86,569.89Z" transform="translate(-697.69 -527.25)"/><path class="cls-46" d="M757.76,537.2c-.53.11-1.07.68-1.59-.14C756.19,538.12,757.68,538.53,757.76,537.2Z" transform="translate(-697.69 -527.25)"/><path class="cls-47" d="M756.44,529.28c-.38.16-.75-.24-1.14.33C755.66,530.29,756.05,530.12,756.44,529.28Z" transform="translate(-697.69 -527.25)"/><path class="cls-48" d="M762.91,541c-.37-.3-.74-.61-1.13-.09C762.15,541.1,762.52,541.7,762.91,541Z" transform="translate(-697.69 -527.25)"/><path class="cls-49" d="M766.61,543.2c.13-.33-.17-.71-.32-1.08l-.47.81C766.08,543.32,766.36,542.81,766.61,543.2Z" transform="translate(-697.69 -527.25)"/><path class="cls-50" d="M767.54,542.44c.28.79.6,0,.89.5C768.58,542.48,767.79,541.44,767.54,542.44Z" transform="translate(-697.69 -527.25)"/><path class="cls-51" d="M783.4,572.92c.12-.13.07-.28,0-.43.16-.2.3.24.44.47.28-.23.17-1.48.59-1,.41-.73-.61-.3-.21-.86A1.29,1.29,0,0,0,783.4,572.92Z" transform="translate(-697.69 -527.25)"/><path class="cls-52" d="M785.91,571.87l-.54-1.1c-.24.75-.45.21-.69.78.14.45.29.26.45,0,.16.3.32.59.2.86C785.52,572.69,785.72,572.13,785.91,571.87Z" transform="translate(-697.69 -527.25)"/><path class="cls-53" d="M788.09,575.43c-.28-.78-.59-.27-.91.34C787.48,576.07,787.78,575.83,788.09,575.43Z" transform="translate(-697.69 -527.25)"/><path class="cls-54" d="M774,544.05c-.57,0-.17,1.05-.27,1.66C774.19,546,774.17,544.51,774,544.05Z" transform="translate(-697.69 -527.25)"/><path class="cls-55" d="M774.56,542.62c-.57.39-1.11-1-1.71.49C773.44,543.51,774.27,544.18,774.56,542.62Z" transform="translate(-697.69 -527.25)"/><path class="cls-56" d="M775.64,545.24c-.37-.25-.75-.06-1.12-.51-.1.27.13.57,0,.84C774.88,545.41,775.25,545.82,775.64,545.24Z" transform="translate(-697.69 -527.25)"/><path class="cls-57" d="M777,547.47a4.09,4.09,0,0,0-.61,1.85C777.34,549,777.57,549.71,777,547.47Z" transform="translate(-697.69 -527.25)"/><path class="cls-58" d="M791.71,575.74c-.38-.19-.74-.8-1.13-.09C790.94,576.3,791.31,576.33,791.71,575.74Z" transform="translate(-697.69 -527.25)"/><path class="cls-59" d="M796.06,578c1.09-1.11,2-.06,2.64-1.67a4,4,0,0,0-2.5.62c-.11-.29.12-.55.25-.82C795.69,575.35,795.63,577,796.06,578Z" transform="translate(-697.69 -527.25)"/><path class="cls-60" d="M783.18,547.79c.58.63.24-1.61.59-1C783.83,545.42,783,547.3,783.18,547.79Z" transform="translate(-697.69 -527.25)"/><path class="cls-61" d="M784.79,546.66c-.33-.27-.68-.07-1,.55C784.09,547.51,784.43,547.49,784.79,546.66Z" transform="translate(-697.69 -527.25)"/><path class="cls-62" d="M801.29,576.8l.43.88c.23-.33.12-.69.37-1C801.82,576.81,801.57,576.26,801.29,576.8Z" transform="translate(-697.69 -527.25)"/><path class="cls-63" d="M791.22,553.13c.18-.48-.1-1,.37-1.45C791.06,551.39,790.39,552.93,791.22,553.13Z" transform="translate(-697.69 -527.25)"/><path class="cls-64" d="M808.32,534.59c-.34,0-.69.53-1,1C807.8,536.85,808.26,535.41,808.32,534.59Z" transform="translate(-697.69 -527.25)"/><path class="cls-65" d="M819.71,537.08c.22.81-.45.51-.59,1,.44.52.84-.06,1-1-.29-.1-.41-.33-.43-.88.52-1,1,.63,1.49-.51-.27,0-.54.18-.78-.7-.66,1-1.24.51-1.58-.14,0,.78.47,1.59-.17,2.31C819.16,538,819.14,536.16,819.71,537.08Z" transform="translate(-697.69 -527.25)"/><path class="cls-66" d="M824.14,536.84c-.4-.77-1.07,1-.67-.48-.29-.52-.43.61-.48.8l.44.88C823.88,537.31,823.88,537.72,824.14,536.84Z" transform="translate(-697.69 -527.25)"/><path class="cls-67" d="M825.38,536.74l-.32-.66c-.12.27-.23.31-.34.18,0,.8.1.56-.37,1,.21.37.08.71.32,1.09A3.61,3.61,0,0,1,825.38,536.74Z" transform="translate(-697.69 -527.25)"/><path class="cls-68" d="M827.6,538.63c-.47-.53-1,.42-1.45-.76-.23.91.16.56.3,1.5C826.85,538.59,827.21,539.3,827.6,538.63Z" transform="translate(-697.69 -527.25)"/><path class="cls-69" d="M828.63,538.51a2.42,2.42,0,0,0-.32-1.08,1.21,1.21,0,0,0-.15,1.46A.66.66,0,0,0,828.63,538.51Z" transform="translate(-697.69 -527.25)"/><path class="cls-70" d="M829.3,538.58c.13-.35-.17-.73-.31-1.09l-.36.6c.21.37.09.71.32,1.08C829.17,538.88,829.07,538.28,829.3,538.58Z" transform="translate(-697.69 -527.25)"/><path class="cls-71" d="M830.47,537.41c-.37-.42-.73-1.14-1.11-.94C829.28,536.9,830.13,538.29,830.47,537.41Z" transform="translate(-697.69 -527.25)"/><path class="cls-72" d="M836.68,538.19c-.25-.83-.54.12-.78-.71a1.53,1.53,0,0,0,0,1.69C836.14,538.4,836.4,538.67,836.68,538.19Z" transform="translate(-697.69 -527.25)"/><path class="cls-73" d="M840.28,538.94l-.43-.89-.47.81C839.67,539.39,840,539.42,840.28,538.94Z" transform="translate(-697.69 -527.25)"/><path class="cls-74" d="M842.57,538.3c-.28-.25-.24.33-.36.6s-.44-.52-.69.36a8.45,8.45,0,0,0,1.35.54C843.24,539.34,842.19,538.76,842.57,538.3Z" transform="translate(-697.69 -527.25)"/><path class="cls-75" d="M843.05,537.08c.25.4.54-.54.8-.14a1.05,1.05,0,0,0-.77-1.13C842.87,536.22,843.36,536.68,843.05,537.08Z" transform="translate(-697.69 -527.25)"/><path class="cls-76" d="M847.6,540.66c.47-1.27-.8-1.53-1.06-2.63-.13,1.18,0,1.3-.73,1.62-.46-.95-.38-1.6-1-1.57a2.88,2.88,0,0,0,.73,2.39C846.28,539.32,846.92,540.56,847.6,540.66Z" transform="translate(-697.69 -527.25)"/><path class="cls-77" d="M847.21,538.09c0-.59-1-1.54-1.46-.34C846.23,538.08,846.74,537.59,847.21,538.09Z" transform="translate(-697.69 -527.25)"/><path class="cls-78" d="M848.15,536.91c.18.42.37.22.55.68.33-.6-.25-1.29.16-1.89-.22-.16-.45,0-.68.36C848.63,536.78,848.65,536.27,848.15,536.91Z" transform="translate(-697.69 -527.25)"/><path class="cls-79" d="M852,537.68c-.07-.5.22-1-.07-1.49,0,.77-.16.24-.47.8C851.61,537.54,851.8,537.44,852,537.68Z" transform="translate(-697.69 -527.25)"/><path class="cls-80" d="M892.11,544.34c-.48-.38-1-1-1.44-1.19a13.51,13.51,0,0,0-.27,1.67C891,545.54,891.53,545.05,892.11,544.34Z" transform="translate(-697.69 -527.25)"/><path class="cls-81" d="M902.25,542.13c.19-.59-.56-1.17-.78-.29C901.7,542.73,902,541.78,902.25,542.13Z" transform="translate(-697.69 -527.25)"/><path class="cls-82" d="M914.31,543.89c-.44-.35-.9-.08-1.35-.13C912.94,544.6,913.91,544.69,914.31,543.89Z" transform="translate(-697.69 -527.25)"/><path class="cls-83" d="M920.22,543.18a1.49,1.49,0,0,0-1.74,1.32C919,544,920,544,920.22,543.18Z" transform="translate(-697.69 -527.25)"/><path class="cls-84" d="M930.84,543.76c0-.66-.86-1.25-1.23-.32C930,544,930.43,543.51,930.84,543.76Z" transform="translate(-697.69 -527.25)"/><path class="cls-85" d="M941.65,545.63c-.22-.16-.45,0-.69.36.21.37.08.71.31,1.08C941.32,546.59,941.6,546.12,941.65,545.63Z" transform="translate(-697.69 -527.25)"/><path class="cls-86" d="M978.88,619.92c.88.63,1.84-1.21,2.72-.58C981.2,617.72,979.72,619.3,978.88,619.92Z" transform="translate(-697.69 -527.25)"/><path class="cls-87" d="M981.74,618.72c.35.68.73.52,1.13-.31A.9.9,0,0,0,981.74,618.72Z" transform="translate(-697.69 -527.25)"/><path class="cls-88" d="M962.44,543.18a2.46,2.46,0,0,0,1.82-.24,1.84,1.84,0,0,0-2.26-.22c.41.53.27,1,.52,1.53A1.39,1.39,0,0,0,962.44,543.18Z" transform="translate(-697.69 -527.25)"/><path class="cls-89" d="M966,547.54c0-.63.54-1.22.17-1.89C965.75,545.64,965.71,546.85,966,547.54Z" transform="translate(-697.69 -527.25)"/><path class="cls-90" d="M965.94,543.31c-.25-.4-.55.83-.79.13-.13.34.17.72.3,1.09A2.36,2.36,0,0,0,965.94,543.31Z" transform="translate(-697.69 -527.25)"/><path class="cls-91" d="M993,539.58c-.22-.17-.46,0-.69.35.1.22-.07.42-.14.62C992.59,541,992.79,540,993,539.58Z" transform="translate(-697.69 -527.25)"/><path class="cls-92" d="M994.67,536.78c-.49-.07-.71.42-.72,1.2C994.24,538.39,994.67,537.09,994.67,536.78Z" transform="translate(-697.69 -527.25)"/><path class="cls-93" d="M998.89,539.3c-.19-1,.42-.77.84-1.4-1.37,0-2.29,1.19-3.79,1.54C996.91,540,997.9,539.46,998.89,539.3Z" transform="translate(-697.69 -527.25)"/><path class="cls-94" d="M999.36,538.92c.39.6.84-.3,1.26-.52C1000.21,538,999.8,538,999.36,538.92Z" transform="translate(-697.69 -527.25)"/><path class="cls-95" d="M1002.42,538.58c-.06-.72-.88-1.17-1.35-.13C1001.52,538.5,1002,539,1002.42,538.58Z" transform="translate(-697.69 -527.25)"/><path class="cls-96" d="M1003.37,541c.33-.87.56-.9.29-2.09-.13,1.42-.94.42-1.4,1.14C1002.82,540.14,1003,540.6,1003.37,541Z" transform="translate(-697.69 -527.25)"/><path class="cls-97" d="M1004.21,528.41c-.17-.55-.36-.45-.54-.68-.23.29-.13.89-.36.59C1003.14,529.27,1004,528.85,1004.21,528.41Z" transform="translate(-697.69 -527.25)"/><path class="cls-98" d="M1008.57,537.49c.33-1,1.48,0,2.19-1.26a.74.74,0,0,1-.09-.65c-.55.51-1.07.39-1.62,1.11-.54-1.09.28-.73.28-1.66-.25-.7-.57,1.26-.81.56-.19.23.46,1.54-.15,1-.12.12-.07.27,0,.42Z" transform="translate(-697.69 -527.25)"/><path class="cls-99" d="M1007.53,527.26a3.45,3.45,0,0,0-2.18.84A2.08,2.08,0,0,0,1007.53,527.26Z" transform="translate(-697.69 -527.25)"/><path class="cls-100" d="M1012.19,537.42c-.17-.85-.06-1.35.51-1.64-.44-.52-.91,0-1.37.29C1011.7,536,1011.66,537.46,1012.19,537.42Z" transform="translate(-697.69 -527.25)"/><path class="cls-101" d="M1013.77,534c-.76-.39-.92.3-1.6.69C1012.68,535.2,1013.23,534.47,1013.77,534Z" transform="translate(-697.69 -527.25)"/><path class="cls-102" d="M1014.89,534.52c0,2.32,1.65-.39,2.36.44.15-.34-.27-.74-.08-1.07C1016.42,533.76,1015.6,535.81,1014.89,534.52Z" transform="translate(-697.69 -527.25)"/><path class="cls-103" d="M1017.11,532.41c-.77-.8-1.61.7-2.42,1.24C1015.46,534.34,1016.29,533.06,1017.11,532.41Z" transform="translate(-697.69 -527.25)"/><path class="cls-104" d="M1017.74,530.14c-.36-.61-.77.76-1.14.31C1016.5,531.58,1017.42,530.42,1017.74,530.14Z" transform="translate(-697.69 -527.25)"/><path class="cls-105" d="M1017,531.76c.63.34,1.25,1.06,1.94-.44C1018.28,532.24,1017.68,530.79,1017,531.76Z" transform="translate(-697.69 -527.25)"/><path class="cls-106" d="M1018.62,534.67c.51.68,1.06-.1,1.62-1.11-.64-1,.18-1.91.61-1.42.28.85-.3,1.07-.61,1.42.27,1,.61-.4.89.51a10.13,10.13,0,0,1,2.52-4.62c0-1.5-1.56,1.06-1.64,1.95,0-1.24-.85-.31-.52-1.52C1020.6,531.13,1019.85,532.68,1018.62,534.67Z" transform="translate(-697.69 -527.25)"/><path class="cls-107" d="M1023.67,532.62c.3-.14.63-.92.92-.75.06-.35-.12-.72.15-1-.22-.22-.44-.26-.66-.48-.33.54-.12,1.86-.72,1.2C1023.23,531.88,1023.53,532.26,1023.67,532.62Z" transform="translate(-697.69 -527.25)"/><path class="cls-108" d="M1025.27,531.93c-.44.45-.33,1-.61,1.42A.9.9,0,0,0,1025.27,531.93Z" transform="translate(-697.69 -527.25)"/><path class="cls-109" d="M1026.07,531.8c.12-.8,0-.84.49-1.22-.36-.68-.77.4-1.14.31C1025.18,531.88,1025.92,531,1026.07,531.8Z" transform="translate(-697.69 -527.25)"/><path class="cls-110" d="M702.2,581.86c-.33-1.2-.67-.43-1-.27-.74-2-1.86-1-2.25-1.84-.51.87.57,1.6.78,1.53-.45,1-.9-.71-1.35.32-.17-.5.35-1-.11-1.48-.19.39-.38.16-.57.6.92.18-.38,3.74.56,1.09,1,.24,2-.09,2.93,1,.44-.89.59-.56.79.26.1-.27-.14-.56,0-.84.42-.41.13.81.56,1.09.09-1,.33-.86.91-2.46C703,580.49,702.62,581.42,702.2,581.86Z" transform="translate(-697.69 -527.25)"/><path class="cls-111" d="M708.12,590.06a1.43,1.43,0,0,0,1.8.13c-.41-.45-.13-.85-.44-1.29C709.27,590.66,708.64,589.42,708.12,590.06Z" transform="translate(-697.69 -527.25)"/><path class="cls-112" d="M1071.52,540.9c-1-1-2.49-.76-2.72-3.44-.47,1.16-1.3.65-1.42,2,.14.22.3-.18.46-.38.21.82-.06.55-.37,1-.27-.83-.57-1.06-.88-.93a1.22,1.22,0,0,1,.16-1.46c-.28-.16-.56,0-.58.57-.68-1.54-2.3-.25-3.42.51-1.21-2-2.58.7-3.92,2.15l-.21-.45c.57-2.23,1.83-2.28,2.5-3.76-.2-.62-.45-.12-.65-.91-2,2.27-3.16,1.39-5.07,2.88-.06-.22,0-.42-.1-.64a4.17,4.17,0,0,0,2.12-2.33c-.28-.66-.61.08-.89-.51.12.9-.19,1.1-.59.58a4.51,4.51,0,0,1,0,1.68c-.65-.52-2.14.21-1.87,1.93-.29.66-.1-1.32-.55-.69-.06-.43.46-.41.27-1.24-.46-.16-.89,1.45-.75,2-.31.29-.23-1.12-.52-1.53-.61.58-.24,1.24-.62,1.84s-.37-.69-.2-.87c-.46-.42-.38.92-.49,1.23a2.12,2.12,0,0,1-.64-1.33c.29-.77.55-.5.83-1-.66-.78-1,.73-1,1.6-.8.17-1.53.22-2.1,1.9-.57-.62.09-1.11-.17-1.7.46-.32.92-.45,1.38-.72a2.59,2.59,0,0,1,.08-2.52c-.28-.46-.56,0-.58.58,0-1-.54-.1-.64-1.34-.64,1.11-1.22,1.05-2.07,1.07-.15-.62.63-1.06.8-.13.12-.13.07-.28,0-.42l.24-.4c-.43-.79-.91,0-1.37.29-.2-.87.07-1.69-.14-2.55-.26.88-.27.47-.72,1.19-.41-.53-.27-1-.52-1.52-.29.32-.24.68-.37,1-.31-.45,0-.84-.41-1.3a2.89,2.89,0,0,1-2,.22c-.27-1,.28-.52.61-1.42-.32-.59-.7.67-1-.31,0,.35-.27.68-.15,1.05-1.63-.9-3.36,1-5,.35-.13.27.09.57.2.86-.28.53-.56,1-.83,1-.36-3.36-2.23.78-3.17.11.35-3,1.55-2.09,2.48-3.35-.47-.69-1.08.78-1.22-.75l-.72,1.2c-.27-.38-.2-.73-.3-1.09.3.06.63-.88.92-.33-.15-.94.29-.51.38-1.44-.47-1.68-1.12,2-1.59.27-.54,1.14-1.1,2.29-1.58,3.43-.44-.6-.19-1.14,0-1.68-.34-1.1-.74-.34-1.12-.53a2,2,0,0,1-.5,1.64c.22.26.47-.44.66.49-.39.48-.77.44-1.13-.11l-1.07,1.79c-.15-1.25.23-1-.53-1.11-.53-.61.28-1.1-.17-1.7-.21,2-.82,1.37-1.57,3a8.2,8.2,0,0,1-2-1c-.56,2-1.23,2.32-2,3.4-.5-.62.41-1.09.28-1.67-1,.12-2.13,2.93-2.63,4.39,1.05.55,1.43-2.23,2.12-2.75a1.35,1.35,0,0,1,.08,1.07c.29.41.76-.89.5-1.22.91,1.71,2.85-3.24,4.1-.87-.83,2.42-2.57,2.48-3.69,2.17-.77,2.89-2.37,2.58-3.83,2.8a12.92,12.92,0,0,0,.8-3.72c-.33.87-.62.43-.94,1.17-1-2.33-1.42,1.17-2.35-.86a6.88,6.88,0,0,1-1.74,1.31c.3.38-.08.7.08,1.06-.31.29-.61,0-.93.76-.5-.83.15-1.28.49-1.22-.09-1-1.41.18-1.39,1.13-.45-.11-.93.71-1.35-.56-.63-.15-1.34,2-2,1.3-.39-1.24.32-2.37.68-3.53-.82.11-1.21,1.84-2.31,1.47-.39-.85-.17-1-.65-.91-.39.76.69.33.3,1.08.34.1.67.26,1-.11.15,1.1.05,1,.66.91.1.29-.13.55-.26.82-.31.35-.56-1.17-.87-.93,0,.35-.27.68-.15,1-.39.32-.75-.14-1.13-.11-.15-.57,0-.78.26-.82.22-.2.08.36.31.67a3.37,3.37,0,0,0,0-1.91c-1.61,3.26-3.12,3.09-4.67,4.62-.16-.3-.32-.6-.2-.87a3.39,3.39,0,0,1-2.1,1.91c-.08-1.09,1.16-1.58,1.09-2.22.3,1,.59.46.12-.2a5.63,5.63,0,0,1-3.44,1.36c-.34-1.45,1.21-.88,1.21-2.42-.44,0-.58-.42-.81.55-1.47-1.17-4.19,2-5.73,2.41-.33-.59.9-1,.27-1.66a2.16,2.16,0,0,1-1.3,1.77c.33.24.66.61,1,.32.07.21,0,.41.1.64-.71.72-1.34-.85-2.06.64-.21-.37-.08-.71-.31-1.08-.56.95-1.06.24-1.6.68a1.32,1.32,0,0,1-.08-1.06c-.26-.34-.55.6-.79-.29-.24.26-.14.55,0,.85a13.83,13.83,0,0,0-5.56.52,1.25,1.25,0,0,1,.26-1.24c-.34-.13-.69.35-1,.11-.56.51.21,1.14-.28,1.66-.5-.89-1-.56-1.59.27-.31-.46,0-.85-.42-1.31-.21.47.06,1-.15,1.46-.61-1.23-.52.09-1.37.3-.31-.46,0-.85-.41-1.31a1.39,1.39,0,0,0,.08,1.07c-.73.58-2.24-.9-2.2-2.33-1.07.74.84,1.3.15,2.55-.38,0-.26-.61-.75-1.13-.54.79-1.16,0-1.41,1.55-.49,0-1.06.11-1.21-1.17l-.59,1c.39,1.15.16-.88.55.27-.33,1.55-2,.35-3,1.4.17-.84.09-1.56.62-1.84-.76-1.21-1,1.57-1.75,1.73-.49-1.38-1-.22-1.59.27-.61-1.21-1.26-.69-1.91-.39-.15-.93.59-.3.81-1-.21-.65.34-1.23.18-1.88-.65,1.23-1.54,1.39-2.12,2.75-.18-.41-.46-.06-.89-.51-.23-1.24,1.35-.16.5-1.64.36-.83.67.29,1-.53-.31-1-1.29.66-1.22-.75-.38.73-.78.38-1.39,1.13.06-1.72-.65-.06-1.21-1.17-.72,1.21-1.38.8-2.08,1.49,0,.86.53,1.52.87.93-.08,1.45-1.06.56-1.48.49a1.92,1.92,0,0,1,.38-1.44c-.07-.7-.39-.74-.4-1.73-.07,1.89-.67.47-1.3,1.78-.15-.43-.48-.24-.32-.67-.41-.67-.17,1.36-.57.16a3.09,3.09,0,0,1-.06,2.1c-.54,0,0-.71-.41-1.3a2,2,0,0,0-.16,1.46c-.19.06-.37-.3-.57.16-.58-1,.38-1.8,0-2.75a4.53,4.53,0,0,0-.28,1.66c-.4.91-.72-1-1.14.31-.41-.53-.27-1-.52-1.52-.52.82-1,.25-1.47.07-.31,1.44-1.14,1-1.73.89-.3-.46.6-.79,0-1.27-.53,1.28-1.08.59-1.83.67-.48.45.19,1-.16,1.47-.66.19-.09-1.26-.63-1.75-.3,0-.42.25-.47.8-1.06-2.42-2.3,1.1-3.39-.33-.41,1.4-.65,1.16-1.41,2-.21,0-.33-.84-.78-.7-.1-1.07.69-.52.94-1.18-.68-.7-1.22.14-1.72.89-.56-.4-.29-.88-.63-1.75-.45.27-.7-.35-.93.76l-.42-.88c.17,1.15-1,1.54-1.48.07-.38,1.52-.69.84-1.26.51-.47.73.05.25.21.86-.28.54-.53,0-.8.14-.42-1-.12-1,0-1.68-.49,0-1-.32-1.42-1.62.11-.26.23-.3.34-.17-.06-.81-1.11-.46-1.57-.57,1.18.68.94,2,2.08,2.51-1.09,1.74-1.19-1.33-2-1,0,.92.84,1.91.71,2.81-.29-.83-1.06-.72-1.3-1.81-.33.88-.36,1.79-.65,2.68.16-1.5-.41-1.44-.84-2.19-.21-.58.5-1.08,0-1.69a3.18,3.18,0,0,0-.28,1.67c-.3,0-.7-.79-.46.38-.34,0-.66-.65-1-1.15,0-.65,1,0,.83-1.4-.62.71-3.37,2.38-2.83-.06-.34-.1-.7.89-1,.12-.51,2-1.69.32-2.56,2.29-.18-1.41-.89-.55-.63-1.75-.37-.36-.31,1.07-.83,1.4-.86-.17-1.71-.82-2.61.38-.08-1.18-.83-.88-.91-.08-.3-1.15-.66-.44-1-1.15.09.7.26.72.4,1.73-.44.1-.93-.78-1.09-1.37-.59-.24-.33,1.22-1.13-.11,0,.35.12.72-.14,1,.5-.24,1,.11,1.44.77a15.89,15.89,0,0,0-2.48-.23c-.06-.21,0-.42-.09-.64.39-.37,1.08.55,1.15-.74-.58-.69-1.13,1-1.91-.39-.16.31-.32.6-.47.38a1.4,1.4,0,0,0,.09,1.07c-.51.69-1-.13-1.49.49-.4-.46-.11-.86-.41-1.31-.45.51.22,1.07-.37,1-.42-.58.28-1-.31-1.08-.32.32,0,.71-.14,1-1.71-2.64-3.88-.25-5.28-1.55-.18-.44.34-.81.26-1.24-.63-.46-1.32,1.41-1.91-.39a1.36,1.36,0,0,0,.08,1.06c-.25.75-.46.21-.7.78-.28-.38,0-.71.14-1-.32-.59-.68.05-1-.3-.12.26.1.57.2.86-.24.7-.45,0-.69.35,0-.35.17-.69-.08-1.06-.16.26-.32.53-.47.8-.31-.45,0-.84-.42-1.31a8.24,8.24,0,0,1-3.29.33l.32.66c-.3,0-.63.89-.92.34-.28-.38,0-.71.15-1-.66-.56-1.86.46-2.18.85-.16-.89-.42-1.11-.89-.51.56.86,0,.85-.26,1.24,1-.34,1.46.91,2.59.46.13-.39-.11-.18-.21-.44.25-.92.43.56.69-.36a6.42,6.42,0,0,0,.85,1.77c-1.3-1-3.13.67-4-.81-.08.21,0,.43-.13.63-.45.4.11-.8-.31-1.09-.73,1.68-1.38.59-2,.23-.21,1.15-.68,1-1.15.74a4.48,4.48,0,0,0,.3-2.5c.34-.24.9.13.93-.76-.44.11-.45-.09-.66-.91-.2.94-.5.71-.6,1.42-.39.3-.74-.53-1.15.32-.42-1.57-1.44-.8-2.25-.21,0-1.28-.41-1.2-1-.31a1.31,1.31,0,0,1,.14-1c-.74-.65-1.53.72-2.27.22-.21.4.27.87,0,1.26-.24.56-.42-1.12-.67-.07a1.37,1.37,0,0,1-.09-1.06c-.36-.22,0,1.17-.58.58a1.33,1.33,0,0,1-.19-1.28c-.58.57-1.59-.64-1.83.67-.31-.45,0-.85-.42-1.3,0,1.3-.59.16-.57.16-.8.12-1.09,1.77-1.94.45-.17,1.23-1.1.57-1.6.7,0-.36.16-.69-.09-1.07-.37,1.35-.9,0-1.51,1.34-.19.87.56,1.16.78.7.2.2-.54.93-.7.79-.23,1,.5.28.66.48.11.36-.2.68-.36,1-.19.1-.62-1.37-1.13-.1-.28-.52-.55-1-.3-1.51-.4-.78-.84.3-1.23-.75-.11.55,0,1.29-.48,1.23a6.1,6.1,0,0,1,2-3.41c-.38-.17-.74-.67-1.11-.94-.17.4-.24,1.26-.58.58-.12.34,0,.7-.14,1-.52.53-.28-.52-.76-1.13.05,1.78-1.95,1.87-2.16,0,0,1-.48,0-.82,1,.36.79.76-.26,1.12.53,0,.79-1,0-1.35-.13a2.39,2.39,0,0,1-.49,1.23c-.28.46-.25-.68,0-.85-.39-.35-.44,1.07-.15,1.47.27-.29.52.27.8-.56.1.43.1.85.2,1.28-.55.57-1-.76-1.58-.14-.1-.83.83-2.3.07-2.53.11,1.15-.17.57-.6,1,0-1.25.4-.53-.42-1.3-.06.81-.1,1.09-.6,1.42-.16-1.62-.86.49-1.33-1,1.37-.12,2.46-1.36,4-.26-.54-1.47,1-.57.85-2.25-.17-.42-.37-.22-.54-.68-.24,1.36-1.17.28-1.35-.55.3,1.24-.55,1.06-.17,2.3-.3-.09-.62.58-.91-.08s.91.15.14-1c.25-.92.44.57.69-.36-.21-.37-.08-.71-.31-1.08-.68,1.35-.85.25-1-.73-.05,1.77-1.46.5-2.17.86-.25.77,0,.55.31,1.08-.78,1.36-2,0-2.41,1.26-.45-.54.08-1-.08-1.49.61,0,1.22-.24,1.81.17a2.42,2.42,0,0,0,.05-1.68c-.17.42-.31.2-.45,0a1.63,1.63,0,0,0,0,.85c-.61-1.33-2.32-.17-2.74,1,.32-2.11-.8-1.09-1.06-2.63-.2.35-.39.35-.58.16-.23,1.12.51.25.66.9.18.89-.49,1.42-1.09,2.64-.5-1.2.5-1.17.51-2.06-.55-.86-.45.07-1,.54a4.63,4.63,0,0,1,.08,1.48c-.28.3-.51-.7-.8.14.47.89,1-.83,1.45.77.59-.83,1.18-1.53,1.74-1.32.19.53-.52.31-.69.36-.19.62.34.76.44.34-.1,3.62-3.28.15-5,1.35-.48-.52-.33-.82-.87-1.35.82-.4,1.28.48,2.29-1-.46-1,.06-1-.63-1.75,0,.71.42,1.44-.28,2.09-.75-.05-1.5-.55-2.26-.21a1.34,1.34,0,0,1,.19,1.29,2,2,0,0,0,1,.3,2,2,0,0,1-.71,1.2.74.74,0,0,1,0-.84c-.64-.62-.19,1.19-.92.76a17.21,17.21,0,0,0,.16-1.89c-.82,1.53-2.33-.16-3.21,1.4-.15-.51.15-1-.3-1.51-.42.46-.82-.14-1.27.95a2.59,2.59,0,0,1,.42,1.3c-.54.45-1.06,0-1.6.69-.25-.85.42-2.4.93-1.18-.24-.65.2-1.24-.06-1.9-.49,1.45-1,.82-2,1.72.24.89.54-.35.79.28-.05,1-.67.12-1.05,1-.21-.36-.08-.71-.31-1.08-.3,2.26-1.32-.17-2,.88-.29-1.59.89-1.05,1-2-.11-.2-.23.08-.34.19-.5-.47.3-.82-.2-1.29-.41.61-1-.13-.82,1-.4.9-.74-.48-1.13-.1-.08-.56.14-1.35.48-.8-.06-1.47-1.48,1.07-1.56-1l-.71,1.21c.27.37.2.72.31,1.08-.45.47-.44-.33-.66-.91-.72,1.63-1.37,0-2.58-.86-.69,1.13-2.13-.71-3.18.13,0,1,.48.28.78.7-.18,1.11-1.3.77-1.83.68-.17-1.06.71.06.59-1a2.73,2.73,0,0,1-.64-1.32c-.28.4-.8,1.64-1.2,2.42-.52.27-.37-1.13-.75-1.55-.27-.16-1.15,1-1-.3-.9,1.08-1.76.69-2.62.4-.51-.68.44-1.23-.07-1.91-.66.57.17,1.28-.38,1.87s-.53-1.12-.86-1.77c-.32.4-.6-.23-.91-.08a2.18,2.18,0,0,0-.41-1.72c0,.31-.16.89-.35.6-.28.57.34.1.43.88-.32.73-.61,0-.91-.08-.25.53.42.8.55.68a9,9,0,0,1-.15,1.47c-.43,0-.43-.77-.69.36-.47-1,.14-.74.15-1.47-.45-.61-.42.46-.59,1-.53.31-1.05-.26-1.58-.14,0-.63.36-1.23.39-1.86-.5-.36-.94-2.07-1.56-1.4-.42-1.32-.51-2-1.53-2.25.29.45.68.52.65,1.33-.35.57-.69.24-1,.11-.24.41.14.86-.26,1.25.44-.06,1.25,1.16,1.36.12a2,2,0,0,1-.16,1.46c-.39.08-.24-1.2-.79.14-.5-.46.3-.81-.19-1.28.06,1.28-.56,1.18-1,.54-.3.78.13,1,.43.88-.2.39-.38.16-.58.59-.12-.51-.78-1.06-.53-1.53-.2-.13-1,1.09-.78-.28-.37-.42-.61,1.83-1.17,1.16-.11-.36.21-.68.37-1-.57-.18-1.58-1.43-1.81-.16-.17.16-1-.28-.43-.88-1,.08-2.32,1.32-2.7,3.77-.27,0-.53-.2-.8.14-.43-.74.43-1.37-.17-2.13.55-.79.54-.22.9.08a1.75,1.75,0,0,0,.28-2.08c-.11.2,0,.42.1.64-.35.36-.71.84-1,.12s.35,0,.48-.8c-.28-.91-.62.53-.9-.5-.24,2-1.46.49-2.25-.63-.38.73-.71,2.16.05,2.33-.16-1.1.3-.69.69-.36.11.38-.19.37-.34.18.17,1,1.35.37,1.91.8-1.85,1.32-4.61,0-6.82.66-.11-.29.12-.55.25-.82-.3-.33-.59-.52-.92.34-.15-1.36-.45-.22-.88-.92-.33-.52.76-.92.15-1.46-.44,1.34-.66.52-1.48.08-.36,1-.8,1.71-1.37.3-.4.93-.76.22-1.16,1.16-1.14-3-3.34-1-5.38-2.58,0,.94-.5,1.67-.69.37-.47.45-.36,1-.38,1.45-.15.07-.31.16-.45-.05a3.31,3.31,0,0,1,.38-1.86c-.63-.88-.19,1.74-.91.34-.21,1.49-.4.94-1.05,1-.22-.52.07-1,.38-1.45-1.11,1.05-2.75-.06-3.58,2.44-.54.42-.53-.27-.89-.5-.3-.66.31-1.24-.07-1.91a2,2,0,0,0-.27,1.67c-.55-.28-.42.42-.92.76-.32-1.14.44-2.52,1-2.44-.23-.34-.11-.65,0-.43-.75-1.26-1.81-2.67-3.06-.47-.4-.6.55-1.08,0-1.68-.42,1.16-1.51-.28-2.26-.2-.23.33-.12.7-.37,1,0-.36.16-.69-.09-1.07-.41,0-.14.28-.47.81-.09-.29.16-.55,0-.85-.47-.91-1-.21-.93.77-.1-.29-.22-.35-.33-.24-.11-.29.12-.56.24-.82-1-.14-2.68-1.82-3.4-.29-1-1.24-.76.32-1.35-.54-.61,1.61-1,1.3-1.75,2.17-.71-.16-1.41-1.08-2.13-1.24-.11-.29.13-.55.25-.82-.34-.12-.67-.45-1,.12-.4,2.28-2.62-1.09-3.76.33a30.34,30.34,0,0,1,4,1.37c-.46.51-.91,0-1.36-.11-.19,1,.59.29.78.7l-.71,1.21c-.21-.37-.08-.71-.31-1.08-1,.47-1,2.43-2.08,1.51-.09-.74.76-.83,1.05-1.39,0-.49-.29-1-.08-1.48-.24.29-.85,2.84-1.75,1.76a1.27,1.27,0,0,1,.26-1.25c-.46-.79-.92,1.74-1.62,1.13-.46-.6.34-1.1-.19-1.7-.12.13-.07.27,0,.42,0,.57-.61,0-.48,1.23-.2-.2-1-.54-.81.56-.26-.19-.54.31-.79-.27,0-.78.79-1.48.62-2.27a6.38,6.38,0,0,0-1.05,1c-.31-.45,0-.85-.43-1.3-.68.24-1.36-.12-2-.17-.23-.52.44-.22.59-1-.87-.71-1.1,2.18-1.95.48-.23.17-.48,1.3-.7.78-.27.58.35.1.44.89l-.35.6c-.67-.86-1.36-.08-2-1,0-1.08.93-1.14,1.26-.11.31-.49.62-.84.92-.77-.37,0-1.23-1.58-1.82-.15-.45-.67.15-1.25-.3-1.92-.46,1.47-1.81,1.24-2.87,1.24-.25-.79.35-.22.47-.8-.49,0-.26-.73-.66-1.32-.62.58-1.21,0-1.83.69-.82-1.37-.83.22-2.08,1.52.5-.09,1-.55,1.48-.09.24-.26.14-.55,0-.85a.57.57,0,0,1,.91.08c.26.39-.37.53-.47.38.15.69,1.24,2.7,1.8,1.42a1.51,1.51,0,0,0,2.37.82c.26.63.12,1.14.57.26,1.14,1.48,2.31,1.88,3.5,1.34,0,1.45,1.23.42.87,1.76.19-.42.57-.34,1-.55.29.7.6.23.89.92.22-.27.1-.56.24-.83.26.64.51,1.17.79.28.19.33.36.93.56.68.31.44-.6.79,0,1.26.47-1.6,2.43-.71,2.84.45.4.52.14-.64.47-.81.11-.12.22,0,.34-.18.42.52.12,1,.54,1.52.76-1.28,2.21,0,3.29.48.28-.77.53-.51.81-1-.55-1-.46.72-1,.12.28-.65.2-.46-.08-1.48.75-1.31,1.38-.52,1.57.55-.31.75-.58-1-.9-.07.5.06.72,1.3.3,1.92.71,0,1.42.72,2.13.82-.22,1.14-.12.68.43,1.3-.38.24-.76-.12-1.12-.94-.21.4.28.86,0,1.26.42-.27.82.4,1.24.32.29-.54-.13-1.14-.42-1.72.65-.25,1.28.45,1.94-.47a15.89,15.89,0,0,1,0-1.69c.68-.25,0,1.1.53,1.53.11.41-.19.17-.35.6.64,1.5,2.15.69,2.9,2.35.93-1.27,1.82-.28,2.72-.18.29,1.1-.63.88-.72,2.05.67.89.88-1.34,1,.71a3.66,3.66,0,0,0,.05-2.1,2.08,2.08,0,0,1,2.37.42c.28-1.61,1-.93,1.61-.71.1.29-.13.55-.25.82s-.37-.38-.55-.68a.66.66,0,0,0-.13.62l-.23.4c.4.57.84-.63,1.23.74-.28.55-.53,0-.8.14-.16,1.13.66.6.89.93-.77,1.71.87.39,1.44,1.17,0-.66.14-1.86.61-1.84-.33,1,.27,1.09.29,2.34.12-.27.23-.3.34-.18-.18-1.18.57-1,.73-2,.31.19,1.24,1.48,1.92.38.4.6,0,1.13,0,1.69.63.58,1.22.71,1.56,1.39l.47-.8-.43-.88c-.45,1.16-.83-.26-1.24-.32.54-.86,1,.51,1.59-.28-.07,2.56,1.21,1.19,2.09,2.5-.33-.31-.68.27-1-.3,0,1,.88.73,1.23.74a13.51,13.51,0,0,1,.27-1.67c.62-.26.29,1.13.53,1.53.16-.43.31-.21.45,0,0-1.32.58-1.28,1.13.09-.31-1.42.18-.45.72-1.63.62,1.23-.83,1,0,2.11.23-1.54.65-1.08,1-2,.53,1-.67.94-.5,1.64.55.06.67.06,1.05-1,.49.94-.39.46-.26,1.24,1,1.57,1.3-.16,2.28-.64.26.51.12,1,.53,1.52.52-.93,1,0,1.49-.5a15.82,15.82,0,0,1,0,1.69c-.16.38-.3.13-.46.38-.37-.46,0-.85,0-1.27-.68.16-.91.89-1.71.48.48.39,1,1.17,1.46.76.37.63-.62,0-.25.83-.52-.45-1-.29-1.57-.56-.1.27.13.57,0,.84-.44.4-.12-.82-.54-1.1-.2.35-.39.35-.57.16-.1,2.62-1.09-.7-1.72.9-.4-.59.12-1.27-.43-1.3-.34.82.08,1.69-.28,2.51.29.65.61-.09.9.49.11-.26-.1-.57-.21-.86.39-.7.76-.1,1.13.1,0,.78-.37.33-.48,1.22-.46.11-.9-.27-1.37.31-.4-.59.12-1.28-.42-1.3-.79,3-3.21.61-4.66.65-.07-.57.47-1.09.26-1.67,1.35.44,2.69,1.29,4.05,1.2.23-.74-.49-.8-.67-.06-.34-.75-.8-.59-.31-1.5a4.06,4.06,0,0,1-1.14.32c-.09-.57.34-1.1-.19-1.7-.38,1.18-.49.77-1,.54-.42-.53.12-1-.3-1.5-.79-.43-1.81.29-2.3,1.07,0-.35-.22-.73-.09-1.07.34-.55,0,1.08.46,0-.66-.87-1.36-.2-2-1l-.83,1.41a6,6,0,0,0-.64-1.74c-.49,1.39.27,1.41.41,2.14-.43.72-.8-1.51-1.24-.31-.52-.89.48-1.65-.17-2.55-.11.2,0,.43.1.64-.89.67-1.74-.08-2.6-.43-.48.87.24,1.85.64,1.74-.42.36-.88,2.34-1.28,1.36-.18-.81.48-.21.37-1s-.47.49-.67-.47c-.27.79,0,1.1-.6,1.42a1.08,1.08,0,0,1,0-1.26c-.61-.91-.59,1.64-1.15.74-.16-.64.64-1.21.15-1.88-.44.45-.32,1-.6,1.42-.15.08-.3.17-.45,0,0-.68.62-.64.49-1.64-.57,0-.43-.61-1-1.56-1-.86-2.18.13-2.94.16.67-1.47-1.81-1-2.58-1.7.07-1.11,1,.26,1.5-.92-.91-1.11-1.75,1-2.38-.42-.12.28.1.57.21.86-.32,1-.6,0-.92.77-.81-2.15-2-.28-2.46-1.9-1,.89-1.65-.31-2.51,1.06.41.1.12.3.43.88-1.27,1.27-1.59-1.13-1.64-2.88a21.18,21.18,0,0,0-.28,2.51c-.49-.28-1-.2-1.46-.75-.15-.54.49-.47.75-.89-.3,0-1.69-.95-2-.69-.26-.21-.24-1.36,0-.84,0-1-.46-.06-.68-.06-.13.27.1.57.2.86-.93,0-2.32-2.64-3.6-1.56l-.55-1.1c-.23.4-.45-.34-.69.37-.94-2.32-2-.16-2.91-2.35-1,1-2,.11-3-1.3.63-.62.67-1.09,1.17-1.59-1.14,0-2.31,1.34-2.85,0,0,1.8-.82,2.57-.54,4.6-.56-.28-1.12-.88-1.68-1.19,0,1.88,2.07.84,2,3.11-.24.48-.44-.68-.67-.89-.1,1.31-.92,0-1.38,1.15a2.66,2.66,0,0,0-.42-2.15c0,1-.32,1.22-.82,1.83-.35-.83-1-1.94-1-.71-.41-.59-.18-1.3-.66-1.32-.22-.82,0-.55.36-1-.49-.21-1-.46-1.48.09-.38-.73.43-1.37,0-2.1-.2.31-.38,2-.81,1-.08.48-.37.95.09,1.48-.65.43-.55.25-.82,1.41-.25.71-.44-1.18-.68-.47-.54.77.27.86.43,1.3-.3.16-.6-.48-.91-.07-.22-.58.49-1.09,0-1.68-.15.9-.81.33-.57-.26-.7,1.6-1.86.73-2.84-.85,0,.49-.32,1-.36,1.45.48.47.26.48.66,1.32.3-.33.07-.7-.09-1.06,1-.26,1.88,1.08,2.82,1.68-.81.7-1.58-1.05-2.39-.39a4.34,4.34,0,0,1,1.24,1.15c-.47.46-.91-.68-1.38.74-.23-.58.2-1.11-.21-1.7-.19.38-.38.15-.58.58-.29-.37,0-.7.13-1-.22-.43-.46.27-.67-.47-.13,1.2-.86.41-.94,1.61-.61-.74,0-1.4-.42-2.14-.47.62-1.51-.24-1.58-1-.72.72-.7-.61-1.37-.11-.26-.78.35-.22.47-.8-.64-1-1.3-.07-1.93-.78a4.43,4.43,0,0,0-.37,1.87c-.38-.24-1.11.1-1.16,1.17-.5-.46.29-.82-.21-1.28-.34-.28-.69.48-1-.29-.44.52-.16,1-.59,1-.36-.73.55-1.36.49-2.07.27-.6.51,1.42.79.27-.1-1-1-.92-1.48-.32-.41-.46-.12-.85-.44-1.29-.58.69-1.76,1.45-1.94.48-.2-.24-.22.33-.13.62-.42.12-.84.37-1.24-.73-.28.78-.54.22-.81,1,.5-.66,1,1.53,1.48.33.32,1.07-.16,1.46.65,2.16-.67,1.37-.85-.17-1-.29-.46,1,.44.79.43,1.71q.36-1,.69.06c.3-.77.57-.22.58-1-.37-.5-.69,0-.56-1.09.27-.36.52.92.8.27.19.82-.32,1.07.32,1.5-.22-1.46.51.07.91.07.06.2,0,1-.19,1.1.36.29.95,1.29,1.42.88.41,1.85,1.13.71,1.45,2.43.59-.34.52-1.25,1.15-1.17.12.36-.2.68-.35,1,.47,1.38,1,.6,1.46,1.17.18-.54.08-.77-.21-.86.32-1,.8.06.81-1,0,.19.13,1.34.44.87.22.82,0,.55-.36,1,.6.8,1.22-.17,1.8,1.4.24-2.2.83,1.09,1.38-.73-.13,1.3.48.55.55,1.51-.42.13-.84.37-1.24-.72-.4,1.73-1.45.23-2.15-.8a2.94,2.94,0,0,1-.6,1.85c1.12-1.93,3.22,3.22,4.33-.51.72.26,1.44,0,2.15.8.18-.55.08-.78-.21-.86l.7-1.22c.23-.12.46.1.68.48-.36.65-.68-.12-1,1,.33.59.67.55,1,1.13l.47-.8a.73.73,0,0,1,.56.25c.23.51,0,1-.36,1.45.84.44.48-2,1.38-1.16a1.32,1.32,0,0,0-.09-1.06c.23-.35.46-.53.69-.37-.48,1.81,1.28,2.44,1.87,3.31-.67.46-2.32-.94-2.28.66-.68,0-1.35-.8-2-.58-.08,1.2.82.42,1.12.94-.54.53-.54.06-.93,1.19-.25-1.85-.66-.26-.87-2.17-.58.72-.33,1.51-.15,2.3-.44.35-.44-1-.66-1.31-.28.48-.54.21-.82,1-.41-.45-.12-.85-.43-1.3-.52,1-.29,0-.79-.27-.54.61-1.06,0-1.61.72-.45-.52.08-1-.09-1.49.56-.31,1.57.77,1.5-.94-.3-.15-.62.62-.93.78a2,2,0,0,0-.21-.86c-.51.89-.61,1-1,.13-.66.73.05,1.55-.61,2.28-.11.12-.23,0-.34.18-.41-.59,0-1.13,0-1.68-.29-1-.6-.13-.89-.92-.24.27-.14.56,0,.85-.68.46-1.34-1.57-2.05.26-1.23-.82-2.17,0-3.16-1.51-.4,1-.77.21-1.15.34-.14,1,0,1.24-.36,1.87a6.54,6.54,0,0,1,.88,1.75,5.66,5.66,0,0,1,.48-1.65c.5-.25,1,.54,1.49-.52.28.8-.51,1.51-.6,2.28.26.56,1.12-.11,1,1.13.76.38,1.54-1.09,2.27.59-.46.62-.91.19-1.38.74.3.21.61,0,.9.91.14-.88.24-.87.45,0,.9-1.45,1.73.9,2.61.41.45.45-.06.84-.24,1.24.29.79.6,0,.9.5a6.05,6.05,0,0,0-.76-2.38,3.4,3.4,0,0,1,.13-1.05c.26-.06.53.18.79.28.12.42-.27.82.21,1.27.29-.32.23-.68.35-1,.16-.16.3.3.46,0,.26.92-.25.48-.25,1.25-.35.53-.67-.79-1,.13,3.5,1.19,7,1.38,10.5,3.13.26-1.72,1.37-.73,1.58.56.24-.9-.1-1.84.16-2.73.65-.38.57,1.31,1.23.73.11.29-.12.55-.24.83.56.29,1.15-.65,1.7-.07-.71,2.22,1.33,1.36,2.21,3.13.46-.38,0-.85-.2-1.28.91.16.5.36,1.34,1,.14-.34-.29-.73-.09-1.06.22-.13.45.09.67.48a2.35,2.35,0,0,1,.47-1.23c.51-.63.33,1.13.91.07a1.29,1.29,0,0,1-.25,1.25c1.34.73,1.12,1.35,2.81.86a1.3,1.3,0,0,1-.13,1c1.08-1.15,2.11.13,3.18-.59a1.53,1.53,0,0,1,0,.85c.42.08.85-.57,1.28-1.37a.87.87,0,0,1,0,1.26c1.37-.39,2.68,2.07,4.08-.09.42.53-.11,1,.31,1.51-.23.39-.45-.35-.69.36,1.07-.26,2.42-1.41,3.75-.33.18-.91-.88-.72-.19-1.7.58.93,1,1.68,1.55,1.4.37-1.31-.47-.14-.78-.7.44-.9.84-.32,1.26-.53a9.81,9.81,0,0,1-.27,2.09c1.14-.21,2-1.71,3.3-.77.09.29-.16.55,0,.84s.37.22.55.68c.43-.77.22-.82.71-1.2a2.52,2.52,0,0,0,.42,1.3c.58-.4,1.14-.09,1.7-.06.25.56-.37.71-.46.38.4,1.33,1.39-.11,1.73-1.33.57.61,0,1.13-.27,1.67.79.06,1.62-1.62,2.4-.85.22.3-.22,1-.4.63a1.23,1.23,0,0,0,1,1.11c-.18,0-.69.23-.25.82-.23.22-.44-.52-.68.37.35.8.75,0,1.12.51-.14-.57.19-1.61.58-1,.13-.4-.18-.2-.32-.66a2.81,2.81,0,0,0,1.39-1.57c.53.61-.27,1.1.19,1.7.35-.65.92-.61.94-1.6,1,.34,2.05,1,2.7.65,0-.49-.09-1,.37-1.44.35,1.24-.31,1.81.63,2.16-.32.83-.6.21-.91.34,0,1.09,1-.08,1.46.34.05-.35-.12-.71.14-1,.36.47.61.18.88,1.34.43-.46.16-1,.6-1.43.33-.11.62,1.92,1.23.32.31.45,0,.84.42,1.3-.27.54-.53.29-.79.15,1.64,2.23,4.36.43,6.42,1.18a3.39,3.39,0,0,1-.49,1.65c.41.3.84-.35,1.24.31a2,2,0,0,0,.14-1.46c1,.05,2.8,2.22,3.86-.5.31,1-.41.72-.37,1.45a3.65,3.65,0,0,1,1.46.34c.11-.34,0-.71.14-1.05.74-.34,1.94,2.18,2.36.42.26.52.12,1,.53,1.53.34-.23.71-1.19,1-.12.57-2.17,1.93.67,2.85-.8-.1.41.4.88.19,1.28.58-.41,1.16-1.14,1.69.36.24-.54.47-.73.7-.78a2.15,2.15,0,0,0,.2.86c.12-.66.73-.61.45,0,.37-.58,1-.39,1.58.14-.12-.92.18-1,.59-1,.11.29-.12.55-.24.82.55.38,1.13,0,1.68.36-.46,1-.58-.25-.81,1,.33.24.66.6,1,.3.11.37-.21.69-.37,1-.41,0-.79-1.45-1.23-.31.5-.24.25,1.45.76,1.12.12,1-.31,1-.71,1.2-.18-.51.1-1,.15-1.46-.42-.61-.6.44-.81,1-.38,0-.76.29-1.12-.52.83.27.65-1.29,1.27-.94.22-.75-.71-.43,0-1.26.45-.65-.13,1.3.32.66.61-.85.08-.49-.19-1.29.15-.08.3-.16.45,0-.47-.82-2,.29-2.82-.46.21,1.24-.43.21-.48,1.22a2,2,0,0,0,1.6-.7c.21,2.83-1.62,1.8-2.21,2.55-.81-1.13,0-2.11-.49-3.21-.06,1.39-.74-.44-1.15.75.36-.19,1.34.38,1,1.56-.6-1.44-.6.69-1.46-.34-.44-.68.15-1.26-.29-1.93l-.59,1c.16.3.32.6.21.87-1.08.95-2.13.46-3.19,1,.31,1,.67.29,1,.72-.65.66-1.8,1.12-2-.6.29.18.6,0,.92-.76.14-.79-.54-.31-.32-1.08-.71.15-1.35,1.79-1.8-.17-.29.84-.54.29-.8.14,0,.36-.25.68-.13,1.05-.82-.79-2.28.59-2.69-1.08a14.23,14.23,0,0,0-1.48.49,3.71,3.71,0,0,1,.13-1c-.41-.47-.31.78-.58,1a2.4,2.4,0,0,1,0-2.11c-.5-.41-1.15,0-1.32-1.38-.17.83.25,1.71-.28,2.51.69.69.3-1.82,1.14-.75.13.85-.05,1.34-.49,1.65-.87.32-1.69-1.81-2.57-1.28-.3-1.19.39-.66.71-1.2-.36-.64-.76,0-1.14.32a2,2,0,0,0,.21.86c-.31.22-.41-.52-.46.38-.62-.91-1.32,1.25-1.91-.8-.09,1-1,1-1.13-.09-.4,1.78-1.47,1.61-2.16.87-.23.26-.11.55-.25.82-.57-.76-1.24-.18-1.21-1.58l-.82,1.41c-.76-.77.26-1.39-.18-2.13-.51.83-1,.61-1.47.08-.09.7-.57,1.36-.73,2-.29-.87.58-1.64.06-2.53,0,2.06-1.49,1.82-2.17.87-.58.36-.54,1.64-1.15,1.17,0-.75.48-1.58-.2-1.28a2.7,2.7,0,0,1,.6-1.85c-.07-.22-.14-.13-.22,0l-.22-.44c-.37.53-.12,1.11-.49,1.64-.59.58-.48-1.11-1.09-1.78-.43.79-.82-.43-1.25.11.43,1.22.89,1,1.35.53a3.31,3.31,0,0,0,.53,1.53c-.48-.26-.44.7-1-.3-.51.38.26.87-.25,1.24-.47-1.07-1.53-.9-2.35-1.25-.15.53.65.73.89.49.13,1.66-1,1.35-1.49.93-.31-1,.8,0,.47-.8-.55-1.14-.46.71-1,.12.7-2-1.73.15-2.44-1.9-.28.85-1.14,1.27-1.75,2.17.1-1.85-1.76-.37-2,.25-.16-.29-.33-.59-.21-.86-.19.64-.65-.14-1.14.75-.34-1.57-.79-.09-1.59.29-.16-.5.14-1-.31-1.5-1.43,1-2.16,0-3.63.54-.16-.56.14-1-.32-1.08,0,1.69-.79.64-1.12-.51.22,1.3-.54,2.16-1.16,1.59-.18-1.07.71,0,.59-1-.19-.42-.38-.22-.56-.68-.17.54.1,1.06-.36,1-.13-.36.31-.68.14-1-.71-.61-.95,0-.92.77-.57.32,0-1.33-.55-1.11a1.47,1.47,0,0,1-.93,1.61c-.18-1.27-.35-.06-.77-1.11,0,.91-.59.77-.92.34,0-.5.24-.23.14-1-.2,1.31-1.94-.29-1.73,1.76-.41-.63-.85,1.21-1.25.52-.31-.95.38-.62.7-1.62-.41-.38-.83.05-1.24-.32-.22,2.65-1.74,1.26-2.18,1.72.05-.79.61-1.07.82-1.41a.72.72,0,0,1,0,.84c.49.52.36-.59.92-.76-.75-.33-.94-.06-1.56-1.81-.47.45,0,1-.14,1.46-.65-1.59-3.3-.17-4.28-.78-.15.13-.95.75-.59,1.43-.6.89-1.1-1-1.15.75-.32-.59.06-1.12,0-1.69.2-.2.37.39.56.69.37-.81-.25-1.36.48-1.65-.58-.07-.67.53-1.38,1.15a2.31,2.31,0,0,0-.21-.86c-.39.69.23.54.09,1.48-.35.37-.68-.42-1,.56a12.14,12.14,0,0,0,5.17,1.68c.5.46-.29.82.21,1.28.42,0,.3-.48.58-1,.44.88-.31,1.66-.72,2.47-1-.14-2-2.13-3.27-.9-.34,0-.66-.88-1-.72.3,1,.21.83-.46.39-.4.39,0,.84-.25,1.24-.82-1.67-1-.45-1.8-.56-.31-.44,0-.84-.43-1.29,0,.92-.33,1.51-.8,1-.31-.45.59-.8,0-1.27-.16.43-.31.21-.45,0a2.13,2.13,0,0,1-.36,1,5.3,5.3,0,0,1-2.23-1.85c-.22,1.78-.75-.49-1.25.53-.23-.81.43-.22.58-1-.42,0-.84.19-1.24-.3-.23.17-.48,1.3-.7.79.14,1.11,0,1-.59,1.85.87-.18,1.21,1.19,1.92.36.41,1-.29.73.09,1.48a2.1,2.1,0,0,0,.37-1.87c.27-.29.53,0,.8-.57,0,1.39.74.75,1.12.51.28.93-.49.76-.6,1.85.44.21.46-.16.7-.79.13.35.46,1.21,1.1,1.35a3.65,3.65,0,0,1,.71-1.63c.13.71,0,1.4.42,2.14.31-.6.6.11.9.07-.13.48.14,1,.09,1.48a5.4,5.4,0,0,1,3.6.71c.7-1.29,1.34.63,2-.26,1.15,2.29,2.91-1.06,3.69,1.78.24-.75.46-.21.69-.78.29.83.59.88.88,1.33-.46.48-.83-.41-1,1,.21-1.11-.27-.55-.66-.89-.29.87.14.67.43.87-.54,1-1.06.35-1.58.3-.2-.44.52-.65.68-.37-.17-1.11-1.35,0-1.91-.37.25.83.53-.13.78.7-1-.35-1.44.66-2.39.85-.33-.51.76-.92.14-1.46l-.47.81c-1-.94-2.15-.31-2.83.4.67-1.13-.41-.86-1-1.13-.08.54-.37,1,.09,1.06-.8,1.54-.89-.91-1.58.3a3.37,3.37,0,0,1-.08-1.91c-.31-.34-.82,1-.82,1.42-.47.48-1.33-1.48-1.46.1-.2,0-.95-.66-.78-1.12-.44,1-1.69,1.14-2.71.22.6-.43.53-.25,1-1.4-.37-.51-.74-.84-1.11-1.35-.33.22.33,1.52-.13,1-.22,1.09.51,0,.68,0,.08,1.39-1.25,2.23-1.82.71-.75-.15-1.54,2.55-2.27,1.09l-.46.8c-.38-.44,0-.84,0-1.26-.45-.38-.92,1.25-1.36.32-.23-.82.43-.52.58-1-1.28.47-2.47,1.23-3.27-.46-.38,0-.75-.18-1.14.75a.88.88,0,0,1,.1,1.06c-.44-1.07-1.68.22-2.47-1,.27-.53.54-1,.8-.57-.22-.74-1.42-.85-2-1-.53,1,.39,0,.55,1.09-.39.68-.75,0-1.14.76a1.34,1.34,0,0,1-.12,1.05c.29.61.41.1.44.87a.67.67,0,0,0-.46.39c-.56-1.64-.72-1.22-1.44-2,.39-1,.74.66,1.13-.35-.25-.81-.52-.29-.77-1.1.22.86-.82,1.47-1.26,1.38-.11-.29.12-.55.23-.82-.29-1-.59-.12-.89-.91-.19.41.31.86.21,1.28-.79.69-1.57-.43-2.36,0,0,1.11.57-.14.9.48.06.22,0,.43.1.64-.57-.45-.73.36-1.35.75,0,1.2.57.85.78-.16.52.6-.5,1.25.22,1.29-.35.62-1.13.79-.58,1.85.33,0,.45-.47.12-1,.15-.21.3.22.45.45.43-.46.3-1,.57-1.44.67.08,1.35.5,2-.28.8,2.19,1.64.36,2.46,1-.06,1.68-1.26.52-1.37,2,1.25-.59,2,1,3.38-.59.33.95.55,1.75,1.12.51a2.14,2.14,0,0,1-.36,2.28c.18.6.38-.07.56.26-.21-.72.52-1.37,0-2.11.77,1.16,1.58-.35,2.36,0-1,.81-1.7,1.68-1.94,1.74.33,1.56,1.66-.51,2.38-.87,0,1.1.82.85,1.23.73.1-.27-.14-.57,0-.84s.23,0,.34-.19c0,.36-.15.69.1,1.06.94.1,1.89-.7,2.83-.83.06.21,0,.42.1.64-1,.37-1.34,1.08-2.27,1.51.77,1,1.57.23,2.35.81.28-.74-.34-.27-.44-.87.2-.52.38-.39.57-.59.51.65.13,1.7.66,1.74.22-.34.1-.7.35-1-.11-.21-.23.07-.34.18-.26-.5-.18-2.17-.44-.87-.65-1.2.15-1.64.58-1.43-.57.6.64.79.2,1.7.3.41.62-1.07.92-.77.32.82-.5,1.33-.81,1.41-.29.54.26,1.14,0,1.68.41.57.83-.37,1.24.31,0,.93-.46.62-.71,1.63.4,1.24.84-.36,1.23.73.21-.75-.5-.41-.65-1.32.33.05.67-.08,1,.29-.49-.89-.21-1.36-.07-2.32.11-.12.22,0,.34-.19.49.46-.29.82.2,1.29.51-1.34,3.13-.14,2.91,1.49.31-.75.68-.32.69-1.22.58.68.18,1.28.53,1.94-.56-.26-1.13.56-1.69.08A1.78,1.78,0,0,0,736,600c.22.43-.18.83.2,1.28.49-.62,1-1.31,1.69-.08.08-1.08.55-.9.26-2.09.32.93.76-.41,1.34.53-.3-1.56.94-.56.93-1.61.81.7-.49,1.22.08,1.9.36-.83.69-.85,1-.55a9,9,0,0,1-.14,1.47c-1.17.46-2.28-.43-3.16.58.24.83.53-.42.77.7,1.51-2.29,2.9,1.57,4.4-.27,1.39,2.23,4,.19,4.69,2.5a8.66,8.66,0,0,1,1.34.53c.26-1.59,1-.37,1.59-.71,0,.35-.16.69.09,1.06.06-1.1.86-1.08.79-.15,1.26-1.17,2.46.77,3.72.1-.35-.63.28-1,.47-1.23.2.51-.48,1-.37,1.45,1,1.12,2.11-.15,3.16-.16,0,1.58,1.21,1.77,1.45.75.21.79.44.29.66.9.6-2.28,2.85,1.19,4.18-.71,1,2.43,2.84-1.27,3.58,1.16-.33-.27-.68,0-1,.12.23,1.18,1.38-.37,2.25.2.35.23,1.61,1.62,1.68.35.24-.47.44.69.66.9.8-.77,1.58,0,2.38-.85.92.89,2.91.8,4.38,1,37.85,8,75.94,6.9,114.08,5.69.32.52,0,1-.16,1.47-2.81-1.55-5.75.95-8.57-.38-.22.85-.37.74-.82,1-.1-.41.2-.16.36-.6-.44-.53-.93,1-1.35-.12-.35.53,0,1.13-.28,1.66-1.17-2.1-3.11-1.5-4.72-.44-1.27-.37-2.53-1.06-3.84.07a.69.69,0,0,1-.1-.64c-2,1.15-4.8-.5-6.13,1.12-.3-.58,0-.78-.43-.88-.12.27.1.57.21.86-2.53-1.47-4.6,1.13-7.21-.67-.26,1.38-1.53,0-2.15,0-1,0-1.8,1.35-2.26.21a1.59,1.59,0,0,1-2.7-.24c-.52.37.25.86-.26,1.24-.12.48-.7-.72-.43-.88-.63,1.07-1.21,0-1.83.68a.74.74,0,0,1,0-.85c-.82,1.08-1.59.28-2.4.84,0-1.59,0-.17-.65-.9,0,.54-.3,1-.59,1a2.44,2.44,0,0,0-.31-1.09c-.56,1.57-1.63-.64-2.73,1a1.37,1.37,0,0,1-.09-1.06c-1.33.43-4.42-.16-4.76.83-.68.2-1.32-1.23-2,.24-.61-1-1.72-1.67-2-.61-4.22-1-8.12,0-12.5-.92-.22.26-.1.55-.25.82-.33-.64-.46-.42-1-1.15-2.37,1.24-5.6-1.39-8.36.53-.21-.37-.08-.71-.31-1.08-1.06.15-2.13.68-3.17.13,0,.61.27,2.44-.74,2.89-.29-.86,0-1.34-.64-1.74-.15-.67.63-1.46.81-.57.43-1-.73-1.51-.67-.48-1.39-1.68-2.87.54-4.26-1.22-.34,1.44-1.29.91-1.9-.38-.24.26-.14.55,0,.84-1.25-.79-2.54-.33-3.8-1.18-.12.34,0,.7-.14,1-1.82-.84-4.37.49-5.71-1.56-.11.2,0,.42.09.64-2-.52-4,.06-6-1.37-1.45.85-3.82-.21-5.63-.48-.44.45.08,1-.36,1.44-.16.08-.31.17-.45,0,.47-2.29-1.38-1.18-2-1.86-.23,1.13.5.25.65.91.19.91-.52.6-.69.78-.7-2.78-2.24-1.2-3.33-2.4-.44.46.07,1-.37,1.44-.15.17-.29-.29-.45,0-.11-.36.2-.69.36-1-.32-.58-.66-.59-1,.13-1.06-1.6-1,.13-2-1-.2.41.29.87.19,1.28-.11.19-.22-.11-.33-.24-.18.54-.08.77.21.86-.59,1.14-1.14.65-1.73,1.75-.34-.45-.53-.5-.42-1.3-.49,0-1,1.68-1.49.93-.25-.44.37-.82.48-1.22-.36-.62-.69.43-.58,1-.35.62-.66-.92-1-.3-.12-.43.27-.82-.2-1.28-.54,1.57-2.27,1.82-2.26.22-.49.09-1-.69-1.47.52-.58-1.74-1.52.18-1.77-1.42-.64,2.48-2.06-1.49-3,.38-.92-.63-1.87,0-2.79-.86-.31-.62.57,0,0-.84-1.54,1.86-3-1-4.5,0,.18.42.37.22.55.68.09.29-.16.56,0,.85-.67-.25-1.32-1.32-2-1.43-.12.51.18.43.33.65.19.78-.5-.21-.69.79,0-.56-.14-.78-.43-.88-.62,2.36-1.77-1-2.71.62a1.31,1.31,0,0,1,0-1.68c-.28-.79-.59,0-.89-.5-.12.34.18.72.32,1.08-.31.87-.61.61-.91.77a1.29,1.29,0,0,1,.24-1.25c-.79.75-1.57,0-2.36,0-.12-.43.28-.82-.2-1.28-.48,2.15-2.86.45-3.62,1.39-.24-1.06-1.14-.85-.42-1.72-.48-.26-.53.31-.58,1-.47.11-.56-2.06-1.22-1.15.22.74.45,0,.67.47a.69.69,0,0,0-.12.63c-1.12-.16-2.22-1.46-3.37.16a3.91,3.91,0,0,0-.42-2.14c-.35.6.1,1.27.31,1.92-.62,1.67-1.18-1.12-1.8.28-.67-.82.3-1.52-.08-2.32-.42.73-.2,1.52-.37,2.29-.44.73-.43-.85-.66-.48-.12-.36.19-.68.35-1-.39-.32-1,.25-.8,1-.77-1.48-.77-.2-1.32-1.79-.75.78-.81.45-1.57-.12-.11.55.3,1.14-.25,1.66l.55,1.1c.4.06.2-1.09.67.05.23-.26.13-.55,0-.84.69.12,2.86-.19,2.44,1.88.22.5.46-.62.68-.79a1.48,1.48,0,0,1-.36,1.86c.23.28,1.37.25.91-.77.49-.29,1,.68,1.46-.52.2.51-.47,1-.35,1.45.37.88,1.54-.67,1.21,1.15.28.52.41-.62.24-.82a1.25,1.25,0,0,1,1.22.72c.11-.34,0-.7.13-1s.52.19.79-.15a4.06,4.06,0,0,1-.13,1,2.54,2.54,0,0,1,2.91-.19c.25.61-.34,0-.46.81.33.62.68-.29,1,.71.74-1.12.71,1.87,1.45.75-.22-.22-.45-.25-.67-.47.32-1.09.6.31.91-.77.29.37.05.7-.13,1,.19.09.38-.24.56.26.21-1.43,2.13-.44,3,0a.8.8,0,0,1,0,.29,7.17,7.17,0,0,1,3.9.67c.11.36-.2.68-.36,1,.46,1.09.84-.34.81-1,.67-.19,0,1.24.64,1.74.63-.44-.43-1-.09-1.48.94.14,1.9-1.07,2.8.44.37-1.45.78-.73,1.38-1.15.4.45.11.85.42,1.3.73-.84,1.44-.56,2.15-.45.15.8-.6.48-.8.56.45.9,1.31.36,1.92-.47.42.53-.11,1,.31,1.5-.33.68-.8.08-.81,1,1.42.19,2.36-.31,3.63-1.39.61.69-.43,1.23.07,1.91,1.2,0,2.4-.19,3.57,1.14.62-1.34,1-.15,1.35.12.23-.41-.15-.86.25-1.25.85,1.47,2.92-.65,3,1.31,1.4-.12,3.34,1.3,4.39.17.69,1.25,1.43,0,2.11,1.66.51-1.16,1-.05,1.49-1.35.4.46.11.86.42,1.31,2.62.25,5.26,0,7.85,1.52.06-.44.26-.83.09-1,2.1.9,4.2,1.6,6.33.91.53-.49,1,1.1,1.55,1,.1-.27-.13-.58,0-.84.66.49,1.51,1.08,2.47.22l.65,1.32c2.31-.94,4.58,0,6.86.82.07-.2,0-.42.12-.62,4,1.24,8,.61,11.92,1.48.63-1.27,3.34.14,5.06.25.94,0,1.69-.7,2.36.42l.47-.81c.43,1.59,1.48-.45,2.23,1,1.92-1.35,4.62.65,6.89-.42l.43.88c2.93-1.28,5.77.71,8.7-.69,1.24,1.4,2.58-.6,3.82.77.78-1.18,1.49.37,2.27-.64,2.08,1,4.2.65,6.31.16,4.65.7,9.35-.65,14,0l.47-.8c.21-.2.2.37.1.64,2.49-.59,4.28-.39,6.8-1.06l.43.88c.47-.1.2-1.53.92-.75.11.41-.19.16-.35.59.3.28.79.1.8-.55,18.33.5,36.15-3.27,54.44-4.39l.36-.59c2.46.67,5-1.4,7.46-.14.44-.25.84-1.66.91-.34a1.26,1.26,0,0,1,2-.22l.48-.8c.86.1,1.71.42,2.61-.39,4.14,1.1,8.4-1.62,12.52.56l.47-.79a1.24,1.24,0,0,0,2.27-.21c.21.37.08.71.31,1.09.32-1.58.69-.58,1-.12,1.1-1.29,2.41-.93,3.86-.89a1.37,1.37,0,0,1,.09,1.06c.34.21.41-1.49,1-.53.11-.2,0-.43-.09-.65.35-.36.66.43,1-.53a.74.74,0,0,1,0,.84,2.41,2.41,0,0,1,1.84-1.09c.3,1.09-.39.55-.71,1.2a34.62,34.62,0,0,1,4.13-2.14l.53,1.11c-.12.95.33-.51-.2-.87.65-1,1.21-.76,2.08-1.49.14.92,1,.59.42,1.31.37.34.39-1.22,1.12.11.54-.85-.27-.68-.42-.88.82-1.08,1.58,0,2.41-1.25.1.29-.13.55-.25.82.21.26.46-.44.66.49-.19-1.18.41-.46.83-1.4,1.94,1.66,4.2-2.69,5.89-.28.39-1.89,1.6-1.52,2.32-1.89-.05,1.35-1,.33-1.4,1.14.18.42.37.22.55.68-.66.55-1.34,1.76-2,2.13.1-2.19-1.69-.06-2,.23,1.29,1.09,3.44.4,4.68-1.45.11.36-.21.68-.37,1,.7-.25,2.15-.22,2.21-2.11.44-.39.27.84.53,1.11,1.32-1.31,2.13-1.29,3.59-2.82,1.73.06,3.47.06,5.26-2,1,.33,2.66-.63,3.34-2,2.19.92,6-4.36,8.86-1.25-.67-2.69,1.71-1.46,1.59-3.86.59.22,1.27-2.24,1.83-.66q3.66-3.48,7.13-.37a3.37,3.37,0,0,0,.52-2.06c.38-.24.74.12,1.1.95.37-1,.69-.49,1-.53.17-1.15.49-1,.74-2-.21-.57-.46.33-.67-.06,1.51-1.44,4-1.39,5.74.77.24-1.54.9-1.87,1.63-1.53a12.56,12.56,0,0,1,5.16-5.84l.64,1.34c-.17-1.37,1-1,1.52-1.75a1.5,1.5,0,0,1,0,.84c1.64-.56,3.17-.85,4.5-2.73,1.72-.42,4-1,5.43-3.48,1.15.24,3.33-2.21,4.28-3.17a21.85,21.85,0,0,0,4.24-5.07c-.43,0-.43-.75-.64-1.33.33-.64.61-.11.93-.75-.55-.43-.8.36-1.11-.54-.58,1.45-1.51-.64-1.73.89-.27.41-.5-.85-.75-1.13a5.8,5.8,0,0,1-2.16.42,20.07,20.07,0,0,0,1.89-2.77c-2.69.49-6.35.78-9.5,3.5-.31.24-.6-.06-.88-.5a3.84,3.84,0,0,0,.07,1.06c-.34,0-.68.31-1,.53-.46-1.94-1.82,1.14-2.46,2.5-.31-.73.19-1.39.52-2.06-.32.25-.79-.36-.75-1.13.57-.89.67-.09,1.06-1.37-.25-.65-.57,1.33-.8.14-.42.37-.16.83-.49,1.21-.15.08-.3.17-.45,0,0-.7.52-1.36.52-2.06.12-.12.22,0,.34-.18-.28,1.28.7.32,1.13.11.21.37.08.71.31,1.09,1-.62,1.23-2.78,2.13-3.17.08.78-.79,1.47-1.09,2.21a1.08,1.08,0,0,0,1.07-1.37c1.06.76,2.21-1,3.34-2-.66-.69-1.39.94-2.08,1.49.44-2,1.81-2.6,2.53-1.44.9-1.09,1.8-2,2.64-1.22,2.77-2.76,5.42-1.82,8.17-4.06-.57-1-1.2-.33-1.75-1.86-.66.39-1.3.31-1.9-.82-.23.26-.11.55-.26.83-.44-1.45-1-.13-1.44-.78a1.52,1.52,0,0,1,.38-1.44c-.57-.89-1.21.11-1.8-.18-.45-.54.25-1-.06-1.48-.87-.67-1.38.91-2.42,1.23-.27-1.17.92-2,1.33-2.61-.19,0-.37-.28-.55-.68-.11.19,0,.42.1.64-.47.51-.71-.4-.93.75-.21-.37-.08-.71-.31-1.08a2,2,0,0,1-2.27.2,1.84,1.84,0,0,0,0,1.68c-.24.53-.48.73-.7.78a16.71,16.71,0,0,1-.37-2.58c.91-.21,2.31-1.8,2.6-3.54,1.41-.42,2.82-1,4.19-.22-.32-1.7.72-1.1,1.28-.93.14.9-.59-.08-.81.55.57,1,1.23-.85,1.84-1.09.42.59-.28,1,.31,1.09.16-1.43,1.72-1.41,2.52-1,.7-1.3,1.47-.66,2.42-1.24.11-1.43-.81-.34-1.12-.53.8-.82,2.74-2.34,4.11-.86,1-1.72,4.2.13,4.53-3.57.82.53,1.17-1.33,1.83-.66,0,.72-.45.47-.38,1.44a8.84,8.84,0,0,0,3.84-6.38C1072.05,542.65,1071.3,542,1071.52,540.9Z" transform="translate(-697.69 -527.25)"/><path class="cls-113" d="M799.19,537.16c-.15.39.29.21.1.64,1.29-1.92,2.5-.26,3.77-1.15a3.91,3.91,0,0,0-3.16-.69c-.12.27.1.57.2.86C799.8,536.86,799.49,537.36,799.19,537.16Z" transform="translate(-697.69 -527.25)"/><path class="cls-114" d="M721.74,607.28c.37.57.75-.38,1.13-.33C722.49,606.83,722.12,606.43,721.74,607.28Z" transform="translate(-697.69 -527.25)"/><path class="cls-115" d="M742.23,604.26a2.17,2.17,0,0,0,.21.86c.29-.79-.14-.85-.43-1.31-.29.33-.23.68-.35,1C741.84,605.08,742,604.52,742.23,604.26Z" transform="translate(-697.69 -527.25)"/><path class="cls-116" d="M725.49,571.52c-.46.22.71.2.66,1.32a4.57,4.57,0,0,0,.14-1.47C725.8,570.69,726,572.21,725.49,571.52Z" transform="translate(-697.69 -527.25)"/><path class="cls-117" d="M733.31,585.41c.24-.54-.43-.36-.56-.67a1.1,1.1,0,0,0,0,1.26C732.75,585.44,733,585.25,733.31,585.41Z" transform="translate(-697.69 -527.25)"/><path class="cls-118" d="M731.38,578.51a2.44,2.44,0,0,0-.47,1.23c.22.39.46-.51.68,0,.11-.26-.05-.33-.11-.22C731.44,579.22,731.63,578.88,731.38,578.51Z" transform="translate(-697.69 -527.25)"/><path class="cls-119" d="M747.29,610.58c.39,1,.29-.51.47-.81.33-.47,0,.66.43.88.63-1.18,1.22-.85,1.81-.27.11-.41.13-.83.25-1.25a1.62,1.62,0,0,1-2.37,0C747.62,610.09,747.31,609.86,747.29,610.58Z" transform="translate(-697.69 -527.25)"/><path class="cls-120" d="M730.43,574.43c1.38-.2,2.29.19,3.64-1-.17-.42-.49-.23-.33-.66-.5-.43-.3.31-.81.57.11-1.06-1.69-.33-1.22-1.15C731.43,571.39,730.66,573.4,730.43,574.43Z" transform="translate(-697.69 -527.25)"/><path class="cls-121" d="M755.47,618.43c-.79-.09-1.57-.33-2.36-.41C753.44,618.87,754.75,618.85,755.47,618.43Z" transform="translate(-697.69 -527.25)"/><path class="cls-122" d="M715.92,538.75c.12-.4-.19-.2-.34-.66,0,.77-.39.34-.7,1.22C715.62,539.78,715.59,539,715.92,538.75Z" transform="translate(-697.69 -527.25)"/><path class="cls-123" d="M733.37,574.66c.42-.21.82.36,1.25-.54C734.22,573.12,733.79,574.48,733.37,574.66Z" transform="translate(-697.69 -527.25)"/><path class="cls-124" d="M752.53,607.63c.21-.61-.52.26-.66-.89-.32.32,0,.7-.13,1C752,608.18,752.26,607.69,752.53,607.63Z" transform="translate(-697.69 -527.25)"/><path class="cls-125" d="M727.75,548.72c-.45-.34-.89-.78-1.37.31.44.5.6,0,.78,1.12.11-.2,0-.43-.1-.64C727.3,548.93,727.51,549.47,727.75,548.72Z" transform="translate(-697.69 -527.25)"/><path class="cls-126" d="M740.8,563.85a14.72,14.72,0,0,1,.48-1.64c-.51.53-1.45.36-1.6,1.13C740.27,562.81,740.17,563.84,740.8,563.85Z" transform="translate(-697.69 -527.25)"/><path class="cls-127" d="M764.15,612c.3-.39.61-.64.9-.34.25-.54-.42-.36-.55-.68-.19-.79.61-.31.48-1.23-.25-.64-.54.61-.78-.27C764.29,610.33,763.67,610.7,764.15,612Z" transform="translate(-697.69 -527.25)"/><path class="cls-128" d="M768.08,612.52c.37-.76-.3-.57-.09-1.06-.49.2-1,0-1.48.5C767,612.69,767.58,611.15,768.08,612.52Z" transform="translate(-697.69 -527.25)"/><path class="cls-129" d="M769.36,610.31c-.29.05-.42.26-.46.81-.21-.37-.09-.71-.32-1.08-.65.5-1.28.26-1.91-.38.08,1.77,1.19.46,1.65,2,.4-1.05.76-.33,1.12.52.67-.27.67-.77,1.27-1.37-.22-.22-.45-.26-.67-.48-.32.33,0,.71-.13,1-.12.12-.23,0-.35.19C769.44,611.16,769.84,610.78,769.36,610.31Z" transform="translate(-697.69 -527.25)"/><path class="cls-130" d="M738.93,528.28c.17.29.33.58.21.85.19.24.39-.32.58-.58-.3-.34-.6-.29-.9-.5C738.71,528.32,738.86,528.39,738.93,528.28Z" transform="translate(-697.69 -527.25)"/><path class="cls-131" d="M749.74,534.64c-.2.53,1.45,1.74,2,.59-.16-.2-.89.51-.67-.48C750.66,534.22,750.17,535.78,749.74,534.64Z" transform="translate(-697.69 -527.25)"/><path class="cls-132" d="M756.81,539.23c-.1-1.67-1.25-.36-1.09-2.2-.52.38.26.86-.25,1.24C755.93,538.69,756.12,540.27,756.81,539.23Z" transform="translate(-697.69 -527.25)"/><path class="cls-133" d="M777.1,571.53c-.26.83.42.36.55.68.22-.29.12-.9.35-.6.12-.13.07-.28,0-.42l-.22-.44c.12.31-.58,1.51-.35.6C777.23,571.08,777.33,571.9,777.1,571.53Z" transform="translate(-697.69 -527.25)"/><path class="cls-134" d="M768.7,540.85c-.05.54-.17.73-.46.38,0,.78,1,.63,1.34,1a3.65,3.65,0,0,0,1.08,2.62,25.29,25.29,0,0,0-.49-3.63C770.05,543.31,769.46,540.81,768.7,540.85Z" transform="translate(-697.69 -527.25)"/><path class="cls-135" d="M771.89,545.56c.14.87,1.27.58,1.79,1,.36-.74-.78-.44-.42-1.31C773.05,545.51,772.39,546.25,771.89,545.56Z" transform="translate(-697.69 -527.25)"/><path class="cls-136" d="M770.83,542.09c-.46.5,0,.75.22.44a1.37,1.37,0,0,1,.09,1.06c.18.22.38,0,.56.27-.2-.38-.33-1.79.35-.61.13-.34-.17-.72-.31-1.08C771.43,542.65,771.12,542.63,770.83,542.09Z" transform="translate(-697.69 -527.25)"/><path class="cls-137" d="M776.58,543.64c-.18-.22-.38,0-.56-.26-.44.46.07,1-.37,1.45C776,544.78,776,544.26,776.58,543.64Z" transform="translate(-697.69 -527.25)"/><path class="cls-138" d="M781.61,537.11l.35-.6c-.2-.58-.39-1.2.25-.83.28-.57-.35-.1-.44-.88,0,.77-.16.24-.47.8C781.72,536.13,781,536.57,781.61,537.11Z" transform="translate(-697.69 -527.25)"/><path class="cls-139" d="M790.15,550.08c-.11.27-.23.31-.34.18-.29-.28-.06.55.11.22a2,2,0,0,1-.26,1.24C790,552,790.54,550.55,790.15,550.08Z" transform="translate(-697.69 -527.25)"/><path class="cls-140" d="M803.43,577.2c-.35-1.09-.75-.33-1.12-.52-.1.27.14.57,0,.84.15.22.18-.08.12-.2C802.76,576.66,803.06,578.47,803.43,577.2Z" transform="translate(-697.69 -527.25)"/><path class="cls-141" d="M794.12,535.66c.28-1.47,1-.6,1.62-1.13-.12.07-1.66-1.34-1.81-.16-.44-.91-.89-.9-1.35-.54C793.08,535.05,793.62,534.74,794.12,535.66Z" transform="translate(-697.69 -527.25)"/><path class="cls-142" d="M796.08,534.35c-.12.34.18.72.32,1.08-.35.37-.67-.42-1,.55.6.21,1.23-.79,1.81.16.16-2.37,1.77.68,2.62-.41,0-.34-.23-.72-.09-1.06-.49.15-1,1.18-1.46-.34C797.5,535.09,796.8,534.43,796.08,534.35Z" transform="translate(-697.69 -527.25)"/><path class="cls-143" d="M797.49,532.37c-1-.24-2.61.62-3.26-1.35A1.91,1.91,0,0,0,797.49,532.37Z" transform="translate(-697.69 -527.25)"/><path class="cls-144" d="M802.66,534.09a3.65,3.65,0,0,0,1.35.54C804,533.77,803.05,533.9,802.66,534.09Z" transform="translate(-697.69 -527.25)"/><path class="cls-145" d="M809.77,535.77c-.42-.61.35-1.46-.31-1.5.19,1.13-.14,1.35-.71,1.2.7.91,2.39,1.1,3.49.95-.44-1.23-1,.08-1.1-1.37C811,536.57,810.23,534.73,809.77,535.77Z" transform="translate(-697.69 -527.25)"/><path class="cls-146" d="M809.93,533.89c.25-.77-.43-.29-.54-1.1-.41.85-.31,1.08-.81.56C808.56,534.5,809.55,533.62,809.93,533.89Z" transform="translate(-697.69 -527.25)"/><path class="cls-147" d="M814.83,537.28c-.31-2.64-1.61-1.21-2.36-.84A2.79,2.79,0,0,0,814.83,537.28Z" transform="translate(-697.69 -527.25)"/><path class="cls-148" d="M824.64,539.21c.33.22.67,0,1.25-.1l-.32-.66C825.24,539.43,825,538.47,824.64,539.21Z" transform="translate(-697.69 -527.25)"/><path class="cls-149" d="M831.71,537.32c.26-.54-.42-.36-.54-.69l-.71,1.21C831,538.21,831.07,536.51,831.71,537.32Z" transform="translate(-697.69 -527.25)"/><path class="cls-150" d="M838.91,539.24a2.15,2.15,0,0,1,.25-.83c-.46-1-1-.15-1.46-.34C837.85,540.07,838.39,537.07,838.91,539.24Z" transform="translate(-697.69 -527.25)"/><path class="cls-151" d="M848.56,538.63c.19.51-.1,1-.15,1.46.37.13.78-.83,1.13.11.51-2,1.09-.66,1.72-.9s-.26-.87.26-1.24c-.65.51-1.27-.43-1.94.46-.21-.37-.08-.72-.31-1.09,0,.68-.5,1-.82,1C848.17,538.13,848.38,539,848.56,538.63Z" transform="translate(-697.69 -527.25)"/><path class="cls-152" d="M868.66,540.9c.12-.34-.17-.72-.31-1.08-.53,1.24-1-.33-1.5.92C867.43,541.74,868.09,539.68,868.66,540.9Z" transform="translate(-697.69 -527.25)"/><path class="cls-153" d="M880.21,540.7c-.48-.18-1,.25-1.46-.34C878.74,541.16,880.17,541.35,880.21,540.7Z" transform="translate(-697.69 -527.25)"/><path class="cls-154" d="M890,544.35c.2.45-.73.39,0,1.27a16.12,16.12,0,0,0,.27-1.67c-.29-.3-.61-.05-.92.34C889.49,545,889.74,544.3,890,544.35Z" transform="translate(-697.69 -527.25)"/><path class="cls-155" d="M934.67,544.55c.12-.13.07-.28,0-.42l-.21-.44c-.32.6-.6-.13-.91-.09C933.46,544.73,934.37,544,934.67,544.55Z" transform="translate(-697.69 -527.25)"/><path class="cls-156" d="M971.72,621.13c.63.22,1.28-.06,1.91.4.3-1.23,1.12-.57,1.71-.48.07-.2,0-.41.13-.61a.38.38,0,0,1,0-.42C974.22,620.8,973,620.24,971.72,621.13Z" transform="translate(-697.69 -527.25)"/><path class="cls-157" d="M999.63,537.26c.61-.5-.1-1.14.51-1.64-.11-.14-.23,0-.33-.25l-.24.4C1000.15,536.32,999.05,536.71,999.63,537.26Z" transform="translate(-697.69 -527.25)"/><path class="cls-158" d="M1004.68,538.8c.6,1.26,0-1.62.6-1,.22-.74-.49-.81-.68-.07A.88.88,0,0,1,1004.68,538.8Z" transform="translate(-697.69 -527.25)"/></svg>