<svg id="Layer_1" data-name="Layer 1" xmlns="http://www.w3.org/2000/svg" viewBox="0 0 149.65 200"><defs><style>.cls-1{fill:#d3d3d3;}.cls-2{fill:none;}.cls-3{fill:#c1272d;}</style></defs><title>tttUntitled-2</title><path class="cls-1" d="M254.47,355.17a4.39,4.39,0,0,0-6.39-.14l-8,8a4.41,4.41,0,0,0,.14,6.39,4.63,4.63,0,0,0,6.06.35l4.6,4.6,8.52-8.51-4.61-4.61A4.61,4.61,0,0,0,254.47,355.17Z" transform="translate(-231.17 -296.23)"/><path class="cls-1" d="M306.48,353.51c-16.93,0-30.71-12.85-30.71-28.64s13.78-28.64,30.71-28.64,30.7,12.85,30.7,28.64S323.41,353.51,306.48,353.51Zm0-51.52c-13.76,0-25,10.26-25,22.88s11.19,22.89,25,22.89,24.95-10.27,24.95-22.89S320.24,302,306.48,302Z" transform="translate(-231.17 -296.23)"/><path class="cls-1" d="M306,496.23a74.83,74.83,0,1,1,74.83-74.83A74.92,74.92,0,0,1,306,496.23Zm0-141a66.2,66.2,0,1,0,66.19,66.19A66.26,66.26,0,0,0,306,355.21Z" transform="translate(-231.17 -296.23)"/><rect class="cls-1" x="72.83" y="64.77" width="6" height="10"/><rect class="cls-1" x="264.04" y="377.04" width="5.76" height="10.08" transform="translate(-423.17 4.41) rotate(-45)"/><rect class="cls-1" x="14.83" y="122.77" width="11" height="6"/><rect class="cls-1" x="261.88" y="457.57" width="10.08" height="5.76" transform="translate(-478.58 27.37) rotate(-45)"/><rect class="cls-1" x="72.83" y="175.77" width="6" height="10"/><rect class="cls-1" x="342.4" y="455.41" width="5.76" height="10.08" transform="translate(-455.64 82.85) rotate(-45.01)"/><rect class="cls-1" x="125.83" y="122.77" width="10" height="6"/><rect class="cls-1" x="340.24" y="379.2" width="10.08" height="5.76" transform="translate(-400.21 59.77) rotate(-44.99)"/><rect class="cls-1" x="66.83" y="33.77" width="19" height="24"/><rect class="cls-1" x="59.83" y="18.77" width="33" height="19" rx="1.44" ry="1.44"/><polyline class="cls-2" points="75.83 172.77 75.83 169.89 75.83 125.77"/><line class="cls-2" x1="75.83" y1="80.77" x2="75.83" y2="77.77"/><polyline class="cls-2" points="75.83 172.77 75.83 169.89 75.83 125.77"/><line class="cls-2" x1="75.83" y1="80.77" x2="75.83" y2="77.77"/><polyline class="cls-2" points="108.41 158.75 106.48 156.82 74.83 125.17"/><line class="cls-2" x1="43" y1="93.35" x2="41.25" y2="91.59"/><line class="cls-2" x1="27.83" y1="125.77" x2="122.83" y2="125.77"/><line class="cls-2" x1="41.24" y1="158.76" x2="108.41" y2="91.59"/><path class="cls-2" d="M307,376.34V421.4l-31.82-31.82A45.49,45.49,0,0,1,307,376.34Z" transform="translate(-231.17 -296.23)"/><path class="cls-3" d="M352,421.23v.17c0,12.38-5.65,23.57-13.79,31.65a45.37,45.37,0,0,1-31.93,13.07A44.39,44.39,0,0,1,262,421.4v-.17a44.77,44.77,0,0,1,13.12-31.65L307,421.4V376.34a43.89,43.89,0,0,1,31.88,13.24A44.77,44.77,0,0,1,352,421.23Z" transform="translate(-231.17 -296.23)"/><path class="cls-1" d="M311.37,415.89c4,3.35,4.64,8.66,1,12.35l-.33.32c-3.68,3.69-9,3-12.34-.95-7.47-8.9-20.61-27.81-26.63-36.07a1.62,1.62,0,0,1,2.27-2.28C284.9,396.38,302.47,408.42,311.37,415.89Z" transform="translate(-231.17 -296.23)"/></svg>