<svg id="Layer_1" data-name="Layer 1" xmlns="http://www.w3.org/2000/svg" viewBox="0 0 63.34 44.85"><defs><style>.cls-1{fill:#1a1b1c;}.cls-2{fill:#2e2f31;}.cls-3{fill:#6b4e4a;}</style></defs><title>tttUntitled-1</title><path class="cls-1" d="M312.74,392.35a1.09,1.09,0,0,1,0,.12c0,.11,0,.24,0,.38a7.55,7.55,0,0,1-.23,1.19,10.51,10.51,0,0,1-1.39,3.23,8.11,8.11,0,0,1-1.18,1.45,5.43,5.43,0,0,1-.62.57,4.34,4.34,0,0,1-.6.44,6.86,6.86,0,0,1-1,.56l-.36.19a.53.53,0,0,1-.72-.24.52.52,0,0,1,.11-.62l.05-.05.27-.25a4.88,4.88,0,0,0,.64-.68,3,3,0,0,0,.37-.48,4.74,4.74,0,0,0,.36-.58,6.9,6.9,0,0,0,.56-1.33,7.91,7.91,0,0,0,.32-2.61,6.08,6.08,0,0,0-.08-.83.81.81,0,0,0,0-.19s0-.08,0-.07v-.05a1.8,1.8,0,1,1,3.55-.57A2,2,0,0,1,312.74,392.35Z" transform="translate(-273.09 -374.39)"/><path class="cls-2" d="M274.54,386.26V376.07h54.14c3.06,0,3.22,2.28,4.14,5.1l1.67,5.09Z" transform="translate(-273.09 -374.39)"/><rect class="cls-1" y="3.26" width="1.45" height="7.26"/><path class="cls-2" d="M278.1,376.07s-.28-2.34,2.43-1.49a31.89,31.89,0,0,1,4,1.49Z" transform="translate(-273.09 -374.39)"/><path class="cls-1" d="M331.16,399.47c2.34,6.47,7.45,19.77,3.33,19.77H323a3.93,3.93,0,0,1-3.78-3.29L316.69,400s-1.11-7.57-5.73-7.57H278.09v-6.19h56.4S328.82,393,331.16,399.47Z" transform="translate(-273.09 -374.39)"/><path class="cls-1" d="M302.46,392.52l-.08.22a5.63,5.63,0,0,0-.18.7,13.34,13.34,0,0,0-.28,2.6,11.21,11.21,0,0,0,.1,1.7,7.26,7.26,0,0,0,.43,1.77,3.8,3.8,0,0,0,.92,1.46,2.12,2.12,0,0,0,1.41.59c.73,0,1.52,0,2.27,0l2.22,0c1.44,0,2.78-.11,3.93-.2,2.31-.16,3.84-.42,3.84-.42a1.72,1.72,0,0,1,.58,3.4,1.61,1.61,0,0,1-.58,0s-1.53-.26-3.84-.42c-1.15-.09-2.49-.15-3.93-.2l-2.22,0h-2.31a4.47,4.47,0,0,1-2.79-1,7,7,0,0,1-1.7-2.09,19.37,19.37,0,0,1-1.59-4.07c-.34-1.2-.58-2.22-.75-2.95-.09-.37-.16-.66-.2-.85s-.07-.34-.07-.34l0-.18a2.52,2.52,0,1,1,4.86.33Z" transform="translate(-273.09 -374.39)"/><path class="cls-1" d="M332.31,379.48s1.23,1.69,3.73,0c1.45-1-1.55,6.78-1.55,6.78Z" transform="translate(-273.09 -374.39)"/><polygon class="cls-3" points="38.82 10.34 37.71 10.34 33.98 4.12 35.09 4.15 38.82 10.34"/><polygon class="cls-3" points="42.28 10.34 41.17 10.34 37.44 4.12 38.55 4.15 42.28 10.34"/><polygon class="cls-3" points="45.74 10.34 44.63 10.34 40.9 4.12 42.01 4.15 45.74 10.34"/><polygon class="cls-3" points="49.2 10.34 48.09 10.34 44.35 4.12 45.47 4.15 49.2 10.34"/><polygon class="cls-3" points="52.66 10.34 51.55 10.34 47.81 4.12 48.92 4.15 52.66 10.34"/><polygon class="cls-3" points="56.12 10.34 55.01 10.34 51.27 4.12 52.38 4.15 56.12 10.34"/><rect class="cls-1" x="19.02" y="1.68" width="12.4" height="2.54"/><rect class="cls-2" x="5" y="13.53" width="50.33" height="1.87"/><path class="cls-2" d="M330,388.85a1.59,1.59,0,1,1-1.59-1.59A1.6,1.6,0,0,1,330,388.85Z" transform="translate(-273.09 -374.39)"/><path class="cls-2" d="M332.31,418.41h-7.95a4,4,0,0,1-4-3.8,10.29,10.29,0,0,1-.55-3.93c-.1-3.4-3-17.55-3-17.69l-.27-1.33h13.52l-.6,1.52c-1.41,3.56.75,8.52.77,8.57.48,1,4.66,10.31,4.66,13.24a3.51,3.51,0,0,1-1.11,2.87A2.37,2.37,0,0,1,332.31,418.41Zm-10.11-5.34h.28l0,1.06c0,.34.2,2.06,1.83,2.06h7.91c.16,0,.39-.38.39-1.2,0-1.85-2.74-8.55-4.46-12.34-.1-.22-2-4.68-1.25-8.77h-7.71c.73,3.67,2.69,13.76,2.77,16.74A19.48,19.48,0,0,0,322.2,413.07Z" transform="translate(-273.09 -374.39)"/></svg>