<?xml version="1.0" encoding="UTF-8"?>
<svg width="500px" height="135px" viewBox="0 0 500 135" version="1.1" xmlns="http://www.w3.org/2000/svg" xmlns:xlink="http://www.w3.org/1999/xlink">
    <!-- Generator: Sketch 53.2 (72643) - https://sketchapp.com -->
    <title>logo</title>
    <desc>Created with Sketch.</desc>
    <g id="logo" stroke="none" stroke-width="1" fill="none" fill-rule="evenodd">
        <g id="Group" fill="#000000" fill-rule="nonzero">
            <path d="M68.6150972,113.395037 C68.6150972,120.793193 67.0699504,126.095675 63.9796566,129.30248 C60.8893628,132.509286 55.4490357,134.112689 47.6586753,134.112689 L3.55271368e-14,134.112689 L3.55271368e-14,-3.55271368e-14 L52.6642462,-3.55271368e-14 C57.9800216,-3.55271368e-14 61.9680281,1.4803346 64.6282658,4.44100379 C67.2885035,7.40167299 68.6174473,11.3480598 68.6150972,16.2801643 L68.6150972,113.395037 Z M26.7022534,23.4919607 L26.7022534,110.610179 L39.3148821,110.610179 C40.4240978,110.610179 41.1291078,110.394517 41.429912,109.963192 C41.7365914,109.530695 41.8916936,108.823932 41.8916936,107.83587 L41.8916936,26.0834253 C41.8916936,24.3557822 41.0879822,23.4919607 39.4805594,23.4919607 L26.7022534,23.4919607 Z" id="Shape"></path>
            <path d="M445.344611,134.102137 L440.447535,109.13622 L469.837149,109.13622 C471.97067,109.13622 473.037431,108.211426 473.037431,106.361839 L473.037431,81.9339196 C473.037431,80.084332 472.660366,78.974345 471.906235,78.6039586 C471.152105,78.2335722 469.839536,78.0495511 467.968528,78.0518953 L453.842899,78.0518953 C451.923726,78.0579017 450.007548,77.9026171 448.115325,77.5877403 C446.329235,77.3007455 444.645953,76.5750103 443.221829,75.4779445 C441.693679,74.2598386 440.52354,72.6637694 439.831821,70.8539754 C439.013255,68.8801442 438.605166,66.2288341 438.607552,62.9000452 L438.607552,17.3741684 C438.607552,12.0738925 440.082402,7.85430089 443.032103,4.7153936 C445.981804,1.5764863 450.658129,0.00468843509 457.061079,-3.55271368e-14 L494.727038,-3.55271368e-14 L499.434387,24.9659169 L468.548445,24.9659169 C466.290826,24.9659169 465.160824,25.9528325 465.158437,27.9266636 L465.158437,52.3440336 C465.158437,53.7013356 465.504478,54.6261294 466.19656,55.1184151 C466.888642,55.6107008 467.924378,55.8580157 469.303769,55.8603599 L486.439954,55.8603599 C490.831094,55.8603599 494.190078,56.8777504 496.516904,58.9125312 C498.843731,60.947312 500.004758,64.4929411 499.999985,69.5494183 L499.999985,113.763705 C499.999985,121.162056 498.461893,126.403726 495.385709,129.488717 C492.309524,132.573707 486.879068,134.11503 479.09434,134.112686 L445.344611,134.102137 Z" id="Path"></path>
            <path d="M128.114659,75.651968 C128.106985,77.8135516 127.341073,79.9005781 125.956129,81.5337309 C124.519568,83.3144827 122.406545,84.2048587 119.61706,84.2048587 L129.549989,115.073739 L109.946105,115.073739 L100.799102,84.2048587 L98.3158696,84.2048587 L98.3158696,115.073739 L79.3650794,115.073739 L79.3650794,18.2076309 L115.307378,18.2076309 C119.749892,18.2076309 122.994453,19.3394647 125.041059,21.6031322 C127.087666,23.8667998 128.112199,26.9177206 128.114659,30.7558947 L128.114659,75.651968 Z M98.3158696,35.177592 L98.3158696,68.5855525 L107.595706,68.5855525 C108.813338,68.5855525 109.440603,67.9177705 109.440603,66.5822067 L109.440603,37.1696195 C109.440603,35.8302828 108.828097,35.1625009 107.595706,35.1625009 L98.3158696,35.177592 Z" id="Shape"></path>
            <path d="M152.391962,115.073739 C146.769681,115.073739 142.843907,113.915676 140.614642,111.59955 C138.385377,109.283425 137.270745,105.453393 137.270745,100.109455 L137.270745,18.2076309 L157.077197,18.2076309 L157.077197,95.9675883 C157.040657,96.5221762 157.155576,97.0762667 157.409698,97.5707697 C157.632624,97.9479888 158.165381,98.1064209 158.947513,98.1064209 L165.775109,98.1064209 C166.576133,98.1064209 167.089997,97.9291279 167.312924,97.5707697 C167.568531,97.0766965 167.68477,96.5225364 167.649203,95.9675883 L167.649203,18.2076309 L187.455655,18.2076309 L187.455655,100.109455 C187.455655,105.453393 186.339763,109.283425 184.107979,111.59955 C181.876195,113.915676 177.950422,115.073739 172.330659,115.073739 L152.391962,115.073739 Z" id="Path"></path>
            <path d="M195.17641,29.9678458 C195.17641,26.4062036 196.158454,23.5551292 198.122543,21.4146224 C200.086631,19.2741157 203.035345,18.20512 206.968683,18.2076353 L235.353761,18.2076353 L238.779947,36.2497677 L216.976243,36.2497677 C215.786434,36.2497677 215.19282,36.8723005 215.1954,38.1173661 L215.1954,95.5828027 C215.1954,96.8404447 215.789015,97.4692657 216.976243,97.4692657 L226.027567,97.4692657 L226.027567,59.2344331 L245.36132,59.2344331 L245.36132,115.073739 L210.685224,115.073739 C204.927167,115.073739 200.904786,113.91545 198.618082,111.598874 C196.331377,109.282297 195.189315,105.45152 195.191896,100.106541 L195.17641,29.9678458 Z" id="Path"></path>
            <polygon id="Path" points="306.792539 18.2076309 326.429252 18.2076309 311.302765 115.073739 293.790054 115.073739 285.829731 64.5678655 278.000519 115.073739 260.487807 115.073739 245.36132 18.2076309 264.998033 18.2076309 271.100323 74.5905785 278.929535 18.2076309 292.861037 18.2076309 300.555392 74.5905785"></polygon>
            <path d="M343.174807,103.047992 L341.491495,115.073739 L322.568874,115.073739 L339.548368,18.2076309 L359.638328,18.2076309 L376.614162,115.073739 L357.691541,115.073739 L356.00823,103.047992 L343.174807,103.047992 Z M345.249671,87.6838555 L353.933365,87.6838555 L349.655557,53.3569121 L345.249671,87.6838555 Z" id="Shape"></path>
            <path d="M429.220324,75.64302 C429.214002,77.8038456 428.449323,79.8906028 427.065325,81.5238667 C425.626199,83.3043411 423.51302,84.1945783 420.72579,84.1945783 L430.65945,115.073739 L411.054124,115.073739 L401.906448,84.2096671 L399.423033,84.2096671 L399.423033,115.073739 L380.47454,115.073739 L380.47454,18.2076309 L416.415792,18.2076309 C420.863552,18.2076309 424.109581,19.3392884 426.153878,21.6026033 C428.198175,23.8659183 429.220324,26.9163639 429.220324,30.7539401 L429.220324,75.64302 Z M399.423033,35.1598599 L399.423033,68.5626164 L408.703552,68.5626164 C409.921274,68.5626164 410.536285,67.8949385 410.548585,66.5595826 L410.548585,37.1666658 C410.548585,35.8287952 409.933574,35.1598599 408.703552,35.1598599 L399.423033,35.1598599 Z" id="Shape"></path>
        </g>
    </g>
</svg>